<svg xmlns="http://www.w3.org/2000/svg" viewBox="0 0 530.63 416"  >
    <defs>
        <style>
            .cyber_baseline {
            fill: #1d1d1b;
            }

            .cyber_baseline, .cyber_secondary, .cyber_primary {
            stroke-width: 0px;
            }

            .cyber_secondary {
            fill: #e1000f;
            }

            .cyber_primary {
            fill: #000091;
            }

        </style>
    </defs>
    <g id="logo-17cyber">
        <g>
            <g>
                <path class="cyber_baseline" d="m0,373.97h6.46l8.58,14.25,8.54-14.25h6.5v30.97h-5.09v-23.85l-8.1,13.23h-3.72l-8.14-13.23v23.85H0v-30.97Z"/>
                <path class="cyber_baseline" d="m62.29,393.79c0,6.59-4.87,12.04-12.12,12.04s-12.12-5.44-12.12-12.04,4.91-12.04,12.12-12.04,12.12,5.44,12.12,12.04Zm-4.78,0c0-4.34-3.1-7.74-7.3-7.74s-7.39,3.45-7.39,7.74,3.1,7.74,7.39,7.74,7.3-3.5,7.3-7.74Z"/>
                <path class="cyber_baseline" d="m69.59,382.64h4.56v2.17c1.68-1.77,3.89-3.05,7.08-3.05,4.91,0,8.67,3.32,8.67,9.78v13.41h-4.6v-13.23c0-3.54-1.95-5.66-5.13-5.66s-4.87,1.9-6.02,3.85v15.04h-4.56v-22.3Z"/>
                <path class="cyber_baseline" d="m110.9,399.28c0-3.45,2.57-5.97,7.35-6.73l7.17-1.2v-1.15c0-2.74-2.04-4.42-4.91-4.42-2.39,0-4.38,1.06-5.58,2.92l-3.41-2.61c1.99-2.66,5.18-4.34,9.16-4.34,6.02,0,9.33,3.54,9.33,8.45v14.73h-4.6v-2.52c-1.55,2.08-4.29,3.41-7.12,3.41-4.38,0-7.39-2.52-7.39-6.55Zm8.27,2.79c2.74,0,4.87-1.42,6.24-3.63v-3.76l-5.97,1.06c-2.83.44-3.98,1.64-3.98,3.36s1.42,2.96,3.72,2.96Z"/>
                <path class="cyber_baseline" d="m139.61,399.01c1.46,1.86,3.23,3.01,5.44,3.01s3.36-1.24,3.36-2.92c0-4.51-10.71-2.79-10.71-10.8,0-3.76,3.14-6.55,7.52-6.55,3.32,0,6.24,1.59,7.83,3.72l-3.14,2.74c-1.15-1.59-2.74-2.66-4.65-2.66-2.03,0-3.14,1.02-3.14,2.57,0,4.51,10.71,2.88,10.71,10.71-.04,4.38-3.58,6.99-7.74,6.99-3.76,0-6.55-1.5-8.63-4.03l3.14-2.79Z"/>
                <path class="cyber_baseline" d="m160.8,399.01c1.46,1.86,3.23,3.01,5.44,3.01s3.36-1.24,3.36-2.92c0-4.51-10.71-2.79-10.71-10.8,0-3.76,3.14-6.55,7.52-6.55,3.32,0,6.24,1.59,7.83,3.72l-3.14,2.74c-1.15-1.59-2.74-2.66-4.65-2.66-2.03,0-3.14,1.02-3.14,2.57,0,4.51,10.71,2.88,10.71,10.71-.04,4.38-3.58,6.99-7.74,6.99-3.76,0-6.55-1.5-8.63-4.03l3.14-2.79Z"/>
                <path class="cyber_baseline" d="m180.53,374.59c0-1.68,1.42-3.1,3.1-3.1s3.1,1.42,3.1,3.1-1.42,3.1-3.1,3.1-3.1-1.42-3.1-3.1Zm.8,8.05h4.56v22.3h-4.56v-22.3Z"/>
                <path class="cyber_baseline" d="m195.57,399.01c1.46,1.86,3.23,3.01,5.44,3.01s3.36-1.24,3.36-2.92c0-4.51-10.71-2.79-10.71-10.8,0-3.76,3.14-6.55,7.52-6.55,3.32,0,6.24,1.59,7.83,3.72l-3.14,2.74c-1.15-1.59-2.74-2.66-4.65-2.66-2.03,0-3.14,1.02-3.14,2.57,0,4.51,10.71,2.88,10.71,10.71-.04,4.38-3.58,6.99-7.74,6.99-3.76,0-6.55-1.5-8.63-4.03l3.14-2.79Z"/>
                <path class="cyber_baseline" d="m217.69,386.8h-4.2v-4.16h4.2v-5.58h4.6v5.58h7.39v4.16h-7.39v10.4c0,3.01,1.59,3.98,4.07,3.98,1.5,0,2.52-.18,3.32-.49v4.03c-1.06.44-2.3.66-4.03.66-5.22,0-7.96-2.74-7.96-8.19v-10.4Z"/>
                <path class="cyber_baseline" d="m235.52,399.28c0-3.45,2.57-5.97,7.35-6.73l7.17-1.2v-1.15c0-2.74-2.03-4.42-4.91-4.42-2.39,0-4.38,1.06-5.58,2.92l-3.41-2.61c1.99-2.66,5.18-4.34,9.16-4.34,6.02,0,9.34,3.54,9.34,8.45v14.73h-4.6v-2.52c-1.55,2.08-4.29,3.41-7.12,3.41-4.38,0-7.39-2.52-7.39-6.55Zm8.27,2.79c2.74,0,4.87-1.42,6.24-3.63v-3.76l-5.97,1.06c-2.83.44-3.98,1.64-3.98,3.36s1.42,2.96,3.72,2.96Z"/>
                <path class="cyber_baseline" d="m263.3,382.64h4.56v2.17c1.68-1.77,3.89-3.05,7.08-3.05,4.91,0,8.67,3.32,8.67,9.78v13.41h-4.6v-13.23c0-3.54-1.95-5.66-5.13-5.66s-4.87,1.9-6.02,3.85v15.04h-4.56v-22.3Z"/>
                <path class="cyber_baseline" d="m308.47,398.48l3.63,2.83c-2.04,2.74-5.31,4.51-9.42,4.51-7.48,0-12.17-5.53-12.17-12.04s4.69-12.04,12.17-12.04c4.07,0,7.39,1.77,9.42,4.51l-3.63,2.83c-1.24-1.81-3.23-3.05-5.8-3.05-4.29,0-7.39,3.36-7.39,7.74s3.1,7.74,7.43,7.74c2.48,0,4.51-1.24,5.75-3.05Z"/>
                <path class="cyber_baseline" d="m328.07,405.83c-7.7,0-12.26-5.53-12.26-12.04s4.25-12.04,11.33-12.04c6.15,0,10.13,4.16,10.13,9.82,0,1.06-.13,2.08-.31,2.74h-16.46c.18,4.42,3.19,7.39,7.65,7.39,2.65,0,4.87-1.2,6.24-3.05l3.32,2.65c-2.08,2.79-5.49,4.51-9.65,4.51Zm-7.21-15.04h11.81c-.13-2.79-2.12-5.13-5.49-5.13s-5.53,1.68-6.33,5.13Z"/>
                <path class="cyber_baseline" d="m368.85,405.83c-7.7,0-12.26-5.53-12.26-12.04s4.25-12.04,11.33-12.04c6.15,0,10.13,4.16,10.13,9.82,0,1.06-.13,2.08-.31,2.74h-16.46c.18,4.42,3.19,7.39,7.65,7.39,2.65,0,4.87-1.2,6.24-3.05l3.32,2.65c-2.08,2.79-5.49,4.51-9.65,4.51Zm-7.21-15.04h11.81c-.13-2.79-2.12-5.13-5.49-5.13s-5.53,1.68-6.33,5.13Z"/>
                <path class="cyber_baseline" d="m385.62,382.64h4.56v2.17c1.68-1.77,3.89-3.05,7.08-3.05,4.91,0,8.67,3.32,8.67,9.78v13.41h-4.6v-13.23c0-3.54-1.95-5.66-5.13-5.66s-4.87,1.9-6.02,3.85v15.04h-4.56v-22.3Z"/>
                <path class="cyber_baseline" d="m428.13,371.75h4.56v33.19h-4.56v-33.19Z"/>
                <path class="cyber_baseline" d="m440.91,374.59c0-1.68,1.42-3.1,3.1-3.1s3.1,1.42,3.1,3.1-1.42,3.1-3.1,3.1-3.1-1.42-3.1-3.1Zm.8,8.05h4.56v22.3h-4.56v-22.3Z"/>
                <path class="cyber_baseline" d="m456.09,403.39c-.93-.84-1.46-2.08-1.46-3.23,0-1.77.84-3.19,2.57-4.38-1.95-1.46-3.05-3.72-3.05-6.19,0-4.29,3.32-7.83,8.76-7.83,1.68,0,3.14.31,4.38.89h8.23v3.89h-4.38c.4.93.62,1.99.62,3.05,0,4.34-3.32,7.92-8.85,7.92-.97,0-1.86-.13-2.7-.31-.71.58-1.11,1.24-1.11,1.9,0,.93.49,1.46,1.68,1.46h6.06c5.75,0,8.63,2.96,8.63,6.99,0,4.91-4.47,8.45-11.46,8.45s-11.11-2.52-11.11-7.08c0-2.26,1.15-4.03,3.19-5.53Zm7.83,8.89c4.42,0,6.99-1.73,6.99-4.34,0-1.9-1.11-3.41-4.51-3.41h-6.59c-1.68.97-2.57,2.12-2.57,3.76,0,2.48,2.48,3.98,6.68,3.98Zm3.58-22.7c0-2.48-1.68-4.34-4.56-4.34s-4.56,1.86-4.56,4.34,1.68,4.42,4.56,4.42,4.56-1.9,4.56-4.42Z"/>
                <path class="cyber_baseline" d="m481.52,382.64h4.56v2.17c1.68-1.77,3.89-3.05,7.08-3.05,4.91,0,8.67,3.32,8.67,9.78v13.41h-4.6v-13.23c0-3.54-1.95-5.66-5.13-5.66s-4.87,1.9-6.02,3.85v15.04h-4.56v-22.3Z"/>
                <path class="cyber_baseline" d="m520.99,405.83c-7.7,0-12.26-5.53-12.26-12.04s4.25-12.04,11.33-12.04c6.15,0,10.13,4.16,10.13,9.82,0,1.06-.13,2.08-.31,2.74h-16.46c.18,4.42,3.19,7.39,7.65,7.39,2.65,0,4.87-1.2,6.24-3.05l3.32,2.65c-2.08,2.79-5.49,4.51-9.65,4.51Zm-7.21-15.04h11.81c-.13-2.79-2.12-5.13-5.49-5.13s-5.53,1.68-6.33,5.13Z"/>
            </g>
            <g>
                <g>
                    <g>
                        <path class="cyber_secondary" d="m255.65,122.97l-14.75,8.59-10.64-15.39,26.42-15.77h20.65v89.77h-21.67v-67.2Z"/>
                        <path class="cyber_secondary" d="m294.13,190.3l43.22-70.28h-43.22v-19.49h66.3v19.49l-41.3,70.28h-25.01Z"/>
                    </g>
                    <g>
                        <g>
                            <path class="cyber_primary" d="m153.16,0C69.04,0,.85,68.18.85,152.3c0,35.98,12.51,68.83,33.38,94.89h18.6v19.64c8.08,7.08,16.91,13.13,26.36,18.39h11.68v6.04c19.02,8.54,40.09,13.33,62.29,13.33,12.07,0,23.79-1.44,35.05-4.09l.25-22.1-36.32-46.47c-8.09-.1-15.89-1.42-23.22-3.76v.2h-19.02v-9.27c-4.4-2.85-8.5-6.31-12.24-9.95h-6.78v19.02h-19.02v-19.02h19.02v-7.24c-10.87-13.61-17.39-30.84-17.39-49.62,0-44.02,35.68-79.69,79.68-79.69,26.14,0,49.25,12.63,63.79,32.06l51.65-51.65C240.68,20.57,199.32,0,153.16,0Zm-43.27,247.4h19.01v19.02h-19.01v-19.02Z"/>
                            <g>
                                <polygon class="cyber_secondary" points="109.89 228.18 109.89 209.16 90.87 209.16 90.87 228.18 71.84 228.18 52.83 228.18 52.83 247.2 71.84 247.2 71.84 266.21 52.83 266.21 52.83 285.23 33.81 285.23 33.81 304.25 52.83 304.25 71.84 304.25 71.84 285.23 90.87 285.23 90.87 266.21 109.89 266.21 109.89 247.2 128.91 247.2 128.91 228.18 109.89 228.18"/>
                                <rect class="cyber_secondary" x="14.81" y="247.2" width="19.01" height="19.02"/>
                                <rect class="cyber_secondary" x="90.87" y="285.23" width="19.02" height="19.02"/>
                            </g>
                        </g>
                        <rect class="cyber_secondary" x="128.9" y="190.15" width="19.01" height="19.02"/>
                        <rect class="cyber_secondary" x="90.87" y="171.13" width="19.01" height="19.02"/>
                    </g>
                </g>
                <g>
                    <path class="cyber_primary" d="m243.86,267.88v36.42h-22.83v-36.42l-37.45-53.35h27.83l21.16,31.04,21.16-31.04h27.7l-37.58,53.35Z"/>
                    <path class="cyber_primary" d="m292.08,214.53h28.34c19.88,0,31.93,9.24,31.93,25.14,0,6.8-3.21,12.83-8.85,17.06,8.85,4.49,13.98,11.8,13.98,20.65,0,16.93-13.46,26.93-35.27,26.93h-30.14v-89.78Zm22.83,19.37v14.23h6.16c5,0,7.82-2.56,7.82-7.18,0-4.36-2.82-7.05-7.82-7.05h-6.16Zm0,33.6v17.44h8.72c6.41,0,10.39-3.46,10.39-8.85s-3.97-8.59-10.39-8.59h-8.72Z"/>
                    <path class="cyber_primary" d="m375.96,214.53h55.4v19.37h-32.58v15h27.45v19.36h-27.45v16.67h32.58v19.36h-55.4v-89.78Z"/>
                    <path class="cyber_primary" d="m452.65,214.53h30.14c21.03,0,33.98,10.39,33.98,27.96,0,10.9-5,18.98-13.85,23.6l27.57,38.22h-27.32l-22.32-33.99h-5.39v33.99h-22.83v-89.78Zm22.83,19.37v17.06h8.72c5.77,0,9.11-3.21,9.11-8.72,0-5.13-3.34-8.34-9.11-8.34h-8.72Z"/>
                </g>
            </g>
        </g>
    </g>
</svg>
