<svg width="272" height="287" viewBox="0 0 272 287" fill="none" xmlns="http://www.w3.org/2000/svg">
<path d="M38.1525 38.4521L36.0488 72.1113L228.888 76.3187V46.8669L38.1525 38.4521Z" fill="#153E60"/>
<path d="M36.0195 75.1829C36.6226 62.5186 37.2257 49.8684 37.8287 37.2041C48.8661 37.2322 59.8895 37.2742 70.9269 37.3023" stroke="#153E60" stroke-width="8" stroke-miterlimit="10"/>
<path d="M194.385 45.8857C206.698 46.012 219.012 46.1382 231.312 46.2784C230.919 55.8713 230.512 65.4642 230.12 75.057" stroke="#153E60" stroke-width="8" stroke-miterlimit="10"/>
<mask id="path-4-outside-1_472_7476" maskUnits="userSpaceOnUse" x="64.1055" y="0" width="135" height="76" fill="black">
<rect fill="white" x="64.1055" width="135" height="76"/>
<path d="M72.1055 66.3608C72.428 48.6617 72.7646 30.9486 73.0872 13.2495C103.296 11.833 133.505 10.4165 163.714 9C168.595 21.0332 178.595 30.8925 190.698 35.5907C189.927 48.6757 189.141 61.7607 188.37 74.8457"/>
</mask>
<path d="M72.1055 66.3608C72.428 48.6617 72.7646 30.9486 73.0872 13.2495C103.296 11.833 133.505 10.4165 163.714 9C168.595 21.0332 178.595 30.8925 190.698 35.5907C189.927 48.6757 189.141 61.7607 188.37 74.8457" fill="#153E60"/>
<path d="M73.0872 13.2495L72.7125 5.25825L65.2251 5.60933L65.0885 13.1037L73.0872 13.2495ZM163.714 9L171.128 5.99316L168.999 0.743438L163.34 1.00878L163.714 9ZM190.698 35.5907L198.684 36.0615L199.027 30.2424L193.593 28.1329L190.698 35.5907ZM80.1041 66.5066C80.2654 57.6589 80.4302 48.8074 80.5949 39.954C80.7597 31.1012 80.9245 22.2466 81.0859 13.3952L65.0885 13.1037C64.9273 21.9514 64.7625 30.8029 64.5977 39.6563C64.4329 48.5091 64.2681 57.3637 64.1068 66.2151L80.1041 66.5066ZM73.4619 21.2407C88.5664 20.5324 103.671 19.8242 118.776 19.116C133.88 18.4077 148.985 17.6995 164.089 16.9912L163.34 1.00878C148.235 1.71703 133.131 2.42527 118.026 3.13351C102.922 3.84176 87.817 4.55 72.7125 5.25825L73.4619 21.2407ZM156.301 12.0068C162.009 26.08 173.642 37.5514 187.803 43.0486L193.593 28.1329C183.548 24.2335 175.181 15.9863 171.128 5.99316L156.301 12.0068ZM182.712 35.12C182.326 41.66 181.937 48.2003 181.548 54.7432C181.159 61.2853 180.77 67.83 180.384 74.3749L196.356 75.3165C196.742 68.7765 197.131 62.2361 197.52 55.6933C197.909 49.1511 198.298 42.6065 198.684 36.0615L182.712 35.12Z" fill="white" mask="url(#path-4-outside-1_472_7476)"/>
<path d="M257.922 157.092L258.087 157.187C269.85 139.844 271.247 116.117 261.61 97.5219C251.973 78.9261 231.775 66.3876 210.828 65.9955L210.828 65.9955L199.856 65.7916C155.213 64.962 110.57 64.1324 65.9391 63.3028C44.945 62.9117 24.1958 74.2667 13.2159 92.1497L257.922 157.092ZM257.922 157.092L257.922 157.114C176.017 161.217 93.8728 160.528 12.052 155.062L9.46168 154.889L8.56489 152.453C1.58421 133.489 2.21506 110.059 13.2154 92.1505L257.922 157.092ZM257.774 157.036L257.774 157.008L257.803 157.024C257.793 157.028 257.784 157.032 257.774 157.036ZM257.918 156.971L257.9 156.43L258.362 156.649C258.261 156.754 258.11 156.873 257.918 156.971Z" fill="#153E60" stroke="white" stroke-width="8" stroke-miterlimit="10"/>
<path d="M210.766 97.2568C218.382 96.0787 225.674 104.648 223.29 111.983C220.906 119.318 209.967 121.94 204.497 116.499C199.042 111.057 201.314 98.7294 210.766 97.2568Z" fill="white" stroke="white" stroke-width="8" stroke-miterlimit="10"/>
<path d="M69.9746 127.537C109.819 127.719 149.649 127.902 189.493 128.098" stroke="white" stroke-width="8" stroke-miterlimit="10"/>
<path d="M67.7323 154.18L65.6276 157.009L68.1697 159.452C77.5883 168.504 87.1545 177.168 96.6863 185.789L99.897 188.692L102.538 185.263C109.372 176.389 116.206 167.512 123.039 158.636L123.05 158.622L123.062 158.607C129.895 149.731 136.728 140.855 143.561 131.983L145.86 128.997L143.016 126.523C138.026 122.185 133.039 117.843 128.05 113.499L128.047 113.497L128.043 113.493C123.055 109.15 118.066 104.806 113.073 100.466L109.816 97.634L107.24 101.097C100.655 109.946 94.0711 118.792 87.4865 127.638C80.9019 136.484 74.3171 145.33 67.7323 154.18Z" fill="#153E60" stroke="white" stroke-width="8" stroke-miterlimit="10"/>
<path d="M162.052 149.222L157.985 149.446L158.282 153.508C158.962 162.805 159.639 172.099 160.316 181.394L160.316 181.397C160.992 190.691 161.669 199.985 162.349 209.284L162.651 213.403L166.758 212.97C179.034 211.676 189.357 211.674 200.783 211.674H205.462L204.735 207.052C203.307 197.977 202.657 188.876 201.996 179.579L201.991 179.499C201.335 170.281 200.666 160.869 199.181 151.43L198.619 147.862L195.013 148.058C188.601 148.405 182.513 148.579 176.947 148.725C176.389 148.739 175.834 148.753 175.285 148.768C170.393 148.894 165.9 149.01 162.052 149.222Z" fill="#153E60" stroke="white" stroke-width="8" stroke-miterlimit="10"/>
<path d="M95.9609 226.691C108.247 223.901 120.518 221.096 132.804 218.305C135.328 239.875 137.867 261.445 140.391 283C128.751 282.986 117.096 282.972 105.456 282.958C102.02 264.712 98.5695 246.48 95.9609 226.691Z" fill="#153E60" stroke="#153E60" stroke-width="8" stroke-miterlimit="10"/>
</svg>
