<svg width="85" height="34" viewBox="0 0 85 34" fill="none" xmlns="http://www.w3.org/2000/svg">
<g clip-path="url(#clip0_452_1113)">
<path d="M77.4133 10.4069C76.9251 9.02376 76.1115 7.78303 74.9928 6.64401C74.0979 5.78973 73.0199 5.13886 71.7385 4.67105C70.4571 4.20323 69.0536 3.97949 67.5485 3.97949C63.7449 3.97949 60.6533 5.42362 58.2939 8.29153C56.4226 5.42362 53.636 3.97949 49.9139 3.97949L49.9342 3.99983C49.7715 3.99983 49.6088 3.97949 49.4257 3.97949C45.6222 3.97949 42.5305 5.42362 40.1711 8.29153C38.2998 5.42362 35.5133 3.97949 31.7911 3.97949L31.8114 3.99983C31.6691 3.99983 31.5267 3.97949 31.3843 3.97949H31.3233C27.5401 3.97949 24.4688 5.40328 22.1094 8.23051C21.7432 7.68133 21.3161 7.1525 20.8076 6.66435C20.5839 6.46095 20.3601 6.25755 20.1161 6.07449C18.4279 4.69139 16.2922 3.97949 13.6887 3.97949H13.6683C13.6277 3.97949 13.5666 3.97949 13.526 3.97949C13.4649 3.97949 13.4039 3.97949 13.3632 3.97949C10.414 3.97949 7.89184 4.8541 5.81718 6.58299V4.32527H0V23.5871H0.0406796H5.93922H5.9799V15.5732C5.9799 14.5155 6.14262 13.6002 6.46805 12.807C6.79349 12.0137 7.24097 11.3628 7.79014 10.834C8.48169 10.2238 9.27495 9.79667 10.1292 9.5526C10.1902 9.53226 10.2513 9.51192 10.2919 9.51192C10.3123 9.51192 10.3326 9.51192 10.3733 9.49158C10.9225 9.36954 11.4716 9.28818 12.0615 9.28818C13.7294 9.28818 15.1125 9.81701 16.2718 10.8543C17.4109 11.912 17.9804 13.5595 17.9804 15.8579V23.5871H18.0007H18.0211H23.9196H23.9399H23.9603V15.2884C23.9806 14.3528 24.1433 13.5189 24.4484 12.7866C24.7739 11.9934 25.2213 11.3222 25.7909 10.8137C26.3604 10.2848 27.0112 9.89837 27.7435 9.65429C28.4757 9.41022 29.2486 9.28818 30.0622 9.26784C31.7301 9.26784 33.1335 9.79667 34.2726 10.834C35.4116 11.8917 35.9811 13.5595 35.9811 15.8376V23.5667H36.0014H36.0625H41.9H41.9203H41.9813V15.5732C41.9813 14.5155 42.1441 13.6002 42.4695 12.807C42.7949 12.0137 43.2424 11.3425 43.8119 10.834C44.3814 10.3052 45.0323 9.91871 45.7645 9.67463C46.4968 9.43056 47.2697 9.28818 48.0833 9.28818C49.7511 9.28818 51.1546 9.81701 52.314 10.8543C53.453 11.912 54.0225 13.5799 54.0225 15.8579V23.5871H54.1852H60.0024H60.1448V15.5732C60.1448 14.5155 60.3075 13.6002 60.6329 12.807C60.9584 12.0137 61.4058 11.3425 61.9754 10.834C62.5449 10.3052 63.1957 9.91871 63.928 9.67463C64.6602 9.43056 65.4331 9.28818 66.267 9.28818C67.9349 9.28818 69.3384 9.81701 70.4977 10.8543C71.6571 11.8917 72.2063 13.5799 72.2063 15.8579V23.5871H78.1455V14.9833C78.1455 13.3155 77.9014 11.79 77.4133 10.4069Z" fill="black"/>
<path d="M85.0004 4.04047C85.0004 5.89139 83.4952 7.41687 81.624 7.41687C79.773 7.41687 78.2476 5.91173 78.2476 4.04047C78.2476 2.16921 79.7527 0.664062 81.624 0.664062C83.4952 0.664062 85.0004 2.16921 85.0004 4.04047Z" fill="black"/>
<path d="M40.3744 31.4592C40.3744 31.7236 40.3338 31.9677 40.2524 32.1711C40.171 32.3745 40.049 32.5372 39.8863 32.6795C39.7236 32.8219 39.5405 32.9236 39.3371 32.9846C39.1337 33.0457 38.8896 33.0863 38.6252 33.0863H36.3472V27.1064H38.5439C38.7879 27.1064 39.0117 27.1471 39.2354 27.2081C39.4592 27.2895 39.6219 27.3912 39.7846 27.5132C39.9473 27.6556 40.0693 27.8183 40.1507 28.0014C40.2321 28.1845 40.2727 28.4082 40.2727 28.6523C40.2727 28.9777 40.1914 29.2421 40.0287 29.4862C39.866 29.7303 39.6422 29.893 39.3371 29.9947C39.6626 30.1167 39.9066 30.2795 40.0897 30.5439C40.2931 30.8083 40.3744 31.1134 40.3744 31.4592ZM39.8253 28.6726C39.8253 28.4692 39.7846 28.2862 39.7236 28.1438C39.6626 28.0014 39.5609 27.8794 39.4388 27.7777C39.3168 27.6963 39.1744 27.6149 39.0117 27.5743C38.849 27.5336 38.6862 27.5132 38.5032 27.5132H36.7946V29.832H38.5032C38.6862 29.832 38.849 29.8116 39.0117 29.771C39.1744 29.7303 39.3168 29.6489 39.4388 29.5676C39.5609 29.4659 39.6626 29.3642 39.7236 29.2014C39.7846 29.0591 39.8253 28.876 39.8253 28.6726ZM39.927 31.4592C39.927 31.0727 39.8049 30.7676 39.5609 30.5642C39.3168 30.3405 38.9913 30.2388 38.5845 30.2388H36.815V32.6999H38.5845C38.9913 32.6999 39.3168 32.5982 39.5609 32.3745C39.8049 32.1507 39.927 31.8456 39.927 31.4592Z" fill="black"/>
<path d="M46.6999 30.0959C46.6999 30.4213 46.6999 30.7264 46.6999 30.9705C46.6999 31.2146 46.6796 31.418 46.6389 31.6214C46.5983 31.8248 46.5576 31.9672 46.4762 32.1095C46.3949 32.2519 46.2932 32.3943 46.1508 32.5367C45.9474 32.7401 45.7236 32.8824 45.4592 32.9841C45.1948 33.0858 44.9304 33.1469 44.6456 33.1469C44.3609 33.1469 44.0761 33.0858 43.832 32.9841C43.5676 32.8824 43.3439 32.7197 43.1405 32.5367C42.9981 32.3943 42.8964 32.2519 42.815 32.1095C42.7337 31.9672 42.693 31.8044 42.6523 31.6214C42.6116 31.4383 42.5913 31.2146 42.5913 30.9705C42.5913 30.7264 42.5913 30.4417 42.5913 30.0959C42.5913 29.7501 42.5913 29.4654 42.5913 29.2213C42.5913 28.9772 42.6116 28.7738 42.6523 28.5704C42.693 28.367 42.754 28.2246 42.815 28.0823C42.8964 27.9399 42.9981 27.7975 43.1405 27.6551C43.3439 27.4517 43.5676 27.3093 43.832 27.2076C44.0965 27.1059 44.3609 27.0449 44.6456 27.0449C44.9304 27.0449 45.1948 27.1059 45.4592 27.2076C45.7236 27.3093 45.9474 27.4721 46.1508 27.6551C46.2932 27.7975 46.3949 27.9399 46.4762 28.0823C46.5576 28.2246 46.5983 28.3873 46.6389 28.5704C46.6796 28.7535 46.6999 28.9772 46.6999 29.2213C46.6999 29.4654 46.6999 29.7705 46.6999 30.0959ZM46.2525 30.0959C46.2525 29.7705 46.2525 29.506 46.2321 29.2823C46.2321 29.0586 46.2118 28.8552 46.1711 28.6924C46.1508 28.5297 46.0898 28.3873 46.0287 28.2653C45.9677 28.1433 45.8864 28.0416 45.7847 27.9195C45.6423 27.7772 45.4592 27.6551 45.2558 27.5738C45.0524 27.4924 44.849 27.4517 44.6456 27.4517C44.4219 27.4517 44.2185 27.4924 44.0354 27.5738C43.832 27.6551 43.6693 27.7568 43.5066 27.9195C43.4049 28.0212 43.3235 28.1433 43.2625 28.2653C43.2015 28.3873 43.1608 28.5297 43.1201 28.6924C43.0795 28.8552 43.0795 29.0586 43.0591 29.2823C43.0388 29.506 43.0388 29.7908 43.0388 30.0959C43.0388 30.4213 43.0388 30.6857 43.0591 30.9095C43.0591 31.1332 43.0795 31.3366 43.1201 31.4993C43.1405 31.6621 43.2015 31.8044 43.2625 31.9265C43.3235 32.0485 43.4049 32.1502 43.5066 32.2722C43.649 32.4146 43.832 32.5367 44.0354 32.618C44.2388 32.6994 44.4422 32.7401 44.6456 32.7401C44.849 32.7401 45.0728 32.6994 45.2558 32.618C45.4592 32.5367 45.6219 32.435 45.7847 32.2722C45.8864 32.1705 45.9677 32.0485 46.0287 31.9265C46.0898 31.8044 46.1304 31.6621 46.1711 31.4993C46.1915 31.3366 46.2118 31.1332 46.2321 30.9095C46.2525 30.6857 46.2525 30.4213 46.2525 30.0959Z" fill="black"/>
<path d="M51.2561 30.3405H49.6086V33.1067H49.1611V27.1064H51.4392C51.6833 27.1064 51.907 27.1471 52.1104 27.2081C52.3138 27.2895 52.4969 27.3912 52.6596 27.5132C52.8223 27.6556 52.9443 27.8183 53.0257 28.0217C53.1071 28.2251 53.1477 28.4489 53.1477 28.7133C53.1477 29.1608 53.0257 29.5269 52.7816 29.8116C52.5375 30.0964 52.1918 30.2591 51.785 30.3405L53.2291 33.1067H52.6799L51.2561 30.3405ZM52.7003 28.7133C52.7003 28.3065 52.5782 28.0014 52.3341 27.798C52.0901 27.5946 51.7646 27.5132 51.3782 27.5132H49.6086V29.9337H51.3782C51.7646 29.9337 52.0901 29.832 52.3341 29.6489C52.5782 29.4455 52.7003 29.1404 52.7003 28.7133Z" fill="black"/>
<path d="M59.6161 30.015C59.6161 30.2184 59.6161 30.4422 59.6161 30.6659C59.6161 30.8896 59.5958 31.1337 59.5551 31.3575C59.5144 31.5812 59.4534 31.8049 59.3721 32.0083C59.2907 32.2117 59.1687 32.3948 59.0263 32.5372C58.6602 32.9033 58.172 33.0863 57.5211 33.0863H55.5278V27.1064H57.5415C58.172 27.1064 58.6805 27.2895 59.0466 27.6556C59.189 27.798 59.311 27.9811 59.3924 28.1641C59.4738 28.3472 59.5348 28.5506 59.5755 28.754C59.6161 28.9574 59.6365 29.1608 59.6365 29.3845C59.6161 29.6082 59.6161 29.8116 59.6161 30.015ZM59.1687 30.015C59.1687 29.8523 59.1687 29.6693 59.1687 29.4862C59.1687 29.3031 59.1483 29.1201 59.128 28.937C59.1076 28.754 59.067 28.5709 59.0059 28.4082C58.9449 28.2455 58.8636 28.1031 58.7415 27.9811C58.5585 27.798 58.3754 27.676 58.1517 27.6149C57.9279 27.5539 57.7042 27.5132 57.4601 27.5132H56.016V32.6999H57.4601C57.7042 32.6999 57.9279 32.6592 58.1517 32.5982C58.3754 32.5372 58.5788 32.4151 58.7415 32.2321C58.8636 32.11 58.9449 31.9473 59.0059 31.7643C59.067 31.5812 59.1076 31.3778 59.128 31.1744C59.1483 30.971 59.1687 30.7676 59.1687 30.5642C59.1483 30.3812 59.1687 30.1778 59.1687 30.015Z" fill="black"/>
<path d="M62.0767 27.1064H65.6971V27.5132H62.5241V29.8727H65.2293V30.2795H62.5241V32.6999H65.6971V33.0863H62.0767V27.1064Z" fill="black"/>
<path d="M70.9456 31.6424H68.1591L67.6302 33.1069H67.1421L69.3388 27.127H69.7456L71.9423 33.1069H71.4541L70.9456 31.6424ZM68.3015 31.2356H70.8033L69.5422 27.7168L68.3015 31.2356Z" fill="black"/>
<path d="M77.8609 31.1541C77.8609 31.4388 77.8202 31.7236 77.6982 31.9473C77.5762 32.1711 77.4541 32.3948 77.2711 32.5778C77.088 32.7609 76.8643 32.9033 76.6202 32.9846C76.3761 33.0863 76.0914 33.127 75.7863 33.127C75.4812 33.127 75.1964 33.0863 74.9523 32.9846C74.7082 32.8829 74.4845 32.7406 74.3014 32.5778C74.1184 32.3948 73.976 32.1914 73.8743 31.9473C73.7726 31.7032 73.7319 31.4388 73.7319 31.1541V27.1064H74.1794V31.093C74.1794 31.3371 74.2201 31.5609 74.3014 31.7643C74.3828 31.9677 74.4845 32.1507 74.6269 32.2931C74.7693 32.4355 74.932 32.5372 75.1354 32.6185C75.3388 32.6999 75.5422 32.7406 75.7863 32.7406C76.0303 32.7406 76.2541 32.6999 76.4371 32.6185C76.6405 32.5372 76.8032 32.4355 76.9456 32.2931C77.088 32.1507 77.1897 31.9677 77.2711 31.7643C77.3524 31.5609 77.3728 31.3371 77.3728 31.093V27.1064H77.8202L77.8609 31.1541Z" fill="black"/>
<path d="M81.7661 30.4218L80.2202 33.0863H79.6914L81.5423 30.015L79.8134 27.1064H80.3423L81.7661 29.6286L83.2102 27.1064H83.739L82.0101 30.015L83.8814 33.0863H83.3322L81.7661 30.4218Z" fill="black"/>
</g>
<defs>
<clipPath id="clip0_452_1113">
<rect width="85" height="32.4216" fill="white" transform="translate(0 0.664062)"/>
</clipPath>
</defs>
</svg>
