<svg width="151" height="52" viewBox="0 0 151 52" fill="none" xmlns="http://www.w3.org/2000/svg">
<g clip-path="url(#clip0_453_10134)">
<mask id="mask0_453_10134" style="mask-type:luminance" maskUnits="userSpaceOnUse" x="-23" y="-44" width="196" height="138">
<path d="M172.241 -43.9424H-22.1826V93.5284H172.241V-43.9424Z" fill="white"/>
</mask>
<g mask="url(#mask0_453_10134)">
<path d="M73.7757 18.0001C73.2483 18.0001 72.7889 17.9119 72.3973 17.735C72.0056 17.5578 71.6816 17.3227 71.4257 17.0288C71.1696 16.7352 70.9796 16.3983 70.8551 16.0177C70.7308 15.6376 70.6689 15.2436 70.6689 14.8372V9.79883H71.7871V14.7693C71.7871 15.0404 71.8211 15.3097 71.8887 15.5769C71.9566 15.8441 72.0673 16.0833 72.2215 16.2941C72.376 16.505 72.5795 16.6745 72.8321 16.8024C73.0843 16.9308 73.3988 16.9946 73.7755 16.9946C74.1443 16.9946 74.4565 16.9308 74.7126 16.8024C74.969 16.6745 75.1741 16.505 75.3286 16.2941C75.483 16.0833 75.5941 15.8441 75.6618 15.5769C75.7297 15.3097 75.7634 15.0404 75.7634 14.7693V9.79883H76.8821V14.8369C76.8821 15.2436 76.8197 15.6376 76.6955 16.0175C76.571 16.3978 76.3807 16.7348 76.1244 17.0285C75.8689 17.3223 75.5445 17.5576 75.153 17.7347C74.7616 17.9119 74.3025 18.0001 73.7757 18.0001Z" fill="#1D1D1B"/>
</g>
<mask id="mask1_453_10134" style="mask-type:luminance" maskUnits="userSpaceOnUse" x="-23" y="-44" width="196" height="138">
<path d="M172.241 -43.9424H-22.1826V93.5284H172.241V-43.9424Z" fill="white"/>
</mask>
<g mask="url(#mask1_453_10134)">
<path d="M79.6724 12.4428C79.687 12.5786 79.698 12.731 79.7059 12.9005C79.7137 13.07 79.7179 13.2111 79.7179 13.324H79.7512C79.8191 13.1808 79.9114 13.0474 80.0285 12.9231C80.1451 12.7989 80.2779 12.6894 80.4294 12.5952C80.5798 12.5014 80.7453 12.4278 80.9264 12.3751C81.1068 12.3225 81.2947 12.2959 81.4906 12.2959C81.837 12.2959 82.1344 12.3546 82.3827 12.4712C82.6312 12.588 82.839 12.7444 83.0048 12.9398C83.1697 13.1358 83.2921 13.3656 83.3713 13.6289C83.4508 13.8926 83.49 14.1748 83.49 14.4762V17.7973H82.4284V14.8265C82.4284 14.608 82.4111 14.4009 82.3771 14.2053C82.3432 14.0094 82.2813 13.836 82.1903 13.6857C82.1002 13.5351 81.9762 13.4143 81.818 13.3243C81.6596 13.2335 81.4571 13.1887 81.2079 13.1887C80.7858 13.1887 80.4419 13.3487 80.1745 13.6686C79.9064 13.9891 79.7733 14.4159 79.7733 14.9507V17.7975H78.7108V13.5951C78.7108 13.4522 78.7073 13.2672 78.6995 13.0418C78.6921 12.8157 78.6812 12.6162 78.6655 12.4428H79.6724Z" fill="#1D1D1B"/>
</g>
<mask id="mask2_453_10134" style="mask-type:luminance" maskUnits="userSpaceOnUse" x="-23" y="-44" width="196" height="138">
<path d="M172.241 -43.9424H-22.1826V93.5284H172.241V-43.9424Z" fill="white"/>
</mask>
<g mask="url(#mask2_453_10134)">
<path d="M86.5288 10.5111C86.5288 10.7072 86.4593 10.8686 86.3216 10.9968C86.1833 11.1247 86.0168 11.1889 85.8237 11.1889C85.6279 11.1889 85.4639 11.1229 85.3291 10.9915C85.1951 10.8596 85.1274 10.6994 85.1274 10.5114C85.1274 10.3153 85.1951 10.1514 85.3291 10.0199C85.4639 9.88808 85.6279 9.82227 85.8237 9.82227C86.0168 9.82227 86.1838 9.88808 86.3216 10.0199C86.4595 10.1514 86.5288 10.3153 86.5288 10.5111ZM86.3588 17.7972H85.2974V12.4427H86.3588V17.7972Z" fill="#1D1D1B"/>
</g>
<mask id="mask3_453_10134" style="mask-type:luminance" maskUnits="userSpaceOnUse" x="-23" y="-44" width="196" height="138">
<path d="M172.241 -43.9424H-22.1826V93.5284H172.241V-43.9424Z" fill="white"/>
</mask>
<g mask="url(#mask3_453_10134)">
<path d="M90.7313 17.7969H89.5789L87.3984 12.4424H88.5725L90.144 16.6561H90.1662L91.7477 12.4424H92.877L90.7313 17.7969Z" fill="#1D1D1B"/>
</g>
<mask id="mask4_453_10134" style="mask-type:luminance" maskUnits="userSpaceOnUse" x="-23" y="-44" width="196" height="138">
<path d="M172.241 -43.9424H-22.1826V93.5284H172.241V-43.9424Z" fill="white"/>
</mask>
<g mask="url(#mask4_453_10134)">
<path d="M98.9103 15.0742V15.2551C98.9103 15.3156 98.9055 15.3756 98.8983 15.4357H94.6391C94.6465 15.6604 94.6976 15.8714 94.7918 16.0693C94.8862 16.2675 95.0116 16.4398 95.1703 16.5855C95.3285 16.7314 95.5114 16.8455 95.7183 16.9277C95.9255 17.0097 96.1455 17.0504 96.3788 17.0504C96.7397 17.0504 97.0534 16.9714 97.3162 16.8137C97.5806 16.6555 97.7873 16.4631 97.9378 16.2377L98.6833 16.8365C98.3976 17.216 98.06 17.4952 97.673 17.6746C97.2843 17.8538 96.8536 17.9434 96.3788 17.9434C95.9716 17.9434 95.5948 17.8755 95.2493 17.7402C94.9029 17.6044 94.6052 17.4143 94.3562 17.1695C94.1082 16.925 93.9124 16.6289 93.7697 16.2825C93.6258 15.9363 93.5542 15.5523 93.5542 15.1306C93.5542 14.7165 93.6237 14.3341 93.7637 13.984C93.9031 13.6334 94.0978 13.3344 94.3468 13.0856C94.5953 12.8369 94.8904 12.6432 95.2294 12.5039C95.5694 12.3644 95.9356 12.2949 96.3271 12.2949C96.7196 12.2949 97.0758 12.3589 97.3977 12.4871C97.7184 12.615 97.9896 12.7995 98.2129 13.0404C98.435 13.2815 98.6069 13.5732 98.7276 13.9161C98.8491 14.2593 98.9103 14.6449 98.9103 15.0742ZM97.8247 14.6449C97.8173 14.4341 97.7813 14.2364 97.7171 14.0521C97.6538 13.8674 97.5596 13.7078 97.4342 13.572C97.3104 13.4364 97.1566 13.3293 96.9718 13.2496C96.7871 13.1706 96.5709 13.1314 96.3222 13.1314C96.0959 13.1314 95.8834 13.1706 95.6834 13.2496C95.4837 13.3293 95.3114 13.4364 95.1638 13.572C95.0165 13.7078 94.8969 13.8674 94.8029 14.0521C94.7077 14.2366 94.6532 14.4341 94.6384 14.6449H97.8247Z" fill="#1D1D1B"/>
</g>
<mask id="mask5_453_10134" style="mask-type:luminance" maskUnits="userSpaceOnUse" x="-23" y="-44" width="196" height="138">
<path d="M172.241 -43.9424H-22.1826V93.5284H172.241V-43.9424Z" fill="white"/>
</mask>
<g mask="url(#mask5_453_10134)">
<path d="M100.367 13.0418C100.359 12.8157 100.348 12.6162 100.333 12.4428H101.339C101.353 12.5788 101.365 12.7349 101.372 12.9116C101.379 13.0889 101.384 13.2337 101.384 13.3464H101.417C101.568 13.0303 101.788 12.776 102.078 12.5841C102.369 12.392 102.694 12.2959 103.056 12.2959C103.22 12.2959 103.36 12.3111 103.473 12.3412L103.428 13.324C103.278 13.2866 103.115 13.2672 102.943 13.2672C102.686 13.2672 102.464 13.3146 102.276 13.4088C102.087 13.5032 101.931 13.6289 101.807 13.7873C101.683 13.9455 101.59 14.1279 101.531 14.3351C101.47 14.5424 101.44 14.7586 101.44 14.9847V17.7975H100.378V13.5954C100.378 13.4522 100.375 13.2674 100.367 13.0418Z" fill="#1D1D1B"/>
</g>
<mask id="mask6_453_10134" style="mask-type:luminance" maskUnits="userSpaceOnUse" x="-23" y="-44" width="196" height="138">
<path d="M172.241 -43.9424H-22.1826V93.5284H172.241V-43.9424Z" fill="white"/>
</mask>
<g mask="url(#mask6_453_10134)">
<path d="M107.359 13.7987C107.238 13.6031 107.069 13.4431 106.851 13.3186C106.632 13.1948 106.388 13.1325 106.116 13.1325C105.996 13.1325 105.875 13.1456 105.755 13.1717C105.635 13.1983 105.527 13.2398 105.433 13.2962C105.339 13.3525 105.264 13.4244 105.207 13.5107C105.15 13.5973 105.122 13.7049 105.122 13.8329C105.122 14.0587 105.224 14.2266 105.427 14.3356C105.631 14.4449 105.935 14.5446 106.343 14.6349C106.599 14.6952 106.835 14.767 107.054 14.8497C107.272 14.9326 107.463 15.0361 107.624 15.1603C107.787 15.285 107.912 15.4335 108.003 15.6067C108.094 15.7801 108.139 15.9834 108.139 16.2171C108.139 16.533 108.078 16.8004 107.959 17.0191C107.838 17.2374 107.677 17.4163 107.478 17.5558C107.278 17.6951 107.05 17.7948 106.795 17.8549C106.539 17.9152 106.275 17.9454 106.004 17.9454C105.596 17.9454 105.2 17.8662 104.813 17.7085C104.424 17.5498 104.103 17.3092 103.847 16.9852L104.603 16.3411C104.746 16.5522 104.944 16.7295 105.196 16.8725C105.448 17.0152 105.725 17.0868 106.026 17.0868C106.162 17.0868 106.292 17.0741 106.416 17.0475C106.541 17.0212 106.653 16.9778 106.755 16.9175C106.857 16.8575 106.938 16.7783 106.999 16.6806C107.058 16.5829 107.088 16.4584 107.088 16.3078C107.088 16.0591 106.97 15.8748 106.733 15.754C106.496 15.6337 106.147 15.5208 105.688 15.4155C105.508 15.3702 105.324 15.3155 105.141 15.2515C104.956 15.188 104.789 15.0989 104.638 14.9862C104.487 14.8733 104.364 14.7319 104.27 14.5626C104.176 14.3934 104.129 14.1839 104.129 13.9357C104.129 13.6498 104.188 13.4029 104.305 13.196C104.421 12.9888 104.573 12.8193 104.762 12.6877C104.951 12.5558 105.164 12.4579 105.406 12.3939C105.646 12.3302 105.895 12.2979 106.151 12.2979C106.535 12.2979 106.907 12.3731 107.263 12.5239C107.621 12.6743 107.898 12.8927 108.094 13.1789L107.359 13.7987Z" fill="#1D1D1B"/>
</g>
<mask id="mask7_453_10134" style="mask-type:luminance" maskUnits="userSpaceOnUse" x="-23" y="-44" width="196" height="138">
<path d="M172.241 -43.9424H-22.1826V93.5284H172.241V-43.9424Z" fill="white"/>
</mask>
<g mask="url(#mask7_453_10134)">
<path d="M110.725 10.5111C110.725 10.7072 110.656 10.8686 110.518 10.9968C110.38 11.1247 110.214 11.1889 110.019 11.1889C109.826 11.1889 109.661 11.1229 109.527 10.9915C109.392 10.8596 109.325 10.6994 109.325 10.5114C109.325 10.3153 109.392 10.1514 109.527 10.0199C109.661 9.88808 109.826 9.82227 110.019 9.82227C110.214 9.82227 110.38 9.88808 110.518 10.0199C110.656 10.1514 110.725 10.3153 110.725 10.5111ZM110.556 17.7972H109.493V12.4427H110.556V17.7972Z" fill="#1D1D1B"/>
</g>
<mask id="mask8_453_10134" style="mask-type:luminance" maskUnits="userSpaceOnUse" x="-23" y="-44" width="196" height="138">
<path d="M172.241 -43.9424H-22.1826V93.5284H172.241V-43.9424Z" fill="white"/>
</mask>
<g mask="url(#mask8_453_10134)">
<path d="M115.029 13.3124H113.605V16.094C113.605 16.4166 113.665 16.6476 113.787 16.7866C113.907 16.9256 114.099 16.9951 114.362 16.9951C114.46 16.9951 114.565 16.9847 114.678 16.9637C114.791 16.9432 114.894 16.912 114.983 16.8709L115.017 17.7408C114.889 17.7858 114.747 17.8214 114.593 17.848C114.439 17.8743 114.279 17.8875 114.113 17.8875C113.608 17.8875 113.223 17.7482 112.955 17.4695C112.688 17.191 112.554 16.7727 112.554 16.2157V13.3124H111.526V12.4422H112.554V10.9062H113.605V12.4422H115.029L115.029 13.3124Z" fill="#1D1D1B"/>
</g>
<mask id="mask9_453_10134" style="mask-type:luminance" maskUnits="userSpaceOnUse" x="-23" y="-44" width="196" height="138">
<path d="M172.241 -43.9424H-22.1826V93.5284H172.241V-43.9424Z" fill="white"/>
</mask>
<g mask="url(#mask9_453_10134)">
<path d="M121.129 15.0746V15.2552C121.129 15.3157 121.125 15.3757 121.118 15.436H116.859C116.866 15.6605 116.917 15.8715 117.012 16.0694C117.106 16.2676 117.231 16.4399 117.39 16.5856C117.548 16.7315 117.731 16.8456 117.938 16.9278C118.145 17.0098 118.366 17.0507 118.598 17.0507C118.959 17.0507 119.273 16.9717 119.536 16.814C119.8 16.6556 120.007 16.4634 120.158 16.2378L120.903 16.8369C120.617 17.2163 120.28 17.4955 119.892 17.6747C119.504 17.8539 119.073 17.9435 118.598 17.9435C118.192 17.9435 117.815 17.8758 117.469 17.7403C117.122 17.6045 116.825 17.4147 116.576 17.1696C116.328 16.9251 116.132 16.6292 115.99 16.2828C115.846 15.9367 115.774 15.5526 115.774 15.1307C115.774 14.7166 115.844 14.3344 115.983 13.9843C116.123 13.6335 116.317 13.3347 116.567 13.0857C116.815 12.8375 117.11 12.6433 117.449 12.504C117.789 12.3645 118.155 12.295 118.547 12.295C118.939 12.295 119.296 12.359 119.617 12.4872C119.938 12.6153 120.209 12.7998 120.432 13.0407C120.655 13.2818 120.826 13.5735 120.947 13.9162C121.069 14.2596 121.129 14.645 121.129 15.0746ZM120.044 14.645C120.037 14.4344 120.001 14.2365 119.937 14.0524C119.873 13.8677 119.779 13.7079 119.654 13.5721C119.53 13.4368 119.376 13.3296 119.191 13.2499C119.006 13.171 118.79 13.1317 118.542 13.1317C118.316 13.1317 118.103 13.171 117.903 13.2499C117.703 13.3296 117.531 13.4368 117.384 13.5721C117.236 13.7079 117.116 13.8677 117.023 14.0524C116.928 14.2367 116.873 14.4344 116.858 14.645H120.044ZM118.851 11.4258H117.981L119.111 9.79883H120.386L118.851 11.4258Z" fill="#1D1D1B"/>
</g>
<mask id="mask10_453_10134" style="mask-type:luminance" maskUnits="userSpaceOnUse" x="-23" y="-44" width="196" height="138">
<path d="M172.241 -43.9424H-22.1826V93.5284H172.241V-43.9424Z" fill="white"/>
</mask>
<g mask="url(#mask10_453_10134)">
<path d="M73.764 29.6043H70.4736V21.3975H73.7638C74.0765 21.3975 74.403 21.43 74.7326 21.4951C75.0665 21.5614 75.3739 21.6757 75.6468 21.8355C75.9233 21.9977 76.1521 22.2203 76.3263 22.4967C76.502 22.7766 76.5909 23.1334 76.5909 23.5581C76.5909 24.0251 76.4609 24.4188 76.205 24.7264C76.0129 24.9576 75.7725 25.1414 75.4887 25.2749C75.6182 25.3144 75.7427 25.3647 75.8611 25.4248C76.0718 25.5326 76.2565 25.6702 76.4096 25.8365C76.565 26.0035 76.6895 26.1996 76.78 26.4213C76.8715 26.6439 76.9184 26.8968 76.9184 27.1727C76.9184 27.6265 76.8265 28.0147 76.644 28.3269C76.4637 28.6369 76.2205 28.8904 75.9207 29.08C75.6249 29.2666 75.2847 29.4024 74.9095 29.4835C74.5386 29.5636 74.1531 29.6043 73.764 29.6043ZM72.5467 27.8362H73.5266C73.6716 27.8362 73.8236 27.8235 73.9788 27.7981C74.1289 27.7739 74.267 27.7293 74.388 27.6672C74.503 27.6076 74.5982 27.5228 74.6709 27.4141C74.7416 27.3078 74.7778 27.1663 74.7778 26.9917C74.7778 26.7002 74.6741 26.5058 74.4617 26.3961C74.2294 26.2758 73.9107 26.216 73.5155 26.216H72.5467V27.8362ZM72.5467 24.583H73.4816C73.8183 24.583 74.0804 24.5156 74.2615 24.383C74.434 24.2558 74.5178 24.071 74.5178 23.8179C74.5178 23.5837 74.4328 23.4191 74.2582 23.3142C74.0682 23.2004 73.7767 23.1431 73.3913 23.1431H72.5467V24.583Z" fill="#1D1D1B"/>
</g>
<mask id="mask11_453_10134" style="mask-type:luminance" maskUnits="userSpaceOnUse" x="-23" y="-44" width="196" height="138">
<path d="M172.241 -43.9424H-22.1826V93.5284H172.241V-43.9424Z" fill="white"/>
</mask>
<g mask="url(#mask11_453_10134)">
<path d="M82.0662 29.8187C81.4316 29.8187 80.8365 29.7134 80.2951 29.5064C79.7527 29.2986 79.2774 29.0005 78.8825 28.6199C78.4853 28.2388 78.1715 27.7746 77.9491 27.24C77.726 26.7061 77.6133 26.1094 77.6133 25.466C77.6133 24.8152 77.7264 24.2182 77.9491 23.6915C78.1726 23.1638 78.4867 22.7091 78.8832 22.3393C79.2786 21.971 79.7538 21.6825 80.2961 21.4821C80.8365 21.2826 81.4316 21.1816 82.0662 21.1816C82.7013 21.1816 83.2987 21.2826 83.8419 21.4819C84.3869 21.6814 84.8649 21.9698 85.2612 22.3393C85.6577 22.7093 85.972 23.1638 86.1958 23.6912C86.4189 24.218 86.5316 24.815 86.5316 25.466C86.5316 26.1091 86.4191 26.7061 86.1958 27.24C85.9725 27.7742 85.6591 28.2384 85.2631 28.6199C84.8656 29.0009 84.3883 29.2991 83.843 29.5064C83.2992 29.7134 82.7013 29.8187 82.0662 29.8187ZM82.0662 23.131C81.7443 23.131 81.4475 23.1906 81.1831 23.3088C80.9184 23.4268 80.6866 23.5901 80.4938 23.7933C80.3016 23.9963 80.1513 24.2443 80.0469 24.5311C79.9425 24.8203 79.8899 25.1348 79.8899 25.4669C79.8899 25.8145 79.9446 26.1387 80.0517 26.4304C80.1605 26.7218 80.3115 26.974 80.5 27.1811C80.688 27.3881 80.918 27.5518 81.1826 27.67C81.7103 27.9056 82.4225 27.9054 82.9505 27.67C83.2151 27.5518 83.4463 27.3874 83.6396 27.1802C83.8319 26.9738 83.9844 26.7213 84.0917 26.4304C84.2001 26.1392 84.2546 25.8149 84.2546 25.4669C84.2546 25.1344 84.2001 24.8198 84.0917 24.5323C83.9844 24.2452 83.834 23.9963 83.6444 23.7926C83.4553 23.5892 83.2232 23.4263 82.9562 23.309C82.6883 23.1906 82.3891 23.131 82.0662 23.131Z" fill="#1D1D1B"/>
</g>
<mask id="mask12_453_10134" style="mask-type:luminance" maskUnits="userSpaceOnUse" x="-23" y="-44" width="196" height="138">
<path d="M172.241 -43.9424H-22.1826V93.5284H172.241V-43.9424Z" fill="white"/>
</mask>
<g mask="url(#mask12_453_10134)">
<path d="M94.4298 29.6045H91.9232L90.1863 26.4305H89.6949V29.6045H87.5991V21.3975H90.7535C91.1428 21.3975 91.5285 21.4379 91.8994 21.5185C92.2756 21.5998 92.6181 21.7395 92.9174 21.9339C93.2203 22.1307 93.4651 22.3937 93.646 22.7163C93.8275 23.0397 93.9192 23.4445 93.9192 23.9198C93.9192 24.4832 93.7637 24.9652 93.4557 25.3516C93.1751 25.7049 92.7913 25.9679 92.3123 26.1358L94.4298 29.6045ZM89.6836 24.8204H90.4978C90.6509 24.8204 90.8103 24.807 90.9701 24.7821C91.126 24.7574 91.2678 24.7132 91.3932 24.6504C91.5135 24.5909 91.6121 24.504 91.6885 24.392C91.7629 24.2821 91.8008 24.135 91.8008 23.9537C91.8008 23.7879 91.7671 23.6535 91.6996 23.5546C91.6299 23.4521 91.5421 23.375 91.4322 23.3182C91.3184 23.2597 91.1874 23.2193 91.0447 23.1983C90.8946 23.1768 90.7486 23.1653 90.6112 23.1653H89.6831L89.6836 24.8204Z" fill="#1D1D1B"/>
</g>
<mask id="mask13_453_10134" style="mask-type:luminance" maskUnits="userSpaceOnUse" x="-23" y="-44" width="196" height="138">
<path d="M172.241 -43.9424H-22.1826V93.5284H172.241V-43.9424Z" fill="white"/>
</mask>
<g mask="url(#mask13_453_10134)">
<path d="M98.1751 29.6049H95.0889V21.3975H98.0862C98.6552 21.3975 99.2263 21.4649 99.7822 21.5981C100.344 21.733 100.85 21.9589 101.287 22.2697C101.728 22.5829 102.088 23.0078 102.359 23.5327C102.629 24.0585 102.767 24.7132 102.767 25.4786C102.767 26.1919 102.631 26.8182 102.365 27.3397C102.1 27.8586 101.744 28.2925 101.308 28.6283C100.874 28.9629 100.377 29.2117 99.8325 29.3687C99.2901 29.5255 98.7321 29.6049 98.1751 29.6049ZM97.1844 27.7237H97.9945C98.3305 27.7237 98.6591 27.6849 98.97 27.6085C99.2753 27.533 99.548 27.4078 99.7797 27.2362C100.011 27.0663 100.197 26.836 100.335 26.5515C100.475 26.2665 100.545 25.9056 100.545 25.4788C100.545 25.0451 100.475 24.6828 100.336 24.401C100.197 24.1207 100.011 23.8946 99.7803 23.7278C99.5485 23.5597 99.2799 23.4382 98.9825 23.3667C98.6783 23.2935 98.3617 23.2563 98.0412 23.2563H97.1849L97.1844 27.7237Z" fill="#1D1D1B"/>
</g>
<mask id="mask14_453_10134" style="mask-type:luminance" maskUnits="userSpaceOnUse" x="-23" y="-44" width="196" height="138">
<path d="M172.241 -43.9424H-22.1826V93.5284H172.241V-43.9424Z" fill="white"/>
</mask>
<g mask="url(#mask14_453_10134)">
<path d="M109.621 29.6045H103.832V21.3975H109.419V23.2334H105.905V24.538H109.226V26.2945H105.905V27.7459H109.621V29.6045Z" fill="#1D1D1B"/>
</g>
<mask id="mask15_453_10134" style="mask-type:luminance" maskUnits="userSpaceOnUse" x="-23" y="-44" width="196" height="138">
<path d="M172.241 -43.9424H-22.1826V93.5284H172.241V-43.9424Z" fill="white"/>
</mask>
<g mask="url(#mask15_453_10134)">
<path d="M118.518 29.6045H116.145L115.524 28.0343H112.572L111.985 29.6045H109.654L113.095 21.3975H115.111L115.137 21.4619L118.518 29.6045ZM113.203 26.2776H114.914L114.068 23.9412L113.203 26.2776Z" fill="#1D1D1B"/>
</g>
<mask id="mask16_453_10134" style="mask-type:luminance" maskUnits="userSpaceOnUse" x="-23" y="-44" width="196" height="138">
<path d="M172.241 -43.9424H-22.1826V93.5284H172.241V-43.9424Z" fill="white"/>
</mask>
<g mask="url(#mask16_453_10134)">
<path d="M122.157 29.8193C121.62 29.8193 121.129 29.7373 120.698 29.5754C120.266 29.414 119.893 29.1842 119.589 28.8923C119.285 28.5997 119.049 28.245 118.886 27.8383C118.724 27.4341 118.642 26.9787 118.642 26.4841V21.3975H120.772V26.3259C120.772 26.5344 120.798 26.7337 120.851 26.918C120.906 27.1023 120.987 27.2676 121.095 27.409C121.201 27.5492 121.343 27.6623 121.519 27.7448C121.697 27.8277 121.915 27.8706 122.169 27.8706C122.423 27.8706 122.642 27.8277 122.819 27.7448C122.996 27.6616 123.141 27.5478 123.25 27.4078C123.361 27.2639 123.443 27.1 123.491 26.9201C123.542 26.7319 123.567 26.5319 123.567 26.3259V21.3975H125.708V26.4836C125.708 26.9774 125.624 27.433 125.457 27.8387C125.289 28.2473 125.047 28.6025 124.736 28.8925C124.426 29.1837 124.048 29.413 123.611 29.5749C123.177 29.737 122.688 29.8193 122.157 29.8193Z" fill="#1D1D1B"/>
</g>
<mask id="mask17_453_10134" style="mask-type:luminance" maskUnits="userSpaceOnUse" x="-23" y="-44" width="196" height="138">
<path d="M172.241 -43.9424H-22.1826V93.5284H172.241V-43.9424Z" fill="white"/>
</mask>
<g mask="url(#mask17_453_10134)">
<path d="M134.567 29.6045H131.927L130.236 26.8774L128.611 29.6045H126.052L128.922 25.276L126.274 21.3975H128.859L130.29 23.7828L131.7 21.3975H134.204L131.603 25.2747L134.567 29.6045Z" fill="#1D1D1B"/>
</g>
<mask id="mask18_453_10134" style="mask-type:luminance" maskUnits="userSpaceOnUse" x="-23" y="-44" width="196" height="138">
<path d="M172.241 -43.9424H-22.1826V93.5284H172.241V-43.9424Z" fill="white"/>
</mask>
<g mask="url(#mask18_453_10134)">
<path d="M79.833 41.3064H77.7248L77.7678 36.0482L75.8364 41.3064H74.3342L72.4604 36.0625L72.5022 41.3064H70.4736V33.0996H73.4008L75.1686 38.0791L76.8597 33.0996H79.833V41.3064Z" fill="#1D1D1B"/>
</g>
<mask id="mask19_453_10134" style="mask-type:luminance" maskUnits="userSpaceOnUse" x="-23" y="-44" width="196" height="138">
<path d="M172.241 -43.9424H-22.1826V93.5284H172.241V-43.9424Z" fill="white"/>
</mask>
<g mask="url(#mask19_453_10134)">
<path d="M85.3425 41.5208C84.7082 41.5208 84.1123 41.416 83.5717 41.2093C83.0297 41.0021 82.5542 40.704 82.1575 40.3232C81.7602 39.9414 81.4473 39.477 81.2249 38.9433C81.0023 38.411 80.8892 37.8138 80.8892 37.1686C80.8892 36.5157 81.0023 35.9192 81.2249 35.3938C81.4483 34.8668 81.7614 34.4121 82.1584 34.0419C82.5558 33.672 83.0311 33.3838 83.5726 33.1842C84.113 32.9852 84.7086 32.8838 85.3425 32.8838C85.976 32.8838 86.5737 32.9849 87.118 33.1842C87.6639 33.384 88.1417 33.6724 88.5373 34.0419C88.9341 34.4117 89.2486 34.8659 89.4719 35.3938C89.6945 35.9208 89.8075 36.5178 89.8075 37.1686C89.8075 37.8115 89.695 38.4089 89.4719 38.9433C89.2495 39.4775 88.9357 39.9414 88.538 40.3232C88.1426 40.7031 87.6662 41.0012 87.1189 41.2093C86.5744 41.416 85.9772 41.5208 85.3425 41.5208ZM85.3425 34.8341C85.0202 34.8341 84.7225 34.8939 84.4583 35.0116C84.1936 35.1299 83.9618 35.2927 83.7694 35.4961C83.5766 35.7001 83.4262 35.9479 83.323 36.2335C83.2182 36.5203 83.165 36.8353 83.165 37.1695C83.165 37.5168 83.2198 37.8406 83.3281 38.133C83.4362 38.4251 83.5867 38.6775 83.7761 38.8835C83.9648 39.0909 84.1943 39.2553 84.4578 39.3726C84.9848 39.6082 85.6954 39.6087 86.2263 39.3726C86.4905 39.2551 86.7219 39.09 86.9145 38.8831C87.1074 38.6761 87.26 38.4235 87.3674 38.133C87.4752 37.8406 87.53 37.5168 87.53 37.1695C87.53 36.8374 87.4752 36.5229 87.3674 36.2349C87.2605 35.9483 87.1094 35.6998 86.9198 35.4952C86.7307 35.2922 86.4993 35.1299 86.2314 35.0116C85.9649 34.8936 85.6654 34.8341 85.3425 34.8341Z" fill="#1D1D1B"/>
</g>
<mask id="mask20_453_10134" style="mask-type:luminance" maskUnits="userSpaceOnUse" x="-23" y="-44" width="196" height="138">
<path d="M172.241 -43.9424H-22.1826V93.5284H172.241V-43.9424Z" fill="white"/>
</mask>
<g mask="url(#mask20_453_10134)">
<path d="M98.3592 41.3064H96.005L92.9176 36.2909L92.9604 41.3064H90.875V33.0996H93.2414L96.3177 38.1045L96.2738 33.0996H98.3592V41.3064Z" fill="#1D1D1B"/>
</g>
<mask id="mask21_453_10134" style="mask-type:luminance" maskUnits="userSpaceOnUse" x="-23" y="-44" width="196" height="138">
<path d="M172.241 -43.9424H-22.1826V93.5284H172.241V-43.9424Z" fill="white"/>
</mask>
<g mask="url(#mask21_453_10134)">
<path d="M103.431 41.3064H101.29V34.958H99.0308V33.0996H105.691V34.958H103.431V41.3064Z" fill="#1D1D1B"/>
</g>
<mask id="mask22_453_10134" style="mask-type:luminance" maskUnits="userSpaceOnUse" x="-23" y="-44" width="196" height="138">
<path d="M172.241 -43.9424H-22.1826V93.5284H172.241V-43.9424Z" fill="white"/>
</mask>
<g mask="url(#mask22_453_10134)">
<path d="M113.514 41.3064H111.141L110.52 39.7363H107.568L106.98 41.3064H104.649L108.092 33.0996H110.106L110.133 33.1633L113.514 41.3064ZM108.198 37.9795H109.909L109.063 35.6436L108.198 37.9795Z" fill="#1D1D1B"/>
</g>
<mask id="mask23_453_10134" style="mask-type:luminance" maskUnits="userSpaceOnUse" x="-23" y="-44" width="196" height="138">
<path d="M172.241 -43.9424H-22.1826V93.5284H172.241V-43.9424Z" fill="white"/>
</mask>
<g mask="url(#mask23_453_10134)">
<path d="M116.072 33.0996H113.92V41.3064H116.072V33.0996Z" fill="#1D1D1B"/>
</g>
<mask id="mask24_453_10134" style="mask-type:luminance" maskUnits="userSpaceOnUse" x="-23" y="-44" width="196" height="138">
<path d="M172.241 -43.9424H-22.1826V93.5284H172.241V-43.9424Z" fill="white"/>
</mask>
<g mask="url(#mask24_453_10134)">
<path d="M121.638 41.51C120.988 41.51 120.381 41.4054 119.833 41.1978C119.284 40.9909 118.805 40.6948 118.408 40.3172C118.011 39.9394 117.697 39.4812 117.475 38.9547C117.252 38.4302 117.139 37.8363 117.139 37.1915C117.139 36.5407 117.254 35.9408 117.481 35.4105C117.707 34.8812 118.024 34.4235 118.425 34.0485C118.825 33.6755 119.3 33.385 119.839 33.1852C120.376 32.9861 120.962 32.8848 121.581 32.8848C122.222 32.8848 122.827 32.9838 123.378 33.1785C123.931 33.3746 124.388 33.6427 124.737 33.9757L124.809 34.0448L123.444 35.5999L123.366 35.5089C123.189 35.3036 122.951 35.132 122.656 34.999C122.363 34.8664 122.024 34.7995 121.649 34.7995C121.326 34.7995 121.025 34.859 120.754 34.9771C120.481 35.0951 120.242 35.2616 120.041 35.4729C119.842 35.6837 119.684 35.9382 119.572 36.2287C119.461 36.5199 119.404 36.843 119.404 37.191C119.404 37.5474 119.455 37.8788 119.556 38.1739C119.657 38.4677 119.806 38.7233 120.003 38.9323C120.198 39.1425 120.444 39.3092 120.734 39.4274C121.025 39.5459 121.363 39.6055 121.74 39.6055C121.959 39.6055 122.17 39.5886 122.367 39.5558C122.536 39.5279 122.697 39.4835 122.844 39.4258V38.1425H121.319V36.3747H124.826V40.7782L124.77 40.808C124.373 41.0137 123.904 41.1837 123.374 41.3135C122.844 41.4444 122.259 41.51 121.638 41.51Z" fill="#1D1D1B"/>
</g>
<mask id="mask25_453_10134" style="mask-type:luminance" maskUnits="userSpaceOnUse" x="-23" y="-44" width="196" height="138">
<path d="M172.241 -43.9424H-22.1826V93.5284H172.241V-43.9424Z" fill="white"/>
</mask>
<g mask="url(#mask25_453_10134)">
<path d="M133.682 41.3064H131.328L128.241 36.2909L128.284 41.3064H126.198V33.0996H128.564L131.641 38.1045L131.597 33.0996H133.682V41.3064Z" fill="#1D1D1B"/>
</g>
<mask id="mask26_453_10134" style="mask-type:luminance" maskUnits="userSpaceOnUse" x="-23" y="-44" width="196" height="138">
<path d="M172.241 -43.9424H-22.1826V93.5284H172.241V-43.9424Z" fill="white"/>
</mask>
<g mask="url(#mask26_453_10134)">
<path d="M140.912 41.3064H135.122V33.0996H140.709V34.9358H137.196V36.2394H140.517V37.9966H137.196V39.4478H140.912V41.3064Z" fill="#1D1D1B"/>
</g>
<mask id="mask27_453_10134" style="mask-type:luminance" maskUnits="userSpaceOnUse" x="-23" y="-44" width="196" height="138">
<path d="M172.241 -43.9424H-22.1826V93.5284H172.241V-43.9424Z" fill="white"/>
</mask>
<g mask="url(#mask27_453_10134)">
<path d="M9.98828 44.1271C9.98828 44.1271 12.638 22.7904 31.2887 8.47461C31.2887 8.47461 30.0546 27.3982 37.6328 33.5102C33.0429 39.3621 29.8264 43.7305 29.8264 43.7305C29.8264 43.7305 24.4414 39.4903 22.1501 29.5215C18.8805 34.4439 9.98828 44.1271 9.98828 44.1271Z" fill="#1D1D1B"/>
</g>
<mask id="mask28_453_10134" style="mask-type:luminance" maskUnits="userSpaceOnUse" x="-23" y="-44" width="196" height="138">
<path d="M172.241 -43.9424H-22.1826V93.5284H172.241V-43.9424Z" fill="white"/>
</mask>
<g mask="url(#mask28_453_10134)">
<path d="M50.4564 9.02344C56.5037 9.02344 59.8347 15.4781 57.2018 22.8279C54.9945 28.9925 54.7913 34.6784 59.5054 36.9806C64.2232 39.2844 67.8124 34.6768 67.8124 34.6768C67.8124 34.6768 65.7298 42.297 57.1177 42.297C48.586 42.297 37.4687 32.882 40.8702 17.8794C42.511 11.4416 46.4598 9.02344 50.4564 9.02344Z" fill="#1D1D1B"/>
</g>
</g>
<defs>
<clipPath id="clip0_453_10134">
<rect width="150" height="51.9076" fill="white" transform="translate(0.5)"/>
</clipPath>
</defs>
</svg>
