<svg width="155" height="52" viewBox="0 0 155 52" fill="none" xmlns="http://www.w3.org/2000/svg">
<g clip-path="url(#clip0_454_37745)">
<path fill-rule="evenodd" clip-rule="evenodd" d="M4.83187 26.1322C7.00476 25.4154 10.5565 24.991 13.3009 25.5147L15.6943 26.1322C19.7428 22.3758 23.7164 18.8197 28.1216 15.3702L29.7786 13.4295C32.4117 11.362 34.926 9.08872 37.6032 7.16641C37.5629 5.54368 36.1726 5.25699 35.3019 4.43183C32.3695 1.64945 26.2345 0.337281 20.2049 0.462249L16.611 0.991527L11.548 2.66757C7.34801 4.60458 3.61214 7.63871 1.79023 11.8417C-0.420996 16.9562 1.04997 23.9158 4.83187 26.1322ZM39.6284 25.25C42.2194 20.4186 40.8846 16.2267 40.0887 10.8714H39.7205L34.7495 14.3172C30.8506 17.129 26.7753 20.6465 23.7069 24.2798C22.4046 25.8253 20.2126 27.1172 19.2959 28.955C19.014 29.4291 19.4877 30.8442 19.3879 31.5132L18.4674 33.9023C16.166 37.5392 7.3116 39.0481 4.199 34.9608C3.5853 34.1541 2.92557 33.112 2.63407 32.0498C2.12776 30.1992 2.52859 28.3283 1.34531 27.1981V27.0143C-0.537966 28.7363 1.20147 36.0194 1.98969 37.1588C5.32474 37.6826 6.90309 37.3812 7.69707 40.3345L8.34141 39.717H8.70964C9.07019 41.0935 8.65212 42.9092 8.43347 44.4805C9.03759 44.8995 9.77593 44.7047 10.0905 45.4508C10.5085 45.3277 10.7138 45.0943 11.1952 45.267C11.5173 45.5005 11.6919 45.9342 11.7474 46.4138H11.8395C12.1694 46.0867 12.2231 45.6787 12.668 45.4435H13.2203C13.6518 45.6897 13.8705 46.2962 13.9568 46.8549H14.0488C14.6663 46.0867 14.3116 45.2799 15.7979 45.267C16.3398 45.8994 16.6901 46.6622 16.8104 47.4724C17.2707 47.2427 17.6562 46.0021 17.823 45.5317C18.1606 45.3295 18.3849 45.2524 19.0197 45.267C19.4902 45.9104 19.8298 46.6331 20.0209 47.397H20.1129C20.7764 46.3274 20.4773 45.1917 22.1381 45.2799C22.5964 45.9691 23.2485 47.0239 23.1506 47.9263H23.2428L23.9792 45.6328C24.3627 45.3737 24.5258 45.2652 25.2679 45.2799C25.6036 45.7357 26.0888 46.4818 26.0044 47.0442C26.503 46.5737 26.363 45.8092 27.017 45.4564H27.5693C27.9528 45.6677 28.1581 46.0848 28.2137 46.6031H28.3096L28.7698 45.3681C29.5369 45.0226 30.632 44.8168 31.5315 44.6625L31.7232 44.3978C31.5315 43.1113 30.4517 43.0599 30.3424 41.6632L30.6186 41.4794C31.2937 41.6834 31.1613 42.187 31.8153 42.4498H31.9073C32.2717 41.7257 32.2698 40.838 32.7359 40.2444C34.3506 38.1935 38.0635 38.7944 40.2843 37.157C43.416 34.8451 40.9977 27.6465 39.6246 25.25H39.6284ZM23.4268 41.2166C20.857 41.733 21.9616 39.875 21.2176 38.5702C21.1066 38.4092 20.9456 38.2858 20.7573 38.2173C19.4148 38.4177 20.0745 41.0071 19.6526 42.0105L19.2844 42.1943C18.5038 42.1667 17.7732 41.8672 17.4433 41.4004C16.9389 40.6396 18.4943 37.8774 19.0082 37.2544C19.411 36.7692 20.109 36.6296 20.6652 36.2841C22.28 36.5873 24.1364 39.5369 23.4268 41.2166ZM37.7873 32.5791C36.1572 34.9682 32.1126 36.2841 28.1216 35.843L28.0295 36.0267C28.4726 36.3668 28.7564 36.4825 28.8581 37.1735L28.766 37.2617C26.2249 36.5376 22.2282 31.6437 22.9666 28.1758L23.3348 27.992L23.5266 28.0802C23.6883 28.7423 23.7528 29.4227 23.7184 30.1018C27.7016 31.5444 31.1651 29.2748 34.0284 28.0802L36.698 27.1981L37.3424 27.2863C38.7692 28.1004 38.6388 31.3239 37.7873 32.5718V32.5791ZM13.8532 34.4316L13.9452 32.138L16.1545 31.9542C16.6512 31.0942 16.4614 29.1039 16.4307 27.8082C14.5877 27.1908 11.2948 27.5197 8.97433 27.5436C7.88693 28.2438 8.08635 29.9327 8.1458 31.6896L8.23786 31.8734L10.9075 32.138L13.8532 34.4316ZM7.14091 28.786L5.39186 28.8741L4.93158 29.3152L4.7398 33.0202L4.83187 33.2039C5.57794 33.4158 6.35603 33.5053 7.13323 33.4686L7.22529 35.7621H7.31734C8.46801 35.1005 9.41351 33.5807 10.9075 33.373C10.4223 32.8217 8.92062 32.9099 8.05375 32.7555C6.86089 31.3533 7.81211 30.5538 7.13323 28.7786L7.14091 28.786ZM8.79789 48.4501L9.07407 48.8911H9.35018C9.41925 47.9906 9.97348 46.9137 9.54198 46.2447C9.14308 46.8457 9.0261 47.647 8.79021 48.4501H8.79789ZM30.7988 46.333C30.4364 47.3345 30.9043 47.7499 30.9906 48.8911L31.2668 48.8029C31.4586 47.9667 31.3109 47.2261 31.075 46.4138L30.7988 46.333ZM10.171 49.5086C10.4702 49.7034 10.5162 49.799 10.9995 49.8615H11.0915C11.4981 49.0786 11.4904 47.2629 10.9995 46.5976C10.4741 47.3327 10.1345 48.2148 10.171 49.5086ZM18.6401 46.6858C17.8173 47.4816 17.3359 49.1062 17.3512 50.6554C19.7984 53.3955 20.1302 48.3159 19.0082 46.9505C18.8472 46.7428 18.9124 46.7997 18.6401 46.6858ZM21.6778 46.6858C20.8877 47.7223 20.6077 49.0198 20.6652 50.9127C21.3825 51.3556 22.4085 51.3905 22.7748 50.5599C23.2754 49.4351 22.5101 47.2923 21.8543 46.6784L21.6778 46.6858ZM24.8997 46.6858C24.0348 47.5422 24.0559 48.9206 23.703 50.3025C24.1499 50.716 24.6255 50.9219 25.452 50.7436C26.0638 49.641 25.569 47.8767 25.2602 46.8622L24.8997 46.6858ZM29.3107 46.6858C29.0671 47.5294 29.2013 49.1062 28.8504 49.7732C30.7624 50.1794 30.3118 47.0571 29.3184 46.6858H29.3107ZM15.3107 46.774C14.8773 47.4319 14.0469 49.3267 14.5743 50.479L14.7661 50.7436C15.2268 50.8256 15.7016 50.7953 16.1469 50.6554C16.8527 49.5399 16.12 48.0531 15.8707 46.8622L15.3107 46.774ZM12.9173 46.8622C12.3957 47.7995 12.1387 49.0014 12.0888 50.2143L12.9173 50.5672C14.2329 49.9828 13.6422 48.1946 13.2855 47.0387L12.9173 46.8622ZM27.2778 46.8622C26.8942 47.5826 26.3189 48.8746 26.6334 49.9497C26.5471 50.354 26.852 50.4275 27.2778 50.5672L27.8301 50.3834C28.3537 49.6023 28.2636 47.2574 27.2931 46.8622H27.2778Z" fill="black"/>
<path d="M62.4784 34.6341C61.4944 34.6341 60.7324 34.4301 60.1924 34.0221C59.6644 33.6141 59.2984 33.0681 59.0944 32.3841C58.8904 31.6881 58.7884 30.9201 58.7884 30.0801V24.2841C58.7884 23.3841 58.8904 22.5921 59.0944 21.9081C59.3104 21.2241 59.6884 20.6901 60.2284 20.3061C60.7684 19.9221 61.5184 19.7301 62.4784 19.7301C63.3544 19.7301 64.0384 19.8981 64.5304 20.2341C65.0344 20.5701 65.3944 21.0501 65.6104 21.6741C65.8264 22.2861 65.9344 23.0181 65.9344 23.8701V24.7521H64.6384V23.9061C64.6384 23.2701 64.5844 22.7241 64.4764 22.2681C64.3804 21.8121 64.1764 21.4581 63.8644 21.2061C63.5524 20.9541 63.0964 20.8281 62.4964 20.8281C61.8364 20.8281 61.3384 20.9661 61.0024 21.2421C60.6784 21.5061 60.4564 21.8841 60.3364 22.3761C60.2284 22.8681 60.1744 23.4381 60.1744 24.0861V30.2961C60.1744 31.0161 60.2404 31.6161 60.3724 32.0961C60.5164 32.5761 60.7564 32.9361 61.0924 33.1761C61.4284 33.4161 61.8964 33.5361 62.4964 33.5361C63.1084 33.5361 63.5644 33.4041 63.8644 33.1401C64.1764 32.8761 64.3804 32.5101 64.4764 32.0421C64.5844 31.5621 64.6384 31.0041 64.6384 30.3681V29.4141H65.9344V30.2781C65.9344 31.1301 65.8324 31.8861 65.6284 32.5461C65.4364 33.1941 65.0884 33.7041 64.5844 34.0761C64.0924 34.4481 63.3904 34.6341 62.4784 34.6341ZM70.2188 37.0461V36.0201C70.8188 36.0201 71.2688 35.9721 71.5688 35.8761C71.8808 35.7921 72.0848 35.6661 72.1808 35.4981C72.2888 35.3421 72.3428 35.1561 72.3428 34.9401C72.3428 34.7481 72.3068 34.4961 72.2348 34.1841C72.1628 33.8721 72.0848 33.5481 72.0008 33.2121L69.8588 24.0501H71.1728L72.9728 32.9061L74.7188 24.0501H76.0508L73.5308 35.1921C73.4348 35.6361 73.2608 35.9901 73.0088 36.2541C72.7688 36.5301 72.4448 36.7281 72.0368 36.8481C71.6408 36.9801 71.1488 37.0461 70.5608 37.0461H70.2188ZM83.2483 34.6161C82.8283 34.6161 82.4623 34.5081 82.1503 34.2921C81.8503 34.0761 81.5983 33.8541 81.3943 33.6261V34.4541H80.0803V19.8741H81.3943V24.9141C81.5983 24.6501 81.8623 24.4161 82.1863 24.2121C82.5103 23.9961 82.9063 23.8881 83.3743 23.8881C83.8783 23.8881 84.2863 24.0081 84.5983 24.2481C84.9103 24.4761 85.1503 24.7881 85.3183 25.1841C85.4863 25.5801 85.6003 26.0241 85.6603 26.5161C85.7203 27.0081 85.7503 27.5121 85.7503 28.0281V30.2241C85.7503 31.1121 85.6723 31.8861 85.5163 32.5461C85.3723 33.1941 85.1203 33.7041 84.7603 34.0761C84.4003 34.4361 83.8963 34.6161 83.2483 34.6161ZM83.0143 33.5721C83.4223 33.5721 83.7223 33.4461 83.9143 33.1941C84.1183 32.9421 84.2503 32.5701 84.3103 32.0781C84.3823 31.5741 84.4183 30.9681 84.4183 30.2601V28.0281C84.4183 27.3561 84.3823 26.7921 84.3103 26.3361C84.2503 25.8681 84.1183 25.5141 83.9143 25.2741C83.7223 25.0341 83.4163 24.9141 82.9963 24.9141C82.6723 24.9141 82.3663 25.0041 82.0783 25.1841C81.8023 25.3641 81.5743 25.5441 81.3943 25.7241V32.8161C81.5863 33.0201 81.8203 33.2001 82.0963 33.3561C82.3723 33.5001 82.6783 33.5721 83.0143 33.5721ZM92.8606 34.6161C92.2126 34.6161 91.6786 34.4901 91.2586 34.2381C90.8506 33.9741 90.5446 33.5421 90.3406 32.9421C90.1486 32.3421 90.0526 31.5441 90.0526 30.5481V27.9201C90.0526 26.8881 90.1546 26.0841 90.3586 25.5081C90.5626 24.9201 90.8746 24.5061 91.2946 24.2661C91.7146 24.0141 92.2426 23.8881 92.8786 23.8881C93.6106 23.8881 94.1686 24.0441 94.5526 24.3561C94.9366 24.6681 95.2006 25.1421 95.3446 25.7781C95.5006 26.4021 95.5786 27.2061 95.5786 28.1901V29.1261H91.3666V30.9441C91.3666 31.6161 91.4146 32.1501 91.5106 32.5461C91.6186 32.9301 91.7806 33.2061 91.9966 33.3741C92.2246 33.5421 92.5126 33.6261 92.8606 33.6261C93.1246 33.6261 93.3646 33.5781 93.5806 33.4821C93.7966 33.3741 93.9646 33.1761 94.0846 32.8881C94.2166 32.5881 94.2826 32.1681 94.2826 31.6281V30.9081H95.5606V31.4841C95.5606 32.4321 95.3626 33.1941 94.9666 33.7701C94.5826 34.3341 93.8806 34.6161 92.8606 34.6161ZM91.3666 28.3701H94.2826V27.5061C94.2826 26.9541 94.2526 26.4861 94.1926 26.1021C94.1326 25.7061 94.0006 25.4061 93.7966 25.2021C93.6046 24.9861 93.2926 24.8781 92.8606 24.8781C92.5006 24.8781 92.2066 24.9561 91.9786 25.1121C91.7626 25.2681 91.6066 25.5501 91.5106 25.9581C91.4146 26.3541 91.3666 26.9241 91.3666 27.6681V28.3701ZM100.142 34.4541V24.0501H101.474V25.4721C101.81 24.9201 102.194 24.5301 102.626 24.3021C103.058 24.0621 103.472 23.9421 103.868 23.9421C103.904 23.9421 103.94 23.9421 103.976 23.9421C104.012 23.9421 104.054 23.9481 104.102 23.9601V25.3641C104.018 25.3281 103.916 25.3041 103.796 25.2921C103.676 25.2681 103.562 25.2561 103.454 25.2561C103.046 25.2561 102.674 25.3521 102.338 25.5441C102.014 25.7361 101.726 26.0421 101.474 26.4621V34.4541H100.142ZM108.383 34.4541V19.8741H109.373L114.017 31.1961V19.8741H115.205V34.4541H114.233L109.571 23.0061V34.4541H108.383ZM122.775 34.6161C122.127 34.6161 121.593 34.4901 121.173 34.2381C120.765 33.9741 120.459 33.5421 120.255 32.9421C120.063 32.3421 119.967 31.5441 119.967 30.5481V27.9201C119.967 26.8881 120.069 26.0841 120.273 25.5081C120.477 24.9201 120.789 24.5061 121.209 24.2661C121.629 24.0141 122.157 23.8881 122.793 23.8881C123.525 23.8881 124.083 24.0441 124.467 24.3561C124.851 24.6681 125.115 25.1421 125.259 25.7781C125.415 26.4021 125.493 27.2061 125.493 28.1901V29.1261H121.281V30.9441C121.281 31.6161 121.329 32.1501 121.425 32.5461C121.533 32.9301 121.695 33.2061 121.911 33.3741C122.139 33.5421 122.427 33.6261 122.775 33.6261C123.039 33.6261 123.279 33.5781 123.495 33.4821C123.711 33.3741 123.879 33.1761 123.999 32.8881C124.131 32.5881 124.197 32.1681 124.197 31.6281V30.9081H125.475V31.4841C125.475 32.4321 125.277 33.1941 124.881 33.7701C124.497 34.3341 123.795 34.6161 122.775 34.6161ZM121.281 28.3701H124.197V27.5061C124.197 26.9541 124.167 26.4861 124.107 26.1021C124.047 25.7061 123.915 25.4061 123.711 25.2021C123.519 24.9861 123.207 24.8781 122.775 24.8781C122.415 24.8781 122.121 24.9561 121.893 25.1121C121.677 25.2681 121.521 25.5501 121.425 25.9581C121.329 26.3541 121.281 26.9241 121.281 27.6681V28.3701ZM130.824 34.4541V20.9361H128.07V19.8741H134.874V20.9361H132.192V34.4541H130.824ZM139.051 34.4541V24.0501H140.365V34.4541H139.051ZM139.051 22.6101V20.8281H140.365V22.6101H139.051ZM147.873 34.6161C147.057 34.6161 146.451 34.4361 146.055 34.0761C145.659 33.7161 145.395 33.2301 145.263 32.6181C145.143 31.9941 145.083 31.2921 145.083 30.5121V28.0821C145.083 27.1221 145.161 26.3361 145.317 25.7241C145.473 25.1001 145.749 24.6381 146.145 24.3381C146.553 24.0381 147.129 23.8881 147.873 23.8881C148.605 23.8881 149.163 24.0261 149.547 24.3021C149.931 24.5781 150.189 24.9681 150.321 25.4721C150.453 25.9761 150.519 26.5581 150.519 27.2181V27.7221H149.295V27.2181C149.295 26.6061 149.247 26.1321 149.151 25.7961C149.067 25.4601 148.917 25.2261 148.701 25.0941C148.497 24.9501 148.221 24.8781 147.873 24.8781C147.465 24.8781 147.153 24.9741 146.937 25.1661C146.721 25.3581 146.577 25.6761 146.505 26.1201C146.433 26.5521 146.397 27.1341 146.397 27.8661V30.7821C146.397 31.8261 146.499 32.5641 146.703 32.9961C146.907 33.4161 147.303 33.6261 147.891 33.6261C148.299 33.6261 148.605 33.5361 148.809 33.3561C149.013 33.1641 149.145 32.8821 149.205 32.5101C149.265 32.1381 149.295 31.6761 149.295 31.1241V30.5481H150.519V31.0521C150.519 31.7481 150.453 32.3661 150.321 32.9061C150.201 33.4341 149.949 33.8541 149.565 34.1661C149.181 34.4661 148.617 34.6161 147.873 34.6161Z" fill="black"/>
</g>
<defs>
<clipPath id="clip0_454_37745">
<rect width="154.316" height="51" fill="white" transform="translate(0.5 0.454102)"/>
</clipPath>
</defs>
</svg>
