<svg width="333" height="465" viewBox="0 0 333 465" fill="none" xmlns="http://www.w3.org/2000/svg">
<rect width="332.64" height="464.904" fill="white"/>
<rect x="10.6904" y="10.6914" width="311.256" height="443.52" rx="15.84" stroke="#73B0FF" stroke-width="1.584" stroke-miterlimit="16" stroke-linejoin="round"/>
<path d="M92.6641 211.485C98.2598 206.468 102.308 203.71 107.903 198.693C107.97 207.354 108.042 216.02 108.108 224.681" stroke="#73B0FF" stroke-width="5.27842" stroke-miterlimit="10"/>
<path d="M167.545 133.995C167.611 125.564 173.755 117.535 181.877 115.263C189.999 112.99 199.414 116.662 203.846 123.836C208.279 131.011 208.897 139.478 203.23 145.732" fill="#FFBF00"/>
<path d="M167.545 133.995C167.611 125.564 173.755 117.535 181.877 115.263C189.999 112.99 199.414 116.662 203.846 123.836C208.279 131.011 208.897 139.478 203.23 145.732" stroke="#FFBF00" stroke-width="5.27842" stroke-miterlimit="10"/>
<path d="M125.91 230.243C132.953 245.637 149.118 256.417 166.037 257.002C182.956 257.587 199.826 247.94 207.906 233.065" stroke="#FFBF00" stroke-width="5.27842" stroke-miterlimit="10"/>
<path d="M134.856 193.131C142.998 192.599 151.022 198.948 152.37 206.998C153.718 215.047 148.212 223.665 140.339 225.82C132.466 227.975 123.335 223.362 120.401 215.742C117.468 208.129 120.125 194.098 134.856 193.131Z" stroke="#73B0FF" stroke-width="5.27842" stroke-miterlimit="10"/>
<path d="M180.011 193.385C187.918 192.345 196.145 198.021 197.987 205.782C199.829 213.542 195.024 222.308 187.493 224.936C179.962 227.564 170.751 223.679 167.37 216.455C163.99 209.231 165.601 195.273 180.011 193.385Z" stroke="#73B0FF" stroke-width="5.27842" stroke-miterlimit="10"/>
<path d="M152.499 211.537C153.543 208.814 156.318 206.849 159.236 206.767C162.153 206.685 164.78 208.524 165.973 211.184" stroke="#73B0FF" stroke-width="5.27842" stroke-miterlimit="10"/>
<path d="M222.472 193.332C230.379 192.292 238.606 197.967 240.448 205.728C242.29 213.489 237.485 222.255 229.954 224.883C222.423 227.511 213.212 223.626 209.831 216.402C206.451 209.177 208.062 195.219 222.472 193.332Z" stroke="#73B0FF" stroke-width="5.27842" stroke-miterlimit="10"/>
<path d="M217.85 187.299C198.34 188.082 168.322 185.4 157.634 163.871C145.586 184.362 124.592 187.853 118.962 187.299C116.594 167.948 128.068 148.072 144.727 140.213C161.393 132.355 182.507 132.017 197.06 142.561C211.378 154.621 217.609 169.234 217.85 187.299Z" fill="#FFBF00" stroke="white" stroke-width="5.27842" stroke-miterlimit="10"/>
<path d="M142.583 287.988H131.643C131.282 287.988 131.016 287.912 130.845 287.76C130.693 287.589 130.617 287.323 130.617 286.963V268.501C130.617 268.14 130.693 267.883 130.845 267.731C131.016 267.56 131.282 267.475 131.643 267.475H140.732C142.593 267.475 143.97 267.836 144.863 268.558C145.755 269.26 146.202 270.352 146.202 271.834V273.202C146.202 273.999 146.059 274.655 145.774 275.167C145.508 275.661 145.091 276.032 144.521 276.279C145.736 276.393 146.639 276.81 147.227 277.532C147.816 278.254 148.111 279.308 148.111 280.695V283.316C148.111 284.911 147.655 286.089 146.743 286.849C145.85 287.608 144.464 287.988 142.583 287.988ZM137.028 272.318V275.395H139.449C139.81 275.395 140.076 275.3 140.247 275.11C140.437 274.92 140.532 274.636 140.532 274.256V273.458C140.532 273.078 140.437 272.793 140.247 272.603C140.076 272.413 139.81 272.318 139.449 272.318H137.028ZM137.028 279.783V283.145H140.732C141.092 283.145 141.358 283.05 141.529 282.86C141.719 282.67 141.814 282.385 141.814 282.005V280.894C141.814 280.514 141.719 280.239 141.529 280.068C141.358 279.878 141.092 279.783 140.732 279.783H137.028ZM168.727 282.604C168.727 283.477 168.594 284.275 168.328 284.997C168.081 285.7 167.625 286.307 166.96 286.82C166.315 287.314 165.422 287.703 164.282 287.988C163.143 288.273 161.69 288.416 159.923 288.416C158.157 288.416 156.704 288.273 155.564 287.988C154.424 287.703 153.522 287.314 152.857 286.82C152.212 286.307 151.756 285.7 151.49 284.997C151.243 284.275 151.12 283.477 151.12 282.604V268.501C151.12 268.14 151.196 267.883 151.347 267.731C151.518 267.56 151.784 267.475 152.145 267.475H156.618C156.979 267.475 157.236 267.56 157.388 267.731C157.558 267.883 157.644 268.14 157.644 268.501V281.492C157.644 281.872 157.786 282.195 158.071 282.461C158.356 282.708 158.993 282.831 159.98 282.831C160.987 282.831 161.633 282.708 161.918 282.461C162.202 282.195 162.345 281.872 162.345 281.492V268.501C162.345 268.14 162.421 267.883 162.573 267.731C162.744 267.56 163.01 267.475 163.371 267.475H167.701C168.062 267.475 168.319 267.56 168.47 267.731C168.641 267.883 168.727 268.14 168.727 268.501V282.604ZM188.189 287.988H179.214C176.84 287.988 175.074 287.513 173.915 286.564C172.775 285.614 172.205 284.152 172.205 282.176V273.287C172.205 271.312 172.775 269.849 173.915 268.899C175.074 267.95 176.84 267.475 179.214 267.475H186.337C186.698 267.475 186.954 267.56 187.106 267.731C187.277 267.883 187.363 268.14 187.363 268.501V271.948C187.363 272.309 187.277 272.575 187.106 272.746C186.954 272.898 186.698 272.974 186.337 272.974H180.411C179.822 272.974 179.385 273.097 179.1 273.344C178.815 273.572 178.673 273.923 178.673 274.398V281.207C178.673 281.682 178.777 282.034 178.986 282.262C179.214 282.49 179.547 282.604 179.983 282.604H182.747V278.159C182.747 277.798 182.823 277.542 182.975 277.39C183.146 277.219 183.412 277.133 183.773 277.133H188.189C188.55 277.133 188.806 277.219 188.958 277.39C189.129 277.542 189.214 277.798 189.214 278.159V286.963C189.214 287.323 189.129 287.589 188.958 287.76C188.806 287.912 188.55 287.988 188.189 287.988ZM202.206 287.988H193.203C192.843 287.988 192.577 287.912 192.406 287.76C192.254 287.589 192.178 287.323 192.178 286.963V283.629C192.178 283.268 192.254 283.012 192.406 282.86C192.577 282.689 192.843 282.604 193.203 282.604H200.867C201.114 282.604 201.295 282.528 201.409 282.376C201.542 282.205 201.608 282.005 201.608 281.777C201.608 281.454 201.542 281.217 201.409 281.065C201.295 280.913 201.114 280.828 200.867 280.809L196.594 280.21C195.264 280.02 194.191 279.583 193.374 278.9C192.577 278.216 192.178 277.076 192.178 275.481V272.489C192.178 270.875 192.7 269.64 193.745 268.785C194.789 267.912 196.233 267.475 198.075 267.475H206.053C206.414 267.475 206.67 267.56 206.822 267.731C206.993 267.883 207.078 268.14 207.078 268.501V271.891C207.078 272.252 206.993 272.518 206.822 272.689C206.67 272.841 206.414 272.917 206.053 272.917H199.414C199.167 272.917 198.978 273.002 198.845 273.173C198.712 273.325 198.645 273.524 198.645 273.771C198.645 274.018 198.712 274.227 198.845 274.398C198.978 274.569 199.167 274.664 199.414 274.683L203.66 275.253C204.989 275.443 206.062 275.88 206.879 276.563C207.696 277.247 208.104 278.387 208.104 279.982V282.974C208.104 284.588 207.572 285.832 206.509 286.706C205.464 287.561 204.03 287.988 202.206 287.988Z" fill="#73B0FF"/>
<rect width="147.878" height="20.9183" transform="translate(92.5449 334.224)" fill="#73B0FF"/>
<path d="M107.176 342.627C107.176 343.292 106.997 343.894 106.638 344.433C106.279 344.971 105.756 345.367 105.07 345.621L107.493 350.183H103.565L101.632 346.207H100.334V350.183H96.8329V339.285H103.502C104.283 339.285 104.948 339.438 105.497 339.744C106.057 340.04 106.474 340.446 106.749 340.964C107.034 341.471 107.176 342.025 107.176 342.627ZM103.612 342.769C103.612 342.484 103.517 342.247 103.327 342.057C103.137 341.867 102.905 341.772 102.63 341.772H100.334V343.783H102.63C102.905 343.783 103.137 343.688 103.327 343.498C103.517 343.297 103.612 343.055 103.612 342.769ZM111.078 336.228L111.11 336.164H114.167L115.624 338.271H113.613L111.078 336.228ZM109.161 339.285H118.586V341.898H112.662V343.403H117.731V345.906H112.662V347.569H118.697V350.183H109.161V339.285ZM126.074 339.095C127.119 339.095 128.059 339.253 128.893 339.57C129.727 339.887 130.387 340.357 130.873 340.98C131.369 341.592 131.618 342.342 131.618 343.229H128.275C128.275 342.775 128.075 342.41 127.673 342.136C127.272 341.851 126.786 341.708 126.216 341.708C125.392 341.708 124.769 341.93 124.347 342.373C123.925 342.806 123.713 343.424 123.713 344.227V345.241C123.713 346.043 123.925 346.666 124.347 347.11C124.769 347.543 125.392 347.759 126.216 347.759C126.786 347.759 127.272 347.627 127.673 347.363C128.075 347.089 128.275 346.74 128.275 346.318H125.804V344.1H131.618V350.183H129.812L129.463 349.105C128.471 349.95 127.172 350.373 125.567 350.373C123.761 350.373 122.404 349.903 121.496 348.963C120.588 348.013 120.134 346.603 120.134 344.734C120.134 342.886 120.646 341.486 121.67 340.536C122.705 339.575 124.173 339.095 126.074 339.095ZM133.788 339.285H137.288V347.395H142.88V350.183H133.788V339.285ZM144.353 339.285H153.778V341.898H147.854V343.403H152.922V345.906H147.854V347.569H153.889V350.183H144.353V339.285ZM160.362 339.095C161.756 339.095 162.902 339.38 163.799 339.95C164.697 340.51 165.156 341.344 165.177 342.453V342.643H161.899V342.579C161.899 342.263 161.782 341.999 161.55 341.787C161.318 341.576 160.964 341.471 160.489 341.471C160.024 341.471 159.665 341.539 159.412 341.677C159.169 341.814 159.047 341.983 159.047 342.183C159.047 342.469 159.216 342.68 159.554 342.817C159.892 342.954 160.436 343.097 161.186 343.245C162.062 343.424 162.78 343.614 163.34 343.815C163.91 344.005 164.407 344.322 164.829 344.765C165.251 345.209 165.468 345.811 165.478 346.571C165.478 347.859 165.04 348.815 164.164 349.438C163.298 350.061 162.136 350.373 160.679 350.373C158.979 350.373 157.653 350.088 156.703 349.517C155.763 348.947 155.293 347.939 155.293 346.492H158.604C158.604 347.041 158.746 347.411 159.031 347.601C159.317 347.78 159.76 347.87 160.362 347.87C160.806 347.87 161.17 347.822 161.455 347.727C161.751 347.632 161.899 347.437 161.899 347.141C161.899 346.877 161.735 346.682 161.407 346.555C161.091 346.418 160.568 346.275 159.839 346.128C158.952 345.937 158.218 345.742 157.638 345.541C157.057 345.33 156.55 344.987 156.117 344.512C155.684 344.037 155.467 343.393 155.467 342.579C155.467 341.386 155.927 340.51 156.846 339.95C157.775 339.38 158.947 339.095 160.362 339.095ZM177.211 339.285C181.023 339.285 182.929 341.101 182.929 344.734C182.929 348.366 181.023 350.183 177.211 350.183H172.491V339.285H177.211ZM175.991 347.569H177.147C178.615 347.569 179.349 346.782 179.349 345.209V344.258C179.349 342.685 178.615 341.898 177.147 341.898H175.991V347.569ZM195.67 345.795C195.67 347.284 195.2 348.419 194.26 349.201C193.32 349.982 191.984 350.373 190.252 350.373C188.52 350.373 187.179 349.982 186.229 349.201C185.289 348.419 184.819 347.284 184.819 345.795V339.285H188.32V345.747C188.32 346.36 188.483 346.851 188.811 347.221C189.138 347.58 189.613 347.759 190.236 347.759C190.859 347.759 191.335 347.574 191.662 347.205C192 346.835 192.169 346.349 192.169 345.747V339.285H195.67V345.795ZM211.51 346.397C211.51 347.759 211.119 348.762 210.338 349.406C209.567 350.051 208.453 350.373 206.995 350.373C205.538 350.373 204.419 350.051 203.637 349.406C202.866 348.762 202.481 347.759 202.481 346.397V346.254H205.76V346.381C205.76 346.877 205.85 347.231 206.029 347.442C206.219 347.653 206.504 347.759 206.884 347.759C207.265 347.759 207.544 347.653 207.724 347.442C207.914 347.231 208.009 346.877 208.009 346.381V339.285H211.51V346.397ZM213.854 339.285H223.279V341.898H217.355V343.403H222.423V345.906H217.355V347.569H223.39V350.183H213.854V339.285ZM236.136 345.795C236.136 347.284 235.666 348.419 234.726 349.201C233.786 349.982 232.45 350.373 230.718 350.373C228.987 350.373 227.646 349.982 226.695 349.201C225.755 348.419 225.285 347.284 225.285 345.795V339.285H228.786V345.747C228.786 346.36 228.95 346.851 229.277 347.221C229.604 347.58 230.08 347.759 230.703 347.759C231.326 347.759 231.801 347.574 232.128 347.205C232.466 346.835 232.635 346.349 232.635 345.747V339.285H236.136V345.795Z" fill="white"/>
<path d="M304.307 455.4V455.4C314.033 455.4 321.918 447.516 321.918 437.789V436.575H304.307V455.4Z" fill="#73B0FF"/>
<rect width="17.6111" height="18.8257" transform="matrix(1 0 0 -1 286.695 399.777)" fill="#73B0FF"/>
<rect width="18.4116" height="18.8257" transform="matrix(1 0 0 -1 285.895 455.4)" fill="#5C90D5"/>
<rect width="18.4116" height="18.8257" transform="matrix(1 0 0 -1 249.869 455.4)" fill="#5C90D5"/>
<rect width="18.4116" height="18.8257" transform="matrix(1 0 0 -1 213.045 455.4)" fill="#5C90D5"/>
<rect width="17.6111" height="18.8257" transform="matrix(1 0 0 -1 304.307 418.604)" fill="#5C90D5"/>
<rect width="18.4116" height="17.97" transform="matrix(1 0 0 -1 285.895 436.574)" fill="#3A6193"/>
<rect width="17.6111" height="18.8257" transform="matrix(1 0 0 -1 268.283 455.4)" fill="#3A6193"/>
<rect width="17.6111" height="17.97" transform="matrix(1 0 0 -1 304.307 436.574)" fill="#005BD1"/>
<rect width="18.4116" height="17.97" transform="matrix(1 0 0 -1 249.869 436.574)" fill="#B1CDF1"/>
<path d="M27.9043 11.0889V11.0889C18.1779 11.0889 10.2932 18.9736 10.2932 28.7L10.2932 29.9146H27.9043L27.9043 11.0889Z" fill="#73B0FF"/>
<rect width="17.6111" height="18.8257" transform="matrix(-1 0 0 1 45.5156 66.7119)" fill="#73B0FF"/>
<rect width="18.4116" height="18.8257" transform="matrix(-1 0 0 1 46.3164 11.0889)" fill="#5C90D5"/>
<rect width="18.4116" height="18.8257" transform="matrix(-1 0 0 1 82.3418 11.0889)" fill="#5C90D5"/>
<rect width="18.4116" height="18.8257" transform="matrix(-1 0 0 1 119.164 11.0889)" fill="#5C90D5"/>
<rect width="17.6111" height="18.8257" transform="matrix(-1 0 0 1 27.9043 47.8848)" fill="#5C90D5"/>
<rect width="18.4116" height="17.97" transform="matrix(-1 0 0 1 46.3164 29.9141)" fill="#3A6193"/>
<rect width="17.6111" height="18.8257" transform="matrix(-1 0 0 1 63.9277 11.0889)" fill="#3A6193"/>
<rect width="17.6111" height="17.97" transform="matrix(-1 0 0 1 27.9043 29.9141)" fill="#005BD1"/>
<rect width="18.4116" height="17.97" transform="matrix(-1 0 0 1 82.3418 29.9141)" fill="#B1CDF1"/>
</svg>
