<svg width="245" height="95" viewBox="0 0 245 95" fill="none" xmlns="http://www.w3.org/2000/svg">
<g clip-path="url(#clip0_472_9413)">
<path d="M223.132 28.8641C221.725 24.8789 219.38 21.304 216.156 18.0221C213.576 15.5606 210.469 13.6852 206.776 12.3373C203.082 10.9894 199.037 10.3447 194.699 10.3447C183.735 10.3447 174.824 14.5057 168.023 22.7691C162.63 14.5057 154.598 10.3447 143.869 10.3447L143.928 10.4033C143.459 10.4033 142.99 10.3447 142.462 10.3447C131.499 10.3447 122.588 14.5057 115.787 22.7691C110.394 14.5057 102.362 10.3447 91.6332 10.3447L91.6918 10.4033C91.2814 10.4033 90.871 10.3447 90.4606 10.3447H90.2848C79.3802 10.3447 70.5276 14.4471 63.727 22.5933C62.6717 21.0109 61.4405 19.4872 59.9749 18.0807C59.33 17.4946 58.6851 16.9086 57.9816 16.3811C53.1156 12.3959 46.9598 10.3447 39.4556 10.3447H39.397C39.2797 10.3447 39.1039 10.3447 38.9866 10.3447C38.8107 10.3447 38.6348 10.3447 38.5176 10.3447C30.0167 10.3447 22.7471 12.8648 16.7672 17.8462V11.341H0V66.8405H0.117253H17.1189H17.2362V43.7499C17.2362 40.7024 17.7052 38.0652 18.6432 35.7795C19.5812 33.4939 20.871 31.6185 22.4539 30.0948C24.4472 28.3366 26.7337 27.1059 29.196 26.4027C29.3719 26.344 29.5477 26.2854 29.665 26.2854C29.7236 26.2854 29.7822 26.2854 29.8995 26.2268C31.4824 25.8752 33.0653 25.6408 34.7655 25.6408C39.5729 25.6408 43.5595 27.1645 46.9012 30.1534C50.1843 33.2009 51.8258 37.9479 51.8258 44.5704V66.8405H51.8844H51.943H68.9447H69.0033H69.062V42.9294C69.1206 40.2336 69.5896 37.8307 70.469 35.7209C71.407 33.4353 72.6968 31.5013 74.3384 30.0362C75.9799 28.5125 77.8559 27.3989 79.9665 26.6957C82.0771 25.9924 84.3049 25.6408 86.6499 25.5822C91.4573 25.5822 95.5025 27.1059 98.7856 30.0948C102.069 33.1423 103.71 37.9479 103.71 44.5118V66.7819H103.769H103.945H120.771H120.829H121.005V43.7499C121.005 40.7024 121.474 38.0652 122.412 35.7795C123.35 33.4939 124.64 31.5599 126.281 30.0948C127.923 28.5711 129.799 27.4576 131.91 26.7543C134.02 26.051 136.248 25.6408 138.593 25.6408C143.4 25.6408 147.446 27.1645 150.787 30.1534C154.07 33.2009 155.712 38.0066 155.712 44.5704V66.8405H156.181H172.948H173.358V43.7499C173.358 40.7024 173.827 38.0652 174.766 35.7795C175.704 33.4939 176.993 31.5599 178.635 30.0948C180.276 28.5711 182.152 27.4576 184.263 26.7543C186.374 26.051 188.601 25.6408 191.005 25.6408C195.812 25.6408 199.858 27.1645 203.199 30.1534C206.541 33.1423 208.124 38.0066 208.124 44.5704V66.8405H225.243V42.0503C225.243 37.2447 224.539 32.8493 223.132 28.8641Z" fill="white"/>
<path d="M244.999 10.5205C244.999 15.8536 240.661 20.249 235.267 20.249C229.932 20.249 225.535 15.9122 225.535 10.5205C225.535 5.1288 229.874 0.791992 235.267 0.791992C240.661 0.791992 244.999 5.1288 244.999 10.5205Z" fill="white"/>
<path d="M116.374 89.5211C116.374 90.283 116.256 90.9862 116.022 91.5723C115.787 92.1583 115.436 92.6272 114.967 93.0374C114.498 93.4477 113.97 93.7407 113.384 93.9165C112.797 94.0923 112.094 94.2095 111.332 94.2095H104.766V76.9795H111.097C111.801 76.9795 112.446 77.0967 113.091 77.2725C113.735 77.5069 114.204 77.8 114.674 78.1516C115.143 78.5618 115.494 79.0307 115.729 79.5581C115.963 80.0856 116.081 80.7303 116.081 81.4335C116.081 82.3712 115.846 83.1331 115.377 83.8363C114.908 84.5396 114.263 85.0085 113.384 85.3015C114.322 85.6531 115.025 86.122 115.553 86.8838C116.139 87.6457 116.374 88.5248 116.374 89.5211ZM114.791 81.4921C114.791 80.9061 114.674 80.3786 114.498 79.9684C114.322 79.5581 114.029 79.2065 113.677 78.9135C113.325 78.6791 112.915 78.4446 112.446 78.3274C111.977 78.2102 111.508 78.1516 110.98 78.1516H106.055V84.8326H110.98C111.508 84.8326 111.977 84.774 112.446 84.6568C112.915 84.5396 113.325 84.3052 113.677 84.0708C114.029 83.7777 114.322 83.4847 114.498 83.0159C114.674 82.6056 114.791 82.0782 114.791 81.4921ZM115.084 89.5211C115.084 88.4076 114.732 87.5285 114.029 86.9424C113.325 86.2978 112.387 86.0047 111.215 86.0047H106.114V93.096H111.215C112.387 93.096 113.325 92.803 114.029 92.1583C114.732 91.5137 115.084 90.6346 115.084 89.5211Z" fill="white"/>
<path d="M134.606 85.5945C134.606 86.5322 134.606 87.4113 134.606 88.1146C134.606 88.8179 134.548 89.4039 134.43 89.99C134.313 90.576 134.196 90.9863 133.961 91.3965C133.727 91.8067 133.434 92.217 133.023 92.6272C132.437 93.2133 131.792 93.6235 131.03 93.9165C130.268 94.2096 129.506 94.3854 128.685 94.3854C127.864 94.3854 127.043 94.2096 126.34 93.9165C125.578 93.6235 124.933 93.1547 124.347 92.6272C123.936 92.217 123.643 91.8067 123.409 91.3965C123.174 90.9863 123.057 90.5174 122.94 89.99C122.822 89.4625 122.764 88.8179 122.764 88.1146C122.764 87.4113 122.764 86.5908 122.764 85.5945C122.764 84.5983 122.764 83.7778 122.764 83.0745C122.764 82.3712 122.822 81.7852 122.94 81.1991C123.057 80.6131 123.233 80.2028 123.409 79.7926C123.643 79.3824 123.936 78.9721 124.347 78.5619C124.933 77.9758 125.578 77.5656 126.34 77.2726C127.102 76.9795 127.864 76.8037 128.685 76.8037C129.506 76.8037 130.268 76.9795 131.03 77.2726C131.792 77.5656 132.437 78.0344 133.023 78.5619C133.434 78.9721 133.727 79.3824 133.961 79.7926C134.196 80.2028 134.313 80.6717 134.43 81.1991C134.548 81.7266 134.606 82.3712 134.606 83.0745C134.606 83.7778 134.606 84.6569 134.606 85.5945ZM133.316 85.5945C133.316 84.6569 133.316 83.895 133.258 83.2503C133.258 82.6057 133.199 82.0196 133.082 81.5508C133.023 81.0819 132.847 80.6717 132.672 80.32C132.496 79.9684 132.261 79.6754 131.968 79.3238C131.558 78.9135 131.03 78.5619 130.444 78.3275C129.857 78.093 129.271 77.9758 128.685 77.9758C128.04 77.9758 127.454 78.093 126.926 78.3275C126.34 78.5619 125.871 78.8549 125.402 79.3238C125.109 79.6168 124.874 79.9684 124.698 80.32C124.522 80.6717 124.405 81.0819 124.288 81.5508C124.171 82.0196 124.171 82.6057 124.112 83.2503C124.053 83.895 124.053 84.7155 124.053 85.5945C124.053 86.5322 124.053 87.2941 124.112 87.9388C124.112 88.5834 124.171 89.1695 124.288 89.6383C124.347 90.1072 124.522 90.5174 124.698 90.869C124.874 91.2207 125.109 91.5137 125.402 91.8653C125.812 92.2756 126.34 92.6272 126.926 92.8616C127.512 93.0961 128.099 93.2133 128.685 93.2133C129.271 93.2133 129.916 93.0961 130.444 92.8616C131.03 92.6272 131.499 92.3342 131.968 91.8653C132.261 91.5723 132.496 91.2207 132.672 90.869C132.847 90.5174 132.965 90.1072 133.082 89.6383C133.141 89.1695 133.199 88.5834 133.258 87.9388C133.316 87.2941 133.316 86.5322 133.316 85.5945Z" fill="white"/>
<path d="M147.74 86.2978H142.991V94.2681H141.701V76.9795H148.267C148.971 76.9795 149.616 77.0967 150.202 77.2725C150.788 77.5069 151.316 77.8 151.785 78.1516C152.254 78.5618 152.606 79.0307 152.84 79.6167C153.075 80.2028 153.192 80.8475 153.192 81.6093C153.192 82.8987 152.84 83.9536 152.137 84.774C151.433 85.5945 150.437 86.0634 149.264 86.2978L153.426 94.2681H151.844L147.74 86.2978ZM151.902 81.6093C151.902 80.4372 151.55 79.5581 150.847 78.9721C150.143 78.386 149.205 78.1516 148.091 78.1516H142.991V85.1257H148.091C149.205 85.1257 150.143 84.8326 150.847 84.3052C151.55 83.7191 151.902 82.84 151.902 81.6093Z" fill="white"/>
<path d="M171.833 85.3601C171.833 85.9461 171.833 86.5908 171.833 87.2355C171.833 87.8801 171.774 88.5834 171.657 89.2281C171.54 89.8727 171.364 90.5174 171.129 91.1034C170.895 91.6895 170.543 92.2169 170.133 92.6272C169.077 93.6821 167.67 94.2095 165.794 94.2095H160.049V76.9795H165.853C167.67 76.9795 169.136 77.5069 170.191 78.5618C170.602 78.9721 170.953 79.4995 171.188 80.027C171.422 80.5544 171.598 81.1405 171.715 81.7265C171.833 82.3126 171.891 82.8987 171.891 83.5433C171.833 84.188 171.833 84.774 171.833 85.3601ZM170.543 85.3601C170.543 84.8912 170.543 84.3638 170.543 83.8363C170.543 83.3089 170.484 82.7814 170.426 82.254C170.367 81.7265 170.25 81.1991 170.074 80.7302C169.898 80.2614 169.664 79.8512 169.312 79.4995C168.784 78.9721 168.257 78.6204 167.612 78.4446C166.967 78.2688 166.322 78.1516 165.618 78.1516H161.456V93.096H165.618C166.322 93.096 166.967 92.9788 167.612 92.803C168.257 92.6272 168.843 92.2755 169.312 91.7481C169.664 91.3965 169.898 90.9276 170.074 90.4002C170.25 89.8727 170.367 89.2867 170.426 88.7006C170.484 88.1145 170.543 87.5285 170.543 86.9424C170.484 86.415 170.543 85.8289 170.543 85.3601Z" fill="white"/>
<path d="M178.928 76.9795H189.363V78.1516H180.218V84.9499H188.015V86.122H180.218V93.096H189.363V94.2095H178.928V76.9795Z" fill="white"/>
<path d="M204.489 90.0485H196.457L194.932 94.2681H193.525L199.857 77.0381H201.03L207.361 94.2681H205.954L204.489 90.0485ZM196.867 88.8764H204.078L200.443 78.7376L196.867 88.8764Z" fill="white"/>
<path d="M224.423 88.642C224.423 89.4625 224.305 90.283 223.954 90.9276C223.602 91.5723 223.25 92.2169 222.722 92.7444C222.195 93.2718 221.55 93.6821 220.846 93.9165C220.143 94.2095 219.322 94.3267 218.443 94.3267C217.563 94.3267 216.743 94.2095 216.039 93.9165C215.336 93.6235 214.691 93.2132 214.163 92.7444C213.635 92.2169 213.225 91.6309 212.932 90.9276C212.639 90.2244 212.521 89.4625 212.521 88.642V76.9795H213.811V88.4662C213.811 89.1695 213.929 89.8141 214.163 90.4002C214.398 90.9862 214.691 91.5137 215.101 91.9239C215.511 92.3341 215.98 92.6272 216.567 92.8616C217.153 93.096 217.739 93.2132 218.443 93.2132C219.146 93.2132 219.791 93.096 220.319 92.8616C220.905 92.6272 221.374 92.3341 221.784 91.9239C222.195 91.5137 222.488 90.9862 222.722 90.4002C222.957 89.8141 223.016 89.1695 223.016 88.4662V76.9795H224.305L224.423 88.642Z" fill="white"/>
<path d="M235.677 86.5322L231.222 94.2095H229.697L235.032 85.3601L230.049 76.9795H231.573L235.677 84.2466L239.84 76.9795H241.364L236.381 85.3601L241.774 94.2095H240.191L235.677 86.5322Z" fill="white"/>
</g>
<defs>
<clipPath id="clip0_472_9413">
<rect width="245" height="93.4173" fill="white" transform="translate(0 0.791016)"/>
</clipPath>
</defs>
</svg>
