<svg width="274" height="243" viewBox="0 0 274 243" fill="none" xmlns="http://www.w3.org/2000/svg">
<path d="M245.702 233.812L75.0464 242.988L65.8709 197.112L78.716 92.5166H43.8507C42.0157 82.7299 38.3457 62.4224 38.3457 59.4864C38.3457 56.5504 54.2491 41.1363 62.2008 33.7963L142.941 20.9512L227.352 26.4562L260.382 48.4763L273.227 81.5065L232.857 98.0216L221.847 87.0116L253.042 195.277L245.702 233.812Z" fill="white"/>
<path d="M86.7467 82.2432C82.1162 111.571 77.4762 140.908 72.8457 170.236" stroke="white" stroke-width="8.62748" stroke-miterlimit="10"/>
<path d="M212.439 83.0635C220.282 109.932 230.731 140.625 238.573 167.494" stroke="white" stroke-width="8.62748" stroke-miterlimit="10"/>
<path d="M73.0254 169.071C75.4317 180.707 78.1064 194.286 80.5032 205.922" stroke="white" stroke-width="8.62748" stroke-miterlimit="10"/>
<path d="M238.571 166.036C236.941 177.028 235.311 188.019 233.682 199.011" stroke="white" stroke-width="8.62748" stroke-miterlimit="10"/>
<path d="M76.7617 203.224C128.943 206.175 184.375 203.868 235.885 195.938" stroke="white" stroke-width="8.62748" stroke-miterlimit="10"/>
<path d="M103.424 171.388C137.841 168.792 172.258 166.206 206.665 163.61L103.424 171.388Z" fill="#153E60"/>
<path d="M103.424 171.388C137.841 168.792 172.258 166.206 206.665 163.61" stroke="#153E60" stroke-width="8.62748" stroke-miterlimit="10"/>
<path d="M153.003 87.0234C136.178 85.8191 125.201 89.042 116.036 101.526C106.871 114.011 109.028 132.093 120.993 142.558C132.957 153.024 153.473 154.72 167.384 146.332C181.294 137.953 187.017 120.397 180.23 106.768C173.442 93.1469 164.853 86.7012 146.983 86.7012" fill="#153E60"/>
<path d="M87.5965 86.4128C76.1593 90.1954 63.1595 90.1615 53.007 86.523C49.4023 78.0249 48.2903 68.7125 47.9355 60.5197C54.934 53.5397 61.9324 46.5596 65.3645 41.0978C119.032 27.3921 176.793 26.4677 230.077 38.1802C236.481 43.8287 242.895 49.4772 249.692 56.0077C252.481 63.9122 255.271 71.8082 258.061 79.7126" stroke="white" stroke-width="8.62748" stroke-miterlimit="10"/>
<path d="M215.887 88.2706C230.545 91.5698 248.568 86.9646 258.174 76.626" stroke="white" stroke-width="8.62748" stroke-miterlimit="10"/>
<path d="M99.5759 70.792C98.4255 68.095 97.3326 64.2615 96.3164 60.411C125.183 46.0863 161.555 44.2459 190.968 54.7371C192.799 60.1142 194.371 63.6084 196.202 68.9855" fill="#153E60"/>
<path d="M99.5759 70.792C98.4255 68.095 97.3326 64.2615 96.3164 60.411C125.183 46.0863 161.555 44.2459 190.968 54.7371C192.799 60.1142 194.371 63.6084 196.202 68.9855" stroke="white" stroke-width="8.62748" stroke-miterlimit="10"/>
<path d="M85.6445 84.2016C90.9653 79.1383 95.3273 74.2871 100.034 70.4196C130.434 68.6725 160.825 66.9254 191.973 65.085C199.038 71.5985 206.094 78.1036 213.16 84.6172" stroke="#153E60" stroke-width="8.62748" stroke-miterlimit="10"/>
<path d="M49.5185 74.8535C37.6499 78.6022 25.5513 91.9177 27.2482 102.96C28.9451 114.003 40.1425 123.315 52.711 124.129C58.2713 124.494 63.7646 120.567 64.5412 115.682C65.3177 110.797 61.2625 105.691 55.7979 104.682C40.6027 101.875 23.9119 111.789 21.103 125.291C18.294 138.802 29.9037 153.322 45.2332 155.476C50.5347 156.222 56.0568 152.295 56.3731 147.554C56.6895 142.813 51.7331 138.335 46.374 138.522C32.6072 138.997 20.0868 149.149 18.3611 161.234C16.6355 173.32 25.8964 185.915 39.088 189.409C52.2796 192.903 67.8391 186.882 73.9076 175.941" stroke="white" stroke-width="8.62748" stroke-miterlimit="10"/>
<path d="M137.497 96.3262C135.733 98.1072 133.959 99.8883 132.195 101.669" stroke="white" stroke-width="8.62748" stroke-miterlimit="10"/>
<path d="M124.97 114.105C124.721 116.336 124.462 118.567 124.213 120.797" stroke="white" stroke-width="8.62748" stroke-miterlimit="10"/>
<path d="M131.461 135.522C133.081 137.049 134.701 138.584 136.321 140.111" stroke="white" stroke-width="8.62748" stroke-miterlimit="10"/>
<path d="M150.914 140.016C153.397 139.566 155.89 139.125 158.373 138.676" stroke="white" stroke-width="8.62748" stroke-miterlimit="10"/>
<path d="M167.004 125.108C167.617 123.352 168.231 121.605 168.845 119.85" stroke="white" stroke-width="8.62748" stroke-miterlimit="10"/>
<path d="M161.17 105.597C159.943 103.239 158.716 100.881 157.498 98.5234" stroke="white" stroke-width="8.62748" stroke-miterlimit="10"/>
<path d="M39.0759 33.1857C28.6645 26.494 18.2532 19.8023 7.8418 13.1191" stroke="white" stroke-width="8.62748" stroke-miterlimit="10"/>
<path d="M55.3638 21.3888C53.8395 14.5954 52.3056 7.79344 50.7812 1" stroke="white" stroke-width="8.62748" stroke-miterlimit="10"/>
<path d="M27.0667 51.2943C18.381 51.0823 9.69531 50.8702 1 50.6582" stroke="white" stroke-width="8.62748" stroke-miterlimit="10"/>
</svg>
