<svg width="21" height="13" viewBox="0 0 21 13" fill="none" xmlns="http://www.w3.org/2000/svg">
<path d="M10.3986 12.5783C10.1339 12.5798 9.87144 12.5291 9.62635 12.429C9.38125 12.3288 9.15832 12.1813 8.97035 11.9949L0.923648 3.9482C0.544842 3.56939 0.332031 3.05562 0.332031 2.51991C0.332031 1.98419 0.544842 1.47042 0.923648 1.09162C1.30245 0.71281 1.81623 0.5 2.35194 0.5C2.88765 0.5 3.40142 0.71281 3.78023 1.09162L10.3986 7.73015L17.0171 1.11173C17.4019 0.782168 17.8969 0.609955 18.4032 0.629511C18.9095 0.649067 19.3898 0.858951 19.748 1.21722C20.1063 1.57549 20.3162 2.05575 20.3357 2.56204C20.3553 3.06833 20.1831 3.56336 19.8535 3.9482L11.8068 11.9949C11.4321 12.3665 10.9264 12.5761 10.3986 12.5783Z" fill="#153E60"/>
</svg>
