<svg width="16" height="16" viewBox="0 0 16 16" fill="none" xmlns="http://www.w3.org/2000/svg">
<path d="M8.87881 15.684L15.2352 8.73132C15.3315 8.62598 15.3998 8.51186 15.4403 8.38896C15.4801 8.26606 15.5 8.13438 15.5 7.99392C15.5 7.85347 15.4801 7.72179 15.4403 7.59889C15.3998 7.47599 15.3315 7.36186 15.2352 7.25652L8.87881 0.303874C8.70225 0.110745 8.4817 0.00961594 8.21718 0.000486201C7.95201 -0.00794125 7.72311 0.0931878 7.5305 0.303874C7.33788 0.497003 7.2374 0.738239 7.22905 1.02758C7.22135 1.31763 7.3138 1.56799 7.50642 1.77868L12.2255 6.94049H1.46308C1.19021 6.94049 0.961316 7.04127 0.776404 7.24283C0.592135 7.44508 0.5 7.69545 0.5 7.99392C0.5 8.29239 0.592135 8.54241 0.776404 8.74397C0.961316 8.94622 1.19021 9.04735 1.46308 9.04735H12.2255L7.50642 14.2092C7.32986 14.4023 7.2374 14.6481 7.22905 14.9466C7.22135 15.245 7.3138 15.4908 7.50642 15.684C7.68299 15.8947 7.9077 16 8.18058 16C8.45345 16 8.6862 15.8947 8.87881 15.684Z" fill="#F5F7FA"/>
</svg>
