<svg width="11" height="11" viewBox="0 0 11 11" fill="none" xmlns="http://www.w3.org/2000/svg">
<path d="M4.85554 10.7827L0.194222 6.00278C0.123596 5.93036 0.0734509 5.8519 0.043788 5.76741C0.0145959 5.68292 0 5.59239 0 5.49582C0 5.39926 0.0145959 5.30873 0.043788 5.22423C0.0734509 5.13974 0.123596 5.06128 0.194222 4.98886L4.85554 0.208913C4.98502 0.0761372 5.14675 0.00661096 5.34074 0.000334263C5.5352 -0.00545961 5.70305 0.0640666 5.8443 0.208913C5.98555 0.34169 6.05924 0.507539 6.06536 0.706462C6.07101 0.905868 6.00321 1.07799 5.86196 1.22284L2.40128 4.77159H10.2937C10.4938 4.77159 10.6617 4.84087 10.7973 4.97944C10.9324 5.1185 11 5.29062 11 5.49582C11 5.70102 10.9324 5.87291 10.7973 6.01148C10.6617 6.15053 10.4938 6.22006 10.2937 6.22006H2.40128L5.86196 9.7688C5.99144 9.90158 6.05924 10.0706 6.06536 10.2758C6.07101 10.481 6.00321 10.65 5.86196 10.7827C5.73248 10.9276 5.56768 11 5.36758 11C5.16747 11 4.99679 10.9276 4.85554 10.7827Z" fill="#2FA2EE"/>
</svg>
