<svg width="11" height="11" viewBox="0 0 11 11" fill="none" xmlns="http://www.w3.org/2000/svg">
<path d="M6.14446 10.7827L10.8058 6.00278C10.8764 5.93036 10.9265 5.8519 10.9562 5.76741C10.9854 5.68292 11 5.59239 11 5.49582C11 5.39926 10.9854 5.30873 10.9562 5.22423C10.9265 5.13974 10.8764 5.06128 10.8058 4.98886L6.14446 0.208913C6.01498 0.0761372 5.85325 0.00661096 5.65926 0.000334263C5.4648 -0.00545961 5.29695 0.0640666 5.1557 0.208913C5.01445 0.34169 4.94076 0.507539 4.93464 0.706462C4.92899 0.905868 4.99679 1.07799 5.13804 1.22284L8.59872 4.77159H0.70626C0.506153 4.77159 0.338299 4.84087 0.202697 4.97944C0.0675656 5.1185 -4.36016e-07 5.29062 -4.36016e-07 5.49582C-4.36016e-07 5.70102 0.0675656 5.87291 0.202697 6.01148C0.338299 6.15053 0.506153 6.22006 0.70626 6.22006H8.59872L5.13804 9.7688C5.00856 9.90158 4.94076 10.0706 4.93464 10.2758C4.92899 10.481 4.99679 10.65 5.13804 10.7827C5.26752 10.9276 5.43232 11 5.63242 11C5.83253 11 6.00321 10.9276 6.14446 10.7827V10.7827Z" fill="CurrentColor"/>
</svg>
