<svg width="105" height="43" viewBox="0 0 105 43" fill="none" xmlns="http://www.w3.org/2000/svg">
<path d="M50.8549 0.00948696L40.7646 12.0389L47.1573 17.437L50.1362 13.8794L48.9352 12.8643L46.9588 15.2171L42.9586 11.8397L51.0251 2.21995L53.8148 4.57271L54.8267 3.36787L50.836 0L50.8549 0.00948696Z" fill="#153e60"/>
<path d="M59.0217 0.829674L49.9453 11.6543L55.1413 16.0391L64.2177 5.21448L59.0217 0.829674Z" fill="#153e60"/>
<path d="M1.61181 36.2286C2.58781 37.4606 3.75581 38.0686 5.27581 38.0686C7.19581 38.0686 8.58781 36.8366 8.58781 35.0126C8.58781 31.3486 3.14781 31.9566 3.14781 29.1246C3.14781 27.9886 3.97981 27.1726 5.25981 27.1726C6.28381 27.1726 7.11581 27.7006 7.77181 28.7086L8.55581 28.0366C7.80381 26.9486 6.73181 26.2446 5.24381 26.2446C3.40381 26.2446 2.10781 27.5406 2.10781 29.1246C2.10781 32.7726 7.54781 32.2286 7.54781 35.0446C7.54781 36.2126 6.71581 37.1406 5.24381 37.1406C4.13981 37.1406 3.24381 36.5966 2.39581 35.5406L1.61181 36.2286ZM10.2706 37.7646H11.3746L12.8146 34.2446H18.3666L19.8066 37.7646H20.8946L16.2866 26.5646H14.8946L10.2706 37.7646ZM13.1826 33.3326L15.5986 27.4126L17.9986 33.3326H13.1826ZM23.3169 37.7646H24.3409V32.5006H28.3729V31.6206H24.3409V27.4606H29.0129V26.5646H23.3169V37.7646ZM31.4732 37.7646H37.1692V36.8686H32.4972V32.5006H36.5292V31.6206H32.4972V27.4606H37.1692V26.5646H31.4732V37.7646ZM44.4546 37.7646H46.2786V28.9166L52.0386 37.7646H54.4226V26.5646H52.5826V35.4126L46.8226 26.5646H44.4546V37.7646ZM61.0533 27.5086H64.9253V37.7646H65.9493V27.5086H69.8213V26.5646H61.0533V27.5086ZM72.2857 37.7646H77.9817V36.8686H73.3097V32.5006H77.3417V31.6206H73.3097V27.4606H77.9817V26.5646H72.2857V37.7646ZM85.6817 37.1246C82.8817 37.1246 80.8977 34.8846 80.8977 32.1646C80.8977 29.4446 82.8817 27.2046 85.6817 27.2046C87.3137 27.2046 88.6737 28.0046 89.5057 29.2046L90.3537 28.5646C89.3297 27.1726 87.6657 26.2446 85.6817 26.2446C82.1937 26.2446 79.8257 28.9646 79.8257 32.1646C79.8257 35.3646 82.1937 38.0846 85.6817 38.0846C87.6817 38.0846 89.3297 37.1566 90.3537 35.7806L89.5217 35.1246C88.6737 36.3246 87.3297 37.1246 85.6817 37.1246ZM93.0669 37.7646H94.0909V32.5326H101.611V37.7646H102.635V26.5646H101.611V31.5886H94.0909V26.5646H93.0669V37.7646Z" fill="#153e60"/>
<defs>
<radialGradient id="paint0_radial_283_650" cx="0" cy="0" r="1" gradientUnits="userSpaceOnUse" gradientTransform="translate(37.4657 -6.20864) rotate(58.0827) scale(32.8374 135.406)">
<stop stop-color="#153e60"/>
<stop offset="1" stop-color="#153e60"/>
</radialGradient>
<radialGradient id="paint1_radial_283_650" cx="0" cy="0" r="1" gradientUnits="userSpaceOnUse" gradientTransform="translate(45.9659 12.6325) rotate(-18.0407) scale(20.5203 84.873)">
<stop stop-color="#153e60"/>
<stop offset="1" stop-color="#153e60"/>
</radialGradient>
<radialGradient id="paint2_radial_283_650" cx="0" cy="0" r="1" gradientUnits="userSpaceOnUse" gradientTransform="translate(-24.6327 11.7256) rotate(15.5573) scale(134.563 319.47)">
<stop stop-color="#153e60"/>
<stop offset="1" stop-color="#153e60"/>
</radialGradient>
</defs>
</svg>
