<svg width="170" height="74" viewBox="0 0 170 74" fill="none" xmlns="http://www.w3.org/2000/svg">
<g clip-path="url(#clip0_254_723)">
<path d="M82.3366 16.0154L66 35.4916L76.3501 44.2314L81.173 38.4714L79.2285 36.8279L76.0286 40.6372L69.5521 35.1691L82.6122 19.5942L87.1289 23.4034L88.7671 21.4527L82.306 16L82.3366 16.0154Z" fill="white"/>
<path d="M95.5594 17.3426L80.8643 34.8682L89.2768 41.9674L103.972 24.4418L95.5594 17.3426Z" fill="white"/>
<path d="M34.1118 64.464C35.0878 65.696 36.2558 66.304 37.7758 66.304C39.6958 66.304 41.0878 65.072 41.0878 63.248C41.0878 59.584 35.6478 60.192 35.6478 57.36C35.6478 56.224 36.4798 55.408 37.7598 55.408C38.7838 55.408 39.6158 55.936 40.2718 56.944L41.0558 56.272C40.3038 55.184 39.2318 54.48 37.7438 54.48C35.9038 54.48 34.6078 55.776 34.6078 57.36C34.6078 61.008 40.0478 60.464 40.0478 63.28C40.0478 64.448 39.2158 65.376 37.7438 65.376C36.6398 65.376 35.7438 64.832 34.8958 63.776L34.1118 64.464ZM42.7706 66H43.8746L45.3146 62.48H50.8666L52.3066 66H53.3946L48.7866 54.8H47.3946L42.7706 66ZM45.6826 61.568L48.0986 55.648L50.4986 61.568H45.6826ZM55.8169 66H56.8409V60.736H60.8729V59.856H56.8409V55.696H61.5129V54.8H55.8169V66ZM63.9732 66H69.6692V65.104H64.9972V60.736H69.0292V59.856H64.9972V55.696H69.6692V54.8H63.9732V66ZM76.9546 66H78.7786V57.152L84.5386 66H86.9226V54.8H85.0826V63.648L79.3226 54.8H76.9546V66ZM93.5533 55.744H97.4253V66H98.4493V55.744H102.321V54.8H93.5533V55.744ZM104.786 66H110.482V65.104H105.81V60.736H109.842V59.856H105.81V55.696H110.482V54.8H104.786V66ZM118.182 65.36C115.382 65.36 113.398 63.12 113.398 60.4C113.398 57.68 115.382 55.44 118.182 55.44C119.814 55.44 121.174 56.24 122.006 57.44L122.854 56.8C121.83 55.408 120.166 54.48 118.182 54.48C114.694 54.48 112.326 57.2 112.326 60.4C112.326 63.6 114.694 66.32 118.182 66.32C120.182 66.32 121.83 65.392 122.854 64.016L122.022 63.36C121.174 64.56 119.83 65.36 118.182 65.36ZM125.567 66H126.591V60.768H134.111V66H135.135V54.8H134.111V59.824H126.591V54.8H125.567V66Z" fill="white"/>
</g>
<defs>
<clipPath id="clip0_254_723">
<rect width="170" height="74" fill="white"/>
</clipPath>
</defs>
</svg>
