<?xml version="1.0" encoding="UTF-8"?>
<svg id="Calque_1" data-name="Calque 1" xmlns="http://www.w3.org/2000/svg" viewBox="0 0 606 606">
  <defs>
    <style>
      .cls-1 {
        fill: #014064;
      }
    </style>
  </defs>
  <path class="cls-1" d="M360.11,158.11l-16.38-6.66c.72-16-1.52-33.71-.2-49.49.56-6.7,1.22-11.51,8.87-12.39,13.23-1.52,32.76,2.36,44.92.04,2.82-.54,7.03-9.52,16.66-10.57,15.46-1.68,21.22,11.45,19.87,24.67-.1.99-1.4,3.57,1.25,2.42,1.68-.73,6.07-6.44,8.32-8.22,41.6-33.01,93.22-33.6,133.42,2.36,5.56,4.97,18.46,16.07,12.99,23.57-8.18,11.22-20.83-8.88-27.17-14.11-32.08-26.51-75.38-26.79-107.43,0-4.72,3.95-15.09,17.2-20.23,17.69-6.51.62-11.24-7.3-7.56-12.99-8,2.44-15.69,4.35-23.05-1.18-1.89-1.42-5.43-7.1-5.9-7.1h-38.39v51.98Z"/>
  <path class="cls-1" d="M217.18,311.68c1.99,24.39,4.63,49.26,13.06,72.55l-25.47,17.02c-24.48-23.15-38.2-56.1-40.74-89.57h53.16Z"/>
  <path class="cls-1" d="M442.8,311.68c-2.61,33.54-16.2,66.35-40.74,89.57l-25.47-17.02c8.43-23.29,11.07-48.16,13.06-72.55h53.16Z"/>
  <path class="cls-1" d="M164.02,295.14c2.61-33.54,16.2-66.35,40.74-89.57l25.47,17.02c-8.43,23.29-11.07,48.16-13.06,72.55h-53.16Z"/>
  <path class="cls-1" d="M442.8,295.14h-53.16c-1.99-24.39-4.63-49.26-13.06-72.55l25.47-17.02c24.63,23.24,38.01,56.05,40.74,89.57Z"/>
  <path class="cls-1" d="M295.14,311.68v54.34c-17.47,1.05-34.16,6.26-50.75,10.59-2.75-12.82-6.43-25.46-8.14-38.52-1.15-8.83-.78-17.9-2.53-26.41h61.43Z"/>
  <path class="cls-1" d="M295.14,240.8v54.34h-61.43c1.75-8.51,1.38-17.58,2.53-26.41,1.71-13.1,5.53-25.68,8.1-38.57,16.87,4.26,33.19,9.68,50.79,10.64Z"/>
  <path class="cls-1" d="M311.68,240.8c17.55-1.09,33.98-6.18,50.79-10.64,2.57,12.89,6.39,25.47,8.1,38.57,1.15,8.83.78,17.9,2.53,26.41h-61.43v-54.34Z"/>
  <path class="cls-1" d="M373.11,311.68c-1.75,8.51-1.38,17.58-2.53,26.41-1.71,13.1-5.53,25.68-8.1,38.57-8.41-1.43-16.24-4.93-24.59-6.72s-17.45-2.69-26.21-3.92v-54.34h61.43Z"/>
  <path class="cls-1" d="M147.48,311.68l1.18,16.54h-69.11c-3.95,6.27-26.51,23.45-28.3,28.29-1.36,3.69,2.6,9.29-3,17.2-12.77,18.01-41.29,2.76-32.77-18.6,3.98-9.97,14.65-12.89,24.45-10.9l32.54-32.53h75.01Z"/>
  <path class="cls-1" d="M295.14,459.34v75.01l-32.53,32.54c1.99,9.8-.93,20.47-10.9,24.45-21.36,8.52-36.61-20.01-18.6-32.77,7.9-5.6,13.51-1.64,17.2-3,4.84-1.79,22.02-24.35,28.29-28.3v-69.11l16.54,1.18Z"/>
  <path class="cls-1" d="M328.22,458.16v69.11c6.27,3.95,23.45,26.51,28.29,28.3,1.28.47,5.24-.8,7.71-.58,22.69,2.03,22.68,35.17,1.09,37.75-15.14,1.81-24.3-11.97-21.1-25.84l-32.53-32.54v-75.01l16.54-1.18Z"/>
  <path class="cls-1" d="M148.66,278.6l-1.18,16.54h-75.01l-32.53-32.53c-16.31,3.71-31.54-10.08-24.18-26.54,7.86-17.58,34.39-12.41,36.08,6.53.22,2.48-1.05,6.43-.58,7.71,1.79,4.84,24.35,22.02,28.3,28.29h69.11Z"/>
  <path class="cls-1" d="M459.34,295.14l-1.18-16.54h69.11c3.95-6.26,26.51-23.45,28.3-28.29.52-1.41-.83-4.41-.64-6.55,2.48-27.33,41.04-22.18,37.81,3.42-1.53,12.14-14.81,17.87-25.85,15.42l-32.53,32.53h-75.01Z"/>
  <path class="cls-1" d="M328.22,148.66l-16.54-1.18v-75.01l32.53-32.53c-2.45-11.04,3.28-24.31,15.42-25.85,25.61-3.23,30.75,35.34,3.42,37.81-2.14.19-5.14-1.16-6.55-.64-4.84,1.78-22.03,24.35-28.29,28.3v69.11Z"/>
  <path class="cls-1" d="M458.16,328.22l1.18-16.54h75.01l32.53,32.53c11.04-2.45,24.31,3.28,25.85,15.42,3.23,25.61-35.34,30.75-37.81,3.42-.19-2.14,1.16-5.14.64-6.55-1.78-4.84-24.35-22.03-28.3-28.29h-69.11Z"/>
  <path class="cls-1" d="M295.14,147.48l-16.54,1.18v-69.11c-6.26-3.95-23.45-26.51-28.29-28.3-1.41-.52-4.41.83-6.55.64-24.69-2.24-23.31-35.27-2.26-37.81,14.96-1.81,24.18,11.99,21.11,25.84l32.53,32.53v75.01Z"/>
  <path class="cls-1" d="M246.71,500.68v-51.98c3.4,1.87,15.32,3.67,16.35,6.69-.78,16.26,1.71,34.65.24,50.65-.59,6.38-1.77,10.38-8.88,11.2-13.27,1.53-32.68-2.35-44.92-.04-2.82.53-7.08,9.54-16.66,10.57-26.71,2.87-27.69-40.1.12-37.74,10.39.88,14.39,10.64,15.36,10.64h38.39Z"/>
  <path class="cls-1" d="M106.13,246.71h51.98l-6.66,16.38c-16.28-.84-34.66,1.68-50.68.21-6.38-.59-10.38-1.77-11.2-8.88-1.53-13.27,2.35-32.68.04-44.92-.53-2.82-9.54-7.08-10.57-16.66-2.87-26.71,40.1-27.69,37.74.12-.88,10.39-10.64,14.39-10.64,15.36v38.39Z"/>
  <path class="cls-1" d="M246.71,158.11v-51.98h-38.39c-.97,0-4.97,9.76-15.36,10.64-27.82,2.37-26.84-40.61-.12-37.74,9.58,1.03,13.83,10.03,16.66,10.57,12.25,2.31,31.66-1.57,44.92-.04,7.11.82,8.29,4.83,8.88,11.2,1.47,16.02-1.05,34.4-.21,50.68l-16.38,6.66Z"/>
  <path class="cls-1" d="M158.11,360.11h-51.98v38.39c0,.97,9.76,4.97,10.64,15.36,2.37,27.82-40.61,26.84-37.74.12,1.03-9.58,10.03-13.83,10.57-16.66,2.31-12.25-1.57-31.66-.04-44.92.82-7.11,4.83-8.29,11.2-8.88,16.02-1.47,34.4,1.05,50.68.21l6.66,16.38Z"/>
  <path class="cls-1" d="M500.68,360.11h-51.98l6.66-16.38c16.28.84,34.66-1.68,50.68-.21,6.38.59,10.38,1.77,11.2,8.88,1.53,13.27-2.35,32.68-.04,44.92.53,2.82,9.54,7.08,10.57,16.66,2.87,26.71-40.1,27.69-37.74-.12.88-10.39,10.64-14.39,10.64-15.36v-38.39Z"/>
  <path class="cls-1" d="M360.11,500.68h38.39c.97,0,4.97-9.76,15.36-10.64,27.82-2.37,26.84,40.61.12,37.74-9.58-1.03-13.83-10.03-16.66-10.57-12.25-2.31-31.66,1.57-44.92.04-7.11-.82-8.29-4.83-8.88-11.2-1.47-16.02,1.05-34.4.21-50.68l16.38-6.66v51.98Z"/>
  <path class="cls-1" d="M448.71,246.71h51.98v-38.39c0-.92-9.34-4.96-10.52-14.28-3.91-30.71,45.26-27.29,36.56,2.53-2.31,7.92-6.97,7.98-8.91,11.17-2.3,3.79.38,38.46-.57,46.68-.88,7.66-5.69,8.31-12.39,8.87-15.78,1.32-33.5-.93-49.49-.2l-6.66-16.38Z"/>
  <path class="cls-1" d="M507.56,105.23c14.73-.2,30.85,5.05,43.1,12.95,7.05,4.54,26.76,19.26,20.77,28.6-6.84,10.67-17.82-5.67-22.94-9.89-23.36-19.24-54.06-20.33-77.9-1.19-6.26,5.02-12.6,17.45-21.86,13.53-11.81-5.01,4.55-20.47,9.55-24.65,13.25-11.09,31.84-19.09,49.29-19.34Z"/>
  <path class="cls-1" d="M499.22,138.33c12.52-1.7,25.5.33,36.51,6.59,7.03,3.99,27.85,20.34,13.65,27.12-7.22,3.45-14.15-8.15-20.45-12.06-12.1-7.5-26.97-7.75-39.23-.46-7.44,4.42-15.42,18.4-23.73,11.44-10.11-8.48,9.96-22.61,16.98-26.46,4.75-2.6,10.89-5.44,16.27-6.17Z"/>
  <path class="cls-1" d="M295.14,382.56v56.7c-21.68-5.35-35.34-27.28-43.73-46.64,14.06-5.53,28.73-8.39,43.73-10.06Z"/>
  <path class="cls-1" d="M311.68,382.56c15,1.67,29.67,4.53,43.73,10.06-8.39,19.36-22.05,41.29-43.73,46.64v-56.7Z"/>
  <path class="cls-1" d="M311.68,167.56c21.68,5.35,35.34,27.28,43.73,46.64-13.99,5.51-28.81,8.26-43.73,10.06v-56.7Z"/>
  <path class="cls-1" d="M295.14,167.56v56.7c-14.92-1.8-29.74-4.55-43.73-10.06,8.39-19.36,22.05-41.29,43.73-46.64Z"/>
  <path class="cls-1" d="M237.25,400.27c3.17,12.9,13.21,23.26,20.09,34.25-14.8-4.12-28.19-12.4-40.14-21.84l20.05-12.41Z"/>
  <path class="cls-1" d="M349.48,434.52c6.88-10.98,16.92-21.35,20.09-34.25l20.05,12.41c-11.95,9.44-25.34,17.72-40.14,21.84Z"/>
  <path class="cls-1" d="M257.34,172.3c-7.2,10.77-16.79,21.45-20.09,34.25l-20.05-12.41c11.95-9.44,25.34-17.72,40.14-21.84Z"/>
  <path class="cls-1" d="M369.57,206.55c-3.3-12.8-12.9-23.48-20.09-34.25,14.8,4.12,28.19,12.4,40.14,21.84l-20.05,12.41Z"/>
</svg>