<svg width="28" height="26" viewBox="0 0 28 26" fill="none" xmlns="http://www.w3.org/2000/svg">
<path d="M27.9871 22.972L26.2046 7.97203C26.1468 7.48331 25.9108 7.03305 25.5418 6.70742C25.1728 6.38178 24.6967 6.20362 24.2046 6.20703H20.0008C20.0008 4.61573 19.3687 3.08961 18.2435 1.96439C17.1182 0.839172 15.5921 0.207031 14.0008 0.207031C12.4095 0.207031 10.8834 0.839172 9.75818 1.96439C8.63296 3.08961 8.00082 4.61573 8.00082 6.20703H3.79207C3.29995 6.20362 2.82385 6.38178 2.45485 6.70742C2.08586 7.03305 1.84988 7.48331 1.79207 7.97203L0.0095703 22.972C-0.0230951 23.252 0.00378372 23.5357 0.0884442 23.8045C0.173105 24.0734 0.313635 24.3213 0.50082 24.532C0.689359 24.7437 0.920396 24.9131 1.17886 25.0294C1.43732 25.1458 1.7174 25.2063 2.00082 25.207H25.9908C26.2759 25.2077 26.5579 25.1479 26.8182 25.0315C27.0785 24.9151 27.3112 24.7449 27.5008 24.532C27.6871 24.3209 27.8267 24.0728 27.9105 23.804C27.9943 23.5351 28.0204 23.2516 27.9871 22.972ZM14.0008 2.20703C15.0617 2.20703 16.0791 2.62846 16.8292 3.3786C17.5794 4.12875 18.0008 5.14617 18.0008 6.20703H10.0008C10.0008 5.14617 10.4222 4.12875 11.1724 3.3786C11.9225 2.62846 12.94 2.20703 14.0008 2.20703ZM2.00082 23.207L3.79207 8.20703H24.2196L25.9908 23.207H2.00082Z" fill="#20587D"/>
</svg>
