<svg width="26" height="23" viewBox="0 0 26 23" fill="none" xmlns="http://www.w3.org/2000/svg">
<path d="M22 9.41406C22 9.67928 21.8946 9.93363 21.7071 10.1212C21.5196 10.3087 21.2652 10.4141 21 10.4141H16C15.7348 10.4141 15.4804 10.3087 15.2929 10.1212C15.1054 9.93363 15 9.67928 15 9.41406C15 9.14885 15.1054 8.89449 15.2929 8.70696C15.4804 8.51942 15.7348 8.41406 16 8.41406H21C21.2652 8.41406 21.5196 8.51942 21.7071 8.70696C21.8946 8.89449 22 9.14885 22 9.41406ZM21 12.4141H16C15.7348 12.4141 15.4804 12.5194 15.2929 12.707C15.1054 12.8945 15 13.1488 15 13.4141C15 13.6793 15.1054 13.9336 15.2929 14.1212C15.4804 14.3087 15.7348 14.4141 16 14.4141H21C21.2652 14.4141 21.5196 14.3087 21.7071 14.1212C21.8946 13.9336 22 13.6793 22 13.4141C22 13.1488 21.8946 12.8945 21.7071 12.707C21.5196 12.5194 21.2652 12.4141 21 12.4141ZM26 2.41406V20.4141C26 20.9445 25.7893 21.4532 25.4142 21.8283C25.0391 22.2033 24.5304 22.4141 24 22.4141H2C1.46957 22.4141 0.960859 22.2033 0.585786 21.8283C0.210714 21.4532 0 20.9445 0 20.4141V2.41406C0 1.88363 0.210714 1.37492 0.585786 0.999849C0.960859 0.624776 1.46957 0.414063 2 0.414062H24C24.5304 0.414063 25.0391 0.624776 25.4142 0.999849C25.7893 1.37492 26 1.88363 26 2.41406ZM24 20.4141V2.41406H2V20.4141H24ZM13.9675 16.1641C14.0338 16.421 13.9953 16.6937 13.8605 16.9223C13.7257 17.1509 13.5057 17.3165 13.2488 17.3828C12.9918 17.4491 12.7191 17.4106 12.4905 17.2758C12.262 17.1411 12.0963 16.921 12.03 16.6641C11.7013 15.3816 10.3975 14.4141 8.99875 14.4141C7.6 14.4141 6.2975 15.3816 5.9675 16.6641C5.9012 16.921 5.73554 17.1411 5.50698 17.2758C5.27842 17.4106 5.00568 17.4491 4.74875 17.3828C4.49182 17.3165 4.27176 17.1509 4.13696 16.9223C4.00217 16.6937 3.9637 16.421 4.03 16.1641C4.3545 14.9563 5.12157 13.9148 6.17875 13.2466C5.61696 12.6881 5.23363 11.9754 5.07736 11.1988C4.92109 10.4223 4.99891 9.61679 5.30096 8.8845C5.60301 8.15221 6.11568 7.52609 6.774 7.08551C7.43231 6.64493 8.20661 6.40973 8.99875 6.40973C9.79089 6.40973 10.5652 6.64493 11.2235 7.08551C11.8818 7.52609 12.3945 8.15221 12.6965 8.8845C12.9986 9.61679 13.0764 10.4223 12.9201 11.1988C12.7639 11.9754 12.3805 12.6881 11.8188 13.2466C12.8771 13.9138 13.6448 14.9556 13.9688 16.1641H13.9675ZM9 12.4141C9.39556 12.4141 9.78224 12.2968 10.1111 12.077C10.44 11.8572 10.6964 11.5449 10.8478 11.1794C10.9991 10.814 11.0387 10.4118 10.9616 10.0239C10.8844 9.63592 10.6939 9.27955 10.4142 8.99985C10.1345 8.72014 9.77814 8.52966 9.39018 8.45249C9.00222 8.37532 8.60009 8.41493 8.23463 8.5663C7.86918 8.71768 7.55682 8.97402 7.33706 9.30292C7.1173 9.63182 7 10.0185 7 10.4141C7 10.9445 7.21071 11.4532 7.58579 11.8283C7.96086 12.2033 8.46957 12.4141 9 12.4141Z" fill="#20587D"/>
</svg>
