<svg width="27" height="27" viewBox="0 0 27 27" fill="none" xmlns="http://www.w3.org/2000/svg">
<path d="M26.7078 24.9149L20.449 18.6574C22.2631 16.4795 23.1676 13.6861 22.9746 10.8583C22.7815 8.03045 21.5057 5.38593 19.4125 3.47482C17.3193 1.56372 14.5698 0.533173 11.7362 0.597573C8.9025 0.661973 6.20274 1.81636 4.19851 3.82058C2.19429 5.82481 1.0399 8.52457 0.975503 11.3582C0.911103 14.1919 1.94164 16.9413 3.85275 19.0345C5.76385 21.1277 8.40838 22.4036 11.2362 22.5967C14.064 22.7897 16.8574 21.8851 19.0353 20.0711L25.2928 26.3299C25.3857 26.4228 25.496 26.4965 25.6174 26.5467C25.7388 26.597 25.8689 26.6229 26.0003 26.6229C26.1317 26.6229 26.2618 26.597 26.3832 26.5467C26.5046 26.4965 26.6149 26.4228 26.7078 26.3299C26.8007 26.2369 26.8744 26.1266 26.9247 26.0053C26.975 25.8839 27.0008 25.7538 27.0008 25.6224C27.0008 25.491 26.975 25.3609 26.9247 25.2395C26.8744 25.1181 26.8007 25.0078 26.7078 24.9149ZM3.00029 11.6224C3.00029 9.84232 3.52813 8.10227 4.51706 6.62222C5.50599 5.14218 6.9116 3.98863 8.55613 3.30744C10.2007 2.62625 12.0103 2.44802 13.7561 2.79529C15.5019 3.14255 17.1056 3.99972 18.3642 5.25839C19.6229 6.51707 20.4801 8.12071 20.8274 9.86654C21.1746 11.6124 20.9964 13.422 20.3152 15.0665C19.634 16.711 18.4805 18.1166 17.0004 19.1056C15.5204 20.0945 13.7803 20.6224 12.0003 20.6224C9.61415 20.6197 7.3265 19.6706 5.63925 17.9834C3.95199 16.2961 3.00293 14.0085 3.00029 11.6224Z" fill="#20587D"/>
</svg>
