<?xml version="1.0" encoding="UTF-8"?>
<svg id="Calque_1" data-name="Calque 1" xmlns="http://www.w3.org/2000/svg" viewBox="0 0 800 800">
  <defs>
    <style>
      .cls-1 {
        fill: #014064;
      }
    </style>
  </defs>
  <path class="cls-1" d="M521.67,337.29c-78.65,24.77-164.72,24.76-243.35,0,.7-45.52,6.97-108.2,33.53-146.53,30.5-43.99,50.61-1.74,85.76-.07,24.1,1.14,48.27-23.16,66.51-19.73,22.67,4.25,38.76,46.76,44.47,66.54,9.15,31.7,13.53,66.76,13.08,99.79Z"/>
  <path class="cls-1" d="M17.19,782.81c4.59-61.06,55.7-113.51,117.18-117.2.64-3.52-.14-2.5-1.98-3.49-5.46-2.95-12.49-3.93-18.82-7.72-49.48-29.63-31.12-109.3,26.22-113.85,80.32-6.37,94.76,105.68,18.04,122.72l30.01,7.49c49.08,16.3,83.91,60.55,88.74,112.05H17.19Z"/>
  <path class="cls-1" d="M523.44,782.81c5.15-61.37,56.54-114.49,118.74-117.2.8-4.42-1.05-2.57-3.43-3.51-37.55-14.97-59.75-45.04-41.66-86.1,36.72-83.35,164.25-6.77,103.55,66.05-11.65,13.97-19.6,12.82-33.03,20.07-1.84,1-2.63-.03-1.98,3.49,61.39,3.47,112.57,56.31,117.18,117.2h-259.38Z"/>
  <path class="cls-1" d="M350,617.19c-18.52-8.26-27.94-28.67-28.33-48.22-14.73-2.96-27.36-11.92-36.38-23.79-25.5-33.54-6.06-74.23-13.41-112.36l31.28,6.99c2.22,10.36,4.1,18.16,10.93,26.57,21.17,26.04,63.74,17.75,65.66-17.86l39.67-.13c3.1,34.61,43.97,44.33,65.75,18.82,7.3-8.55,9.42-16.64,11.66-27.4,8.83-.54,20.92-6.6,28.94-7.03,5-.27.85,9.74.73,13.25-1.24,34.38,10.42,70.59-12.47,100.03-8.92,11.47-21.37,20-35.69,22.91-.39,19.55-9.81,39.96-28.33,48.22v-25.78c0-2.29-4.83-6.17-7.39-6.73-21.93-4.79-11.89,28.05-15.16,40.43l-16.51,3.02v-36.72c0-9.08-21.88-9.09-21.88,0v36.72l-16.51-3.02c-3.28-12.38,6.77-45.22-15.16-40.43-2.55.56-7.39,4.44-7.39,6.73v25.78ZM396.43,494.06c-4.53,1.36-22.85,35.75-23.1,41.12-.19,4.06,1.21,8.72,5.17,10.54,4.36,1.99,38.64,2,43,0,6.2-2.84,5.56-10.16,3.84-15.6-1.43-4.53-14.57-29.05-17.52-32.47-3.25-3.77-6.28-5.12-11.4-3.58Z"/>
  <path class="cls-1" d="M259.37,281.26c1.19,1.35-2.96,28.75-3.18,33.52-.31,6.57-1.01,30.65.88,35.18.9,2.16,5.36,5.36,7.67,6.39,34.83,15.46,111.76,23.25,150.09,21.76,31.01-1.21,92.49-9.39,120.43-21.76,4.46-1.97,7.92-5.25,8.57-10.18,2.68-20.29-2.83-44.43-3.2-64.92,48.95,12.97,110.17,58.43,47.36,102.83-80.5,56.91-295.54,56.87-375.98,0-62.87-44.44-1.49-89.93,47.36-102.83Z"/>
  <path class="cls-1" d="M19.53,212.5c-1.46-1.11-2-1.62-2.05-3.54-.14-4.5,4.49-19.97,6.34-24.99,13.23-35.94,50.44-63.72,88.68-66.8l-18.63-8.68C46.22,74.85,82.64,1.38,138.36,20.24c35.98,12.17,43.69,61.4,14.63,85.1l-21.73,11.84c49.49,5.41,90.61,45.09,93.74,95.33H19.53Z"/>
  <path class="cls-1" d="M575,212.5c3.04-50.25,44.38-89.75,93.74-95.33l-21.73-11.84c-41.81-36.12-4.4-103.76,48.73-84.67,38.03,13.67,43.49,63.88,11.02,86.88l-19.25,9.63c45.25,4.34,85.19,38.88,93.27,84.07.63,3.52,2.74,9.19-.31,11.26h-205.47Z"/>
  <path class="cls-1" d="M502.68,692.52c8.75-1.94,29.14-2.77,31.04,8.96,2.38,14.73-18.99,13.69-28.28,12.62-14.42-1.67-14.29-19.02-2.75-21.57Z"/>
  <path class="cls-1" d="M444.87,86.27c10.35-2.38,39.03-2.53,30.89,15.27-3.64,7.97-24.62,7.87-31.6,5.09-9.47-3.77-8.99-18.12.71-20.35Z"/>
  <path class="cls-1" d="M330.8,86.27c10.35-2.38,39.03-2.53,30.89,15.27-3.64,7.97-24.62,7.87-31.6,5.09-9.47-3.77-8.99-18.12.71-20.35Z"/>
  <path class="cls-1" d="M216.74,86.27c10.35-2.38,39.03-2.53,30.89,15.27-3.64,7.97-24.62,7.87-31.6,5.09-9.47-3.77-8.99-18.12.71-20.35Z"/>
  <path class="cls-1" d="M274.56,692.52c8.75-1.94,29.14-2.77,31.04,8.96,2.38,14.73-18.99,13.69-28.28,12.62-14.42-1.67-14.29-19.02-2.75-21.57Z"/>
  <path class="cls-1" d="M330.8,692.52c10.35-2.38,39.03-2.53,30.89,15.27-3.64,7.97-24.62,7.87-31.6,5.09-9.47-3.77-8.99-18.12.71-20.35Z"/>
  <path class="cls-1" d="M388.62,692.52c8.75-1.94,29.14-2.77,31.04,8.96,2.38,14.73-18.99,13.69-28.28,12.62-14.42-1.67-14.29-19.02-2.75-21.57Z"/>
  <path class="cls-1" d="M444.87,692.52c10.35-2.38,39.03-2.53,30.89,15.27-3.64,7.97-24.62,7.87-31.6,5.09-9.47-3.77-8.99-18.12.71-20.35Z"/>
  <path class="cls-1" d="M118.32,233.13c24.86-5.59,16.36,54.05-4.2,36.34-5.14-4.43-6.55-33.93,4.2-36.34Z"/>
  <path class="cls-1" d="M674.56,233.11c19.95-5.92,16.65,31.76,11.33,36.36-19.05,16.46-26.39-31.89-11.33-36.36Z"/>
  <path class="cls-1" d="M558.93,86.27c10.61-2.44,38.26-2.88,30.52,14.9-3.74,8.58-23.86,8.39-31.23,5.46-9.47-3.77-8.99-18.12.71-20.35Z"/>
  <path class="cls-1" d="M674.56,347.18c19.95-5.92,16.65,31.76,11.33,36.36-19.05,16.46-26.39-31.89-11.33-36.36Z"/>
  <path class="cls-1" d="M118.32,461.26c24.86-5.59,16.36,54.05-4.2,36.34-5.14-4.43-6.55-33.93,4.2-36.34Z"/>
  <path class="cls-1" d="M674.56,461.24c19.95-5.92,16.65,31.76,11.33,36.36-19.05,16.46-26.39-31.89-11.33-36.36Z"/>
  <path class="cls-1" d="M118.32,347.19c24.86-5.59,16.36,54.05-4.2,36.34-5.14-4.43-6.55-33.93,4.2-36.34Z"/>
  <path class="cls-1" d="M129.3,440.22c-4.88,4.5-16.05,2.99-18.03-3.82-2.29-7.87-2.66-31.22,8.59-32.99,16.7-2.62,15.62,31.11,9.44,36.82Z"/>
  <path class="cls-1" d="M387.05,86.27h25.91c29.95,29.69-55.92,29.56-25.91,0Z"/>
  <path class="cls-1" d="M272.98,86.27h25.91c29.95,29.69-55.92,29.56-25.91,0Z"/>
  <path class="cls-1" d="M501.11,86.27c3.42-.99,23.94-.88,26.99.48,7.12,3.19,6.82,15.48.51,19.21-4.96,2.93-25.47,2.94-30.09-.57-6.37-4.85-4.73-17,2.58-19.12Z"/>
  <path class="cls-1" d="M129.29,326.15c-4.31,4.05-16.16,2.68-18.02-3.83-2.27-7.91-2.67-31.22,8.59-32.99,16.65-2.61,15.67,30.96,9.43,36.82Z"/>
  <path class="cls-1" d="M670.71,326.15c-6.24-5.86-7.22-39.43,9.43-36.82,11.27,1.77,10.86,25.08,8.59,32.99-1.87,6.51-13.71,7.87-18.02,3.83Z"/>
  <path class="cls-1" d="M670.71,440.22c-6.24-5.86-7.22-39.43,9.43-36.82,11.27,1.77,10.86,25.08,8.59,32.99-1.87,6.51-13.71,7.87-18.02,3.83Z"/>
</svg>