<svg width="24" height="24" viewBox="0 0 24 24" fill="none" xmlns="http://www.w3.org/2000/svg">
<path d="M24 1.82871V7.8287C24 8.09392 23.8946 8.34828 23.7071 8.53581C23.5196 8.72335 23.2652 8.8287 23 8.8287H17C16.7348 8.8287 16.4804 8.72335 16.2929 8.53581C16.1054 8.34828 16 8.09392 16 7.8287C16 7.56349 16.1054 7.30913 16.2929 7.1216C16.4804 6.93406 16.7348 6.8287 17 6.8287H20.5863L18.7575 4.99996C16.899 3.13296 14.3756 2.07965 11.7413 2.0712H11.685C9.07272 2.06508 6.56302 3.08755 4.69875 4.91745C4.50777 5.09573 4.25462 5.19219 3.99343 5.1862C3.73224 5.18021 3.48377 5.07224 3.30118 4.8854C3.11858 4.69855 3.01635 4.44767 3.01636 4.18641C3.01638 3.92516 3.11863 3.67428 3.30125 3.48746C5.56066 1.2792 8.59977 0.0510541 11.759 0.0695417C14.9183 0.0880293 17.9428 1.35166 20.1763 3.58621L22 5.41496V1.82871C22 1.56349 22.1054 1.30913 22.2929 1.1216C22.4804 0.934062 22.7348 0.828705 23 0.828705C23.2652 0.828705 23.5196 0.934062 23.7071 1.1216C23.8946 1.30913 24 1.56349 24 1.82871ZM19.3013 18.74C17.4185 20.579 14.8867 21.6017 12.2549 21.5863C9.62312 21.5708 7.10349 20.5185 5.2425 18.6575L3.41375 16.8287H7C7.26522 16.8287 7.51957 16.7233 7.70711 16.5358C7.89464 16.3483 8 16.0939 8 15.8287C8 15.5635 7.89464 15.3091 7.70711 15.1216C7.51957 14.9341 7.26522 14.8287 7 14.8287H1C0.734784 14.8287 0.48043 14.9341 0.292893 15.1216C0.105357 15.3091 0 15.5635 0 15.8287V21.8287C0 22.0939 0.105357 22.3483 0.292893 22.5358C0.48043 22.7233 0.734784 22.8287 1 22.8287C1.26522 22.8287 1.51957 22.7233 1.70711 22.5358C1.89464 22.3483 2 22.0939 2 21.8287V18.2425L3.82875 20.0712C6.05902 22.3127 9.08799 23.577 12.25 23.5862H12.3162C15.4514 23.5943 18.4634 22.3669 20.7 20.17C20.8826 19.9831 20.9849 19.7323 20.9849 19.471C20.9849 19.2097 20.8827 18.9589 20.7001 18.772C20.5175 18.5852 20.269 18.4772 20.0078 18.4712C19.7466 18.4652 19.4935 18.5617 19.3025 18.74H19.3013Z" fill="#20587D"/>
</svg>
