<?xml version="1.0" encoding="UTF-8"?>
<svg id="Calque_1" data-name="Calque 1" xmlns="http://www.w3.org/2000/svg" viewBox="0 0 762 762">
  <defs>
    <style>
      .cls-1 {
        fill: #014064;
      }
    </style>
  </defs>
  <path class="cls-1" d="M269.35,461.38l35.39-72.39c.62-4.07-9.51-17.95-11.92-23.13-13.2-28.36-17.63-57.65-13.92-88.75,3.17-4.57,15.84,4.73,21.25-9.94,1.8-4.88,2.36-17.67,4.82-20.43,1.65-1.84,14.2-6.82,17.01-6.63,9.65.66,16.78,19.63,30.6,9.67,3.61-2.6,32.66-32.39,33.46-34.89,3.5-10.97-12.46-20.82-12.67-27.53-.08-2.75,6.37-15.91,9.45-17.24,14.29-6.2,30.71,1.26,27.62-25.11,79.91-11.36,156.28,41.79,172.79,120.59,29.05,138.71-123.73,237.43-240.36,160.26l-73.51,35.54ZM346.58,378.2h161.91c-4.93-38.69-35.7-71.53-75.75-72.8l16.83-7.66c26.61-17.64,18.55-63.78-13.47-69.21-44.22-7.49-64.83,45.97-28.83,70.42l15.06,6.45c-39.79,1.4-71.61,33.75-75.75,72.8Z"/>
  <path class="cls-1" d="M211.41,648.54c-18.18-44.97-68.88-58.21-94.78-97.58-5.23-7.95-9-16.8-13.44-25.18-21.83-67.81-57.94-137.32-76.71-205.52-1.56-5.66-4.57-14.83-5.07-20.23-1.2-12.75,7.83-19.82,20-15.48,24.75,8.82,51.59,79.75,63.76,104.07,3.86,7.71,15.75,24.92,17.46,31.6,1.12,4.38-1.92,8.87-1.94,13.67-.18,35.77,52.92,77.07,75.04,101.82,10.14,5.84,20.99-4.1,14.8-14.81-4.48-7.75-22.85-21.26-30.36-29.05-10.13-10.51-33.59-36.18-36.44-49.71-4.3-20.44,7.69-33.36,28.4-26.92,13.73,4.27,45.53,38.58,58.56,49.87,24.05,20.84,65.69,48.7,79.56,76.41,15.99,31.94,9.59,73,19.99,107.01h-118.83Z"/>
  <path class="cls-1" d="M550.08,648.54h-118.83c1.32-6.75,3.15-13.48,4.22-20.29,8.4-53.23-.22-80.29,43.29-120.1,19.92-18.22,43.28-35.37,63.91-53.43,11.79-10.32,31.94-34.07,45.6-39.07,20.32-7.44,33.8,5.97,29.48,26.51-2.96,14.04-27.41,40.27-37.92,51.2-7.02,7.29-32.43,26.1-30.97,35.3,1.13,7.15,10.7,11.35,16.9,7.07,22.17-24.85,75.21-65.87,75.04-101.82-.02-4.8-3.07-9.29-1.94-13.67,1.71-6.67,13.61-23.91,17.46-31.6,12.21-24.34,39.02-95.25,63.76-104.07,12.18-4.34,21.2,2.73,20,15.48-.51,5.4-3.52,14.57-5.07,20.23-18.76,68.2-54.88,137.7-76.71,205.52-4.44,8.38-8.21,17.23-13.44,25.18-25.91,39.39-76.68,52.6-94.78,97.58Z"/>
  <path class="cls-1" d="M388.1,147.9c-7.33,1.58-19.62,1.17-24.03,7.9-2.07,3.15-13.11,30.18-13.12,33.01-.03,6.5,8.42,15.29,11.72,20.81l-17.61,17.89c-11.25-1.54-13.43-12.27-27.11-9.39-2.59.54-29.06,12.16-30.37,13.44-4.15,4.05-4.58,21.9-6.55,23.16l-25.68.28c-2.1-.36-1.38-20.22-9.23-25.14-4.17-2.61-28.29-12.21-32.48-12.22-9.13-.02-13.72,9.04-21.98,10.39-1.13-.29-16.2-15.12-16.7-16.22-2.75-6,11.87-13.8,9.37-27.09-.65-3.45-11.64-29-13.71-30.86-4.74-4.26-16.71-4.67-23-5.96l-.14-25.69c.75-3.19,19.67-2.77,23.9-7.98,1.98-2.44,13.06-29.17,13.36-32.35,1-10.76-7.38-14.21-10.24-23.56l17.6-18.14c8.1,2.91,14.66,12.57,24.12,10.95,3.36-.57,31.3-12.56,33.02-14.6,3.58-4.24,4.08-16.54,5.31-22.17l27.5,1.32c1.82,7.87.48,17.96,8.2,22.99,2.95,1.92,29.18,12.73,31.84,12.86,8.07.37,15.04-8.74,22.27-11.64l17.87,17.45c-2.45,9.65-13.12,14.71-10.9,25.67.56,2.76,12.11,29.16,13.69,30.92,5.23,5.82,20.52,4.45,22.5,7.21l.57,26.77ZM263.06,74.11c-79.65,7.45-69.06,129.59,14.28,119.74,74.2-8.77,63.13-126.98-14.28-119.74Z"/>
  <path class="cls-1" d="M361.43,731.72h-167.11l-2.23-2.23v-43.08c0-9.12,10.03-16.34,18.49-17.16,42.16-4.08,90.88,3.2,133.76.08,6.05-.98,17.08,8.94,17.08,14.11v48.27Z"/>
  <path class="cls-1" d="M400.05,731.72v-48.27c0-5.17,11.03-15.09,17.08-14.11,42.87,3.13,91.6-4.16,133.76-.08,4.55.44,9.34,1.73,12.58,5.24,1.67,1.81,5.91,11.48,5.91,13.4v41.59l-2.23,2.23h-167.11Z"/>
</svg>