<svg width="27" height="21" viewBox="0 0 27 21" fill="none" xmlns="http://www.w3.org/2000/svg">
<path d="M2 1.03613V19.0361C2 19.3013 1.89464 19.5557 1.70711 19.7432C1.51957 19.9308 1.26522 20.0361 1 20.0361C0.734784 20.0361 0.48043 19.9308 0.292893 19.7432C0.105357 19.5557 0 19.3013 0 19.0361V1.03613C0 0.770916 0.105357 0.516563 0.292893 0.329026C0.48043 0.14149 0.734784 0.0361328 1 0.0361328C1.26522 0.0361328 1.51957 0.14149 1.70711 0.329026C1.89464 0.516563 2 0.770916 2 1.03613ZM13.5 7.84863L11 8.66113V6.03613C11 5.77092 10.8946 5.51656 10.7071 5.32903C10.5196 5.14149 10.2652 5.03613 10 5.03613C9.73478 5.03613 9.48043 5.14149 9.29289 5.32903C9.10536 5.51656 9 5.77092 9 6.03613V8.66113L6.5 7.84863C6.24771 7.76575 5.97284 7.78649 5.73584 7.90628C5.49884 8.02607 5.31913 8.2351 5.23625 8.48738C5.15337 8.73967 5.17411 9.01455 5.29389 9.25155C5.41368 9.48855 5.62271 9.66825 5.875 9.75113L8.375 10.5624L6.8325 12.6874C6.75098 12.7933 6.69153 12.9145 6.65764 13.0438C6.62376 13.1731 6.61613 13.3078 6.63522 13.4401C6.65431 13.5724 6.69972 13.6995 6.76877 13.8139C6.83782 13.9284 6.92911 14.0278 7.03725 14.1064C7.14538 14.1849 7.26816 14.241 7.39834 14.2713C7.52851 14.3016 7.66344 14.3055 7.79514 14.2827C7.92685 14.26 8.05266 14.211 8.16513 14.1389C8.27761 14.0667 8.37447 13.9727 8.45 13.8624L9.9925 11.7374L11.535 13.8624C11.6105 13.9727 11.7074 14.0667 11.8199 14.1389C11.9323 14.211 12.0582 14.26 12.1899 14.2827C12.3216 14.3055 12.4565 14.3016 12.5867 14.2713C12.7168 14.241 12.8396 14.1849 12.9478 14.1064C13.0559 14.0278 13.1472 13.9284 13.2162 13.8139C13.2853 13.6995 13.3307 13.5724 13.3498 13.4401C13.3689 13.3078 13.3612 13.1731 13.3274 13.0438C13.2935 12.9145 13.234 12.7933 13.1525 12.6874L11.61 10.5624L14.11 9.75113C14.3511 9.66144 14.5484 9.48225 14.6609 9.25082C14.7733 9.0194 14.7922 8.75355 14.7136 8.50855C14.6351 8.26355 14.4651 8.05825 14.2391 7.93535C14.013 7.81244 13.7483 7.78138 13.5 7.84863ZM26.75 8.49113C26.668 8.24115 26.4909 8.03352 26.2569 7.91326C26.0229 7.79299 25.751 7.76977 25.5 7.84863L23 8.66113V6.03613C23 5.77092 22.8946 5.51656 22.7071 5.32903C22.5196 5.14149 22.2652 5.03613 22 5.03613C21.7348 5.03613 21.4804 5.14149 21.2929 5.32903C21.1054 5.51656 21 5.77092 21 6.03613V8.66113L18.5 7.84988C18.2477 7.76783 17.9732 7.78936 17.7368 7.90974C17.5003 8.03011 17.3214 8.23947 17.2394 8.49176C17.1573 8.74404 17.1789 9.01859 17.2992 9.25501C17.4196 9.49142 17.629 9.67033 17.8813 9.75238L20.3813 10.5636L18.8388 12.6886C18.7572 12.7945 18.6978 12.9157 18.6639 13.045C18.63 13.1743 18.6224 13.3091 18.6415 13.4414C18.6606 13.5736 18.706 13.7008 18.775 13.8152C18.8441 13.9296 18.9354 14.0291 19.0435 14.1076C19.1516 14.1862 19.2744 14.2422 19.4046 14.2725C19.5348 14.3028 19.6697 14.3067 19.8014 14.284C19.9331 14.2612 20.0589 14.2123 20.1714 14.1401C20.2839 14.0679 20.3807 13.9739 20.4562 13.8636L21.9988 11.7386L23.5413 13.8636C23.6168 13.9739 23.7136 14.0679 23.8261 14.1401C23.9386 14.2123 24.0644 14.2612 24.1961 14.284C24.3278 14.3067 24.4627 14.3028 24.5929 14.2725C24.7231 14.2422 24.8459 14.1862 24.954 14.1076C25.0621 14.0291 25.1534 13.9296 25.2225 13.8152C25.2915 13.7008 25.3369 13.5736 25.356 13.4414C25.3751 13.3091 25.3675 13.1743 25.3336 13.045C25.2997 12.9157 25.2403 12.7945 25.1588 12.6886L23.6162 10.5636L26.1162 9.75238C26.3672 9.66874 26.5749 9.48905 26.6936 9.25266C26.8124 9.01627 26.8327 8.74244 26.75 8.49113Z" fill="#20587D"/>
</svg>
