<svg width="28" height="21" viewBox="0 0 28 21" fill="none" xmlns="http://www.w3.org/2000/svg">
<path d="M26 0.243164H2C1.46957 0.243164 0.960859 0.453878 0.585786 0.82895C0.210714 1.20402 0 1.71273 0 2.24316V18.2432C0 18.7736 0.210714 19.2823 0.585786 19.6574C0.960859 20.0324 1.46957 20.2432 2 20.2432H26C26.5304 20.2432 27.0391 20.0324 27.4142 19.6574C27.7893 19.2823 28 18.7736 28 18.2432V2.24316C28 1.71273 27.7893 1.20402 27.4142 0.82895C27.0391 0.453878 26.5304 0.243164 26 0.243164ZM26 2.24316V5.24316H2V2.24316H26ZM26 18.2432H2V7.24316H26V18.2432ZM24 15.2432C24 15.5084 23.8946 15.7627 23.7071 15.9503C23.5196 16.1378 23.2652 16.2432 23 16.2432H19C18.7348 16.2432 18.4804 16.1378 18.2929 15.9503C18.1054 15.7627 18 15.5084 18 15.2432C18 14.9779 18.1054 14.7236 18.2929 14.5361C18.4804 14.3485 18.7348 14.2432 19 14.2432H23C23.2652 14.2432 23.5196 14.3485 23.7071 14.5361C23.8946 14.7236 24 14.9779 24 15.2432ZM16 15.2432C16 15.5084 15.8946 15.7627 15.7071 15.9503C15.5196 16.1378 15.2652 16.2432 15 16.2432H13C12.7348 16.2432 12.4804 16.1378 12.2929 15.9503C12.1054 15.7627 12 15.5084 12 15.2432C12 14.9779 12.1054 14.7236 12.2929 14.5361C12.4804 14.3485 12.7348 14.2432 13 14.2432H15C15.2652 14.2432 15.5196 14.3485 15.7071 14.5361C15.8946 14.7236 16 14.9779 16 15.2432Z" fill="#20587D"/>
</svg>
