<svg width="28" height="21" viewBox="0 0 28 21" fill="none" xmlns="http://www.w3.org/2000/svg">
<path d="M28 13.1139C28 15.1277 27.6038 16.8502 26.8538 18.0939C25.925 19.6352 24.4788 20.4502 22.68 20.4502C19.1875 20.4502 16.7075 15.8252 14.0825 10.9227C11.955 6.9502 9.54375 2.4502 7.25 2.4502C6.0775 2.4502 4.7575 3.7002 3.71875 5.78395C2.61382 8.07117 2.02696 10.574 2 13.1139C2 14.7639 2.2975 16.1289 2.86 17.0614C3.4225 17.9939 4.2275 18.4502 5.32 18.4502C7.21 18.4502 9.17625 15.3827 10.8488 12.3814C10.978 12.1494 11.1942 11.9782 11.4497 11.9055C11.7053 11.8328 11.9792 11.8647 12.2113 11.9939C12.4433 12.1232 12.6145 12.3394 12.6872 12.5949C12.7599 12.8505 12.728 13.1244 12.5988 13.3564C10.6825 16.7889 8.38375 20.4502 5.32 20.4502C3.51875 20.4502 2.07 19.6352 1.14625 18.0939C0.39625 16.8439 0 15.1277 0 13.1139C0.0294668 10.2651 0.687635 7.45781 1.9275 4.8927C3.3525 2.0277 5.2425 0.450195 7.25 0.450195C10.7425 0.450195 13.2212 5.0752 15.8475 9.9777C17.9737 13.9502 20.385 18.4502 22.68 18.4502C23.7725 18.4502 24.5775 17.9964 25.14 17.0614C25.7025 16.1264 26 14.7639 26 13.1139C25.9734 10.574 25.387 8.07127 24.2825 5.78395C23.25 3.7002 21.9237 2.4502 20.75 2.4502C19.705 2.4502 18.54 3.3852 17.1863 5.31019C17.1118 5.42027 17.0161 5.51439 16.9049 5.58707C16.7936 5.65975 16.669 5.70952 16.5382 5.73348C16.4075 5.75743 16.2733 5.75509 16.1435 5.7266C16.0137 5.6981 15.8909 5.64401 15.7823 5.5675C15.6736 5.49099 15.5813 5.39359 15.5107 5.28099C15.4401 5.16839 15.3927 5.04284 15.3712 4.9117C15.3497 4.78056 15.3545 4.64644 15.3854 4.51719C15.4163 4.38795 15.4727 4.26616 15.5513 4.15895C16.6763 2.56645 18.4263 0.450195 20.75 0.450195C22.7563 0.450195 24.6463 2.0277 26.0713 4.8927C27.3115 7.45771 27.9701 10.265 28 13.1139Z" fill="#20587D"/>
</svg>
