<?xml version="1.0" encoding="UTF-8"?>
<svg id="Calque_1" data-name="Calque 1" xmlns="http://www.w3.org/2000/svg" viewBox="0 0 612 612">
  <defs>
    <style>
      .cls-1 {
        fill: #014064;
      }
    </style>
  </defs>
  <path class="cls-1" d="M397.26,424.7v79.33c0,1.01,10.68,5.88,11.83,15.62,4.2,35.4-53.55,25.95-37.56-6.75,1.99-4.08,9.02-8.23,9.02-8.87v-79.33h-34.6v47.12l-32.18,34.62-.04,46.51c.53,2.75,5.44,4.72,7.68,7.82,5.46,7.54,5.56,16.34.11,23.81-15.32,20.97-47.12-1.08-32.64-23.1,2.14-3.26,6.73-5.41,7.55-6.76,3.11-5.13-1.45-44.99.85-55.22,1.55-6.87,26.83-26.33,31.96-33.65v-41.16h-47.72v51.89c0,4.38-8.44,6.78-12.61,4.25-.81-.49-4.09-4.91-4.09-5.45v-50.7h-34.6v79.33c0,.64,7.03,4.79,9.02,8.87,12.52,25.62-24.89,41.79-35.47,18.77-5-10.87-1.76-17.67,6.14-25.33,1.4-1.36,3.6-1.51,3.6-1.71v-79.93h-18.49c-.21,0-2.1-1.84-2.37-2.4l-.02-151.49,8.3-3.63h208.89l8.3,3.63-.02,151.49c-.26.56-2.16,2.4-2.37,2.4h-18.49ZM300.32,330.74c-23.49,4-18.59,32.23,5.56,31.79,28.84-.53,25.24-37.04-5.56-31.79Z"/>
  <path class="cls-1" d="M110.95,221.89v41.75h41.16c14.25-22.8,30.22-43.88,51.33-60.82l11.8,15.59,17.4,32.11h-36.39c-5.78,0-13.94,5.46-17.11,10.33-.68,1.04-3.77,7.63-3.77,8.16v127.05c-13.21-.45-25.77-3.65-38.15-7.78-1.86-.62-7.34-4.15-7.78-4.15h-18.49v39.96c0,.92,9.41,5.82,10.63,14.42,4.85,34.29-48.09,30.37-38.33-2.75,2.18-7.39,10.19-9.95,10.97-14.08,2.5-13.26-1.9-33.78-.03-47.75.26-1.94,2.73-6.5,4.24-6.5h19.68c-1.44-5.75-2.25-12.28,0-17.89h-36.39l-28.61,28.65c-1.05,6.07,1.11,9.01-1.25,15.46-8.86,24.14-47.54,10.8-36.94-15.47,4.24-10.51,15.25-13.16,25.59-11.29l34.58-33.52,46.42-.7,6.13-17.73h-50.7c-1.81-.92-3.23-2.32-4.8-3.55-7.18-5.64-24.85-27.91-30.41-30.44-4.95-2.25-11.33,2.2-20.18-3.68-22.03-14.64,2.41-48.87,23.81-32.16,8.62,6.74,7.7,14.93,7.74,24.46l28.86,28.41,52.06.05,9.14-17.7h-43.54c-.65,0-3.52-2.25-4.05-3.11-4.43-7.06.77-42.93-1.51-53.37-20-11.14-13.52-40.97,10.33-38.98,19.42,1.62,24.47,29.36,6.57,37Z"/>
  <path class="cls-1" d="M467.65,280.35l9.14,17.7,52.06-.05,28.86-28.41c.04-9.53-.88-17.73,7.74-24.46,21.11-16.49,45.85,16.8,23.8,32.16-8.59,5.98-15.21,1.42-20.18,3.68-5.56,2.53-23.23,24.79-30.41,30.44-1.57,1.23-2.99,2.63-4.8,3.55h-50.7l6.13,17.73,46.42.7,34.58,33.52c12.75-2.95,26.42,3.98,27.42,17.87,1.83,25.46-37.86,30.81-40.16,2.17-.21-2.66,1.95-5.85.14-8.74l-28.62-28.65h-36.39c2.25,5.62,1.44,12.14,0,17.89h19.68c1.51,0,3.98,4.56,4.24,6.5,2.01,14.99-1.61,34.43-.08,49.92,21.1,9.88,12.45,42.5-11.02,38.74-15.25-2.44-21.95-21.43-12.15-33.06,1.27-1.51,6.49-4.67,6.49-5.44v-39.96h-18.49c-.86,0-12.2,5.73-15.85,6.82-9.6,2.87-20.08,4.51-30.08,5.11v-127.05c0-.53-3.09-7.12-3.77-8.16-3.16-4.87-11.33-10.33-17.11-10.33h-32.81c5.95-17.08,15.93-32.62,25.64-47.71,21.13,16.95,36.89,38.15,51.3,60.84h41.16v-41.75c0-.46-4.85-2.29-7.15-5.38-9.08-12.2-1.48-30.35,13.72-31.62,23.94-2,30.12,27.77,10.33,38.98-2.28,10.43,2.92,46.31-1.51,53.37-.54.85-3.4,3.11-4.05,3.11h-43.54Z"/>
  <path class="cls-1" d="M417.53,139.58c-25.2-19.12-54.02-37.99-85.82-43.6-52.18-9.22-98.41,10.9-137.86,43.6-2.6.8,7-27.23,7.74-29.24,14.35-38.75,44.58-82.68,88.03-90.92,69.51-13.17,116.31,61.55,127.91,120.16Z"/>
  <path class="cls-1" d="M372.21,128.84c17.09,10.41,33.77,21.96,47.7,36.39-26.96,21.47-42.75,53.28-56.61,84.14l-3.55,1.22-107.84-.26c-15.65-31.25-33.3-62.95-61.01-85.1,14.01-14.42,30.54-26.03,47.7-36.39v18.49c0,32.4,30.78,78.99,66.19,79.42,36.08.44,67.42-46.59,67.42-79.42v-18.49Z"/>
  <path class="cls-1" d="M353.12,119.31c-.18,1.87-1.82,1.8-3.06,2.29-21.22,8.44-60.82,7.6-82.84,1.88-3.08-.8-8.05-1.11-9.53-4.18,31.38-11.5,64.08-11.36,95.44,0Z"/>
</svg>