<svg width="24" height="25" viewBox="0 0 24 25" fill="none" xmlns="http://www.w3.org/2000/svg">
<path d="M24 15.6582V23.6582C24 23.9234 23.8946 24.1778 23.7071 24.3653C23.5196 24.5528 23.2652 24.6582 23 24.6582H1C0.734784 24.6582 0.48043 24.5528 0.292893 24.3653C0.105357 24.1778 0 23.9234 0 23.6582V15.6582C0 15.393 0.105357 15.1386 0.292893 14.9511C0.48043 14.7636 0.734784 14.6582 1 14.6582C1.26522 14.6582 1.51957 14.7636 1.70711 14.9511C1.89464 15.1386 2 15.393 2 15.6582V22.6582H22V15.6582C22 15.393 22.1054 15.1386 22.2929 14.9511C22.4804 14.7636 22.7348 14.6582 23 14.6582C23.2652 14.6582 23.5196 14.7636 23.7071 14.9511C23.8946 15.1386 24 15.393 24 15.6582ZM11.2925 16.3657C11.3854 16.4587 11.4957 16.5324 11.6171 16.5828C11.7385 16.6331 11.8686 16.659 12 16.659C12.1314 16.659 12.2615 16.6331 12.3829 16.5828C12.5043 16.5324 12.6146 16.4587 12.7075 16.3657L17.7075 11.3657C17.8004 11.2728 17.8741 11.1625 17.9244 11.0411C17.9747 10.9197 18.0006 10.7896 18.0006 10.6582C18.0006 10.5268 17.9747 10.3967 17.9244 10.2753C17.8741 10.1539 17.8004 10.0436 17.7075 9.9507C17.6146 9.85779 17.5043 9.78409 17.3829 9.73381C17.2615 9.68353 17.1314 9.65765 17 9.65765C16.8686 9.65765 16.7385 9.68353 16.6171 9.73381C16.4957 9.78409 16.3854 9.85779 16.2925 9.9507L13 13.2445V1.6582C13 1.39299 12.8946 1.13863 12.7071 0.951096C12.5196 0.76356 12.2652 0.658203 12 0.658203C11.7348 0.658203 11.4804 0.76356 11.2929 0.951096C11.1054 1.13863 11 1.39299 11 1.6582V13.2445L7.7075 9.9507C7.51986 9.76306 7.26536 9.65765 7 9.65765C6.73464 9.65765 6.48014 9.76306 6.2925 9.9507C6.10486 10.1383 5.99944 10.3928 5.99944 10.6582C5.99944 10.9236 6.10486 11.1781 6.2925 11.3657L11.2925 16.3657Z" fill="#194C76"/>
</svg>
