<svg width="20" height="30" viewBox="0 0 20 30" fill="none" xmlns="http://www.w3.org/2000/svg">
<path d="M10.8957 10.4174C10.8128 10.251 10.6851 10.111 10.527 10.0131C10.3689 9.91528 10.1866 9.86345 10.0007 9.86345C9.81478 9.86345 9.63253 9.91528 9.47443 10.0131C9.31633 10.111 9.18864 10.251 9.10571 10.4174L0.105707 28.4174C-0.0129771 28.6546 -0.0325719 28.9292 0.0512334 29.1809C0.135039 29.4325 0.315379 29.6406 0.552582 29.7593C0.789785 29.8779 1.06442 29.8975 1.31607 29.8137C1.56772 29.7299 1.77577 29.5496 1.89446 29.3124L3.62571 25.8649H16.3882L18.112 29.3124C18.1946 29.4776 18.3214 29.6166 18.4783 29.7142C18.6352 29.8117 18.816 29.8639 19.0007 29.8649C19.1711 29.8648 19.3387 29.8211 19.4876 29.7381C19.6364 29.655 19.7615 29.5353 19.851 29.3902C19.9406 29.2452 19.9916 29.0797 19.9992 28.9095C20.0068 28.7392 19.9707 28.5698 19.8945 28.4174L10.8957 10.4174ZM10.0007 13.1011L13.3832 19.8649H6.61821L10.0007 13.1011ZM4.62571 23.8649L5.62571 21.8649H14.3882L15.3882 23.8649H4.62571ZM13.9432 11.5824C14.0462 11.0066 14.0217 10.4152 13.8713 9.84994C13.721 9.28466 13.4485 8.75923 13.0731 8.31068C12.6976 7.86214 12.2284 7.50139 11.6984 7.25386C11.1685 7.00633 10.5906 6.87804 10.0057 6.87804C9.42078 6.87804 8.84297 7.00633 8.31299 7.25386C7.78302 7.50139 7.31378 7.86214 6.93835 8.31068C6.56292 8.75923 6.29043 9.28466 6.14009 9.84994C5.98975 10.4152 5.96521 11.0066 6.06821 11.5824C6.09489 11.7129 6.09522 11.8474 6.06919 11.9781C6.04316 12.1087 5.99129 12.2329 5.91662 12.3432C5.84194 12.4535 5.74598 12.5478 5.63437 12.6205C5.52275 12.6932 5.39773 12.7429 5.26664 12.7667C5.13555 12.7904 5.00105 12.7877 4.87102 12.7587C4.74099 12.7298 4.61806 12.6751 4.50944 12.598C4.40083 12.5208 4.30872 12.4228 4.23853 12.3096C4.16834 12.1963 4.12148 12.0702 4.10071 11.9386C3.94397 11.0741 3.979 10.1858 4.20332 9.33631C4.42764 8.48685 4.83578 7.69701 5.3989 7.02261C5.96202 6.34822 6.66637 5.80572 7.46219 5.43346C8.25801 5.06119 9.12587 4.86824 10.0045 4.86824C10.883 4.86824 11.7509 5.06119 12.5467 5.43346C13.3425 5.80572 14.0469 6.34822 14.61 7.02261C15.1731 7.69701 15.5813 8.48685 15.8056 9.33631C16.0299 10.1858 16.0649 11.0741 15.9082 11.9386C15.8666 12.1691 15.7455 12.3776 15.566 12.5279C15.3865 12.6782 15.1599 12.7607 14.9257 12.7611C14.8658 12.7606 14.806 12.7552 14.747 12.7449C14.6173 12.722 14.4935 12.6737 14.3826 12.6028C14.2717 12.5319 14.1758 12.4398 14.1006 12.3318C14.0253 12.2238 13.9721 12.102 13.944 11.9734C13.916 11.8448 13.9136 11.7119 13.937 11.5824H13.9432ZM2.01946 16.8911C0.898962 15.4068 0.214591 13.6394 0.0432416 11.7876C-0.128108 9.9357 0.220354 8.07275 1.04947 6.40803C1.87859 4.7433 3.15551 3.34278 4.73677 2.3638C6.31802 1.38483 8.14094 0.866211 10.0007 0.866211C11.8605 0.866211 13.6834 1.38483 15.2646 2.3638C16.8459 3.34278 18.1228 4.7433 18.9519 6.40803C19.7811 8.07275 20.1295 9.9357 19.9582 11.7876C19.7868 13.6394 19.1025 15.4068 17.982 16.8911C17.8204 17.0981 17.5839 17.2332 17.3236 17.2673C17.0632 17.3014 16.7999 17.2318 16.5905 17.0734C16.3811 16.915 16.2423 16.6806 16.2043 16.4208C16.1662 16.161 16.2318 15.8967 16.387 15.6849C17.2829 14.4973 17.83 13.0835 17.9668 11.6021C18.1036 10.1208 17.8246 8.63066 17.1612 7.29912C16.4978 5.96759 15.4763 4.8474 14.2114 4.0644C12.9465 3.2814 11.4883 2.8666 10.0007 2.8666C8.51307 2.8666 7.0549 3.2814 5.78999 4.0644C4.52509 4.8474 3.50357 5.96759 2.84018 7.29912C2.17679 8.63066 1.89782 10.1208 2.03459 11.6021C2.17137 13.0835 2.71848 14.4973 3.61446 15.6849C3.76962 15.8967 3.83524 16.161 3.79716 16.4208C3.75908 16.6806 3.62035 16.915 3.41093 17.0734C3.2015 17.2318 2.93819 17.3014 2.67785 17.2673C2.41751 17.2332 2.18102 17.0981 2.01946 16.8911Z" fill="#20587D"/>
</svg>
