<?xml version="1.0" encoding="UTF-8"?>
<svg id="Calque_1" data-name="Calque 1" xmlns="http://www.w3.org/2000/svg" viewBox="0 0 646 646">
  <defs>
    <style>
      .cls-1 {
        fill: #014064;
      }
    </style>
  </defs>
  <path class="cls-1" d="M211.56,266.96c-1.46,8.96-18.4,16.46-11.89,26.36,4.44,6.76,18.7,2.83,25.73,3.87,6,78.8,96.71,123.73,163.1,79.62,8.68,13.21,26.58,4.47,16.38-9.14l-45.92-44.74c-12.71-4.02-16.96,9.21-7.65,16.43-26.6,13.99-63.7-3.95-73.06-31.43-.95-2.8-3.73-12.92-3.73-15.16v-23.93l1.89-1.89h191.41l1.89,1.89v141.04l-107.07,88.21c-1.6.97-2.83-.07-4.18-.86-9.63-5.6-18.54-19.45-30.53-21.13-20.96-2.94-28.52,12.69-43.96,22.6l-108.93-88.82v-141.04l1.89-1.89h34.63Z"/>
  <path class="cls-1" d="M151.11,632.15c-.8-2.97.78-2.13,1.61-2.88,52.14-46.59,111.39-87.96,163.92-134.44l6.39-1.33,170.6,138.64H151.11Z"/>
  <polygon class="cls-1" points="133.48 620.81 133.48 400.44 269.46 510.63 133.48 620.81"/>
  <polygon class="cls-1" points="511.26 400.44 511.26 620.81 375.29 510.63 511.26 400.44"/>
  <path class="cls-1" d="M425.63,249.33h-13.85V62.33c-7.33-6.04-14-9.92-14.98-20.3-2.62-27.56,34.55-36.22,44.88-13.38,7.05,15.6-1.73,28.49-16.05,34.93v185.74ZM427.79,31.83c-8.23-8.23-22.3,1.86-16.07,12.93,6.96,12.36,27.12-1.89,16.07-12.93Z"/>
  <path class="cls-1" d="M256.89,294.04c4.79,51.76,61,83.48,107.7,59.84l10.65,9.42c.02,2.79-18.09,9.22-21.38,10.08-51.82,13.6-101.87-19.74-110.47-72.13-2.1-12.78,3.08-23.66-16.72-21.7l30.22-36.51c1.11,16.46-1.5,34.77,0,51Z"/>
  <path class="cls-1" d="M157.41,366.44v28.96c-2.37-2.87-18.24-13.3-17.63-15.73l17.63-13.24Z"/>
  <path class="cls-1" d="M487.33,395.41v-28.96l17.63,13.24c.61,2.42-15.26,12.85-17.63,15.73Z"/>
</svg>