<?xml version="1.0" encoding="UTF-8"?>
<svg id="Calque_1" data-name="Calque 1" xmlns="http://www.w3.org/2000/svg" viewBox="0 0 630 630">
  <defs>
    <style>
      .cls-1 {
        fill: #014064;
      }
    </style>
  </defs>
  <path class="cls-1" d="M150.44,268.95c-7.15-1.43-10.44-9.94-10.48-16.54V30.04c.63-7.39,2.09-13.52,9.83-15.96l416.15.23c5.72,2,8.88,7.24,8.84,13.26v227.29c-.54,17.07-18.21,14.82-30.74,13.45l-40-68.08c-9.69-10.01-25.18-10.22-34.93-.34l-41.14,69.04h-129.56v-45.44h91.49c.46,0,4.16-4.19,4.61-5.24,2.35-5.41-.85-9.95-6.1-11.69l-90.01-.26c.71-10.84-1.04-21.49-3.68-31.94h95.18c.46,0,4.16-4.19,4.61-5.24,2.35-5.41-.85-9.95-6.1-11.69l-104.05-.33c-18.48-13.19-35.59-19.48-58.01-9.97-4.77,2.03-12.92,9.24-14.77,9.8-8.21,2.45-33.93-5.4-33.16,9.27.57,10.8,14.66,7.92,21.74,8.18.4.29-3.68,8.34-3.68,9.2v22.72c-24.17-4.12-24.19,21.61,0,17.19v45.44h-46.05ZM183.85,59.21c-8.38,4.74-6.57,16.19,3.4,16.96h199c11.55-1.34,12.51-14.92,1.27-17.29l-203.67.32ZM431.05,164.56h110.53c-.5-26.09-24.25-49.84-50.35-50.36,4.63-4.2,10.78-4.86,15.28-9.89,18.69-20.88-3.7-53.35-31.23-42.29-16.35,6.57-20.81,29.26-9.14,42.29,4.5,5.03,10.65,5.68,15.28,9.89-26.1.53-49.85,24.27-50.35,50.36ZM185.09,108.33c-9.74,2.16-8.2,16.81,2.16,16.96h199c12.31-1.43,11.27-15.99,1.26-17.28l-202.43.33Z"/>
  <path class="cls-1" d="M196.49,286.14v33.77c0,4.44-3.03,17.77-4.57,22.45-2.11,6.38-11.47,18.23-3.29,23.47,6.48,4.15,11.35-.67,14.54-6.08,21.16-35.98,5.5-127.02,10.51-171.24,4.15-36.63,63.93-41.8,67.6,7.32,4.2,56.27-6.82,110.48,7.67,166.72,5.41,20.99,15.37,40.98,16.89,62.93,2.2,31.55-7.85,63.94-19.09,92.77H122.81c-1.31-28.77-6.42-56.08-13.86-83.77-16.23-60.42-41.21-118.65-54.97-179.59-1.08-26.69,19.2-45.79,34.48-65.12,11.05-13.98,22.66-27.73,34.36-41.17v108.68c0,5.28,5.37,16.37,9.17,20.31,2.4,2.49,13.13,8.55,16.01,8.55h48.51Z"/>
  <path class="cls-1" d="M108.97,535.72l188.29.27c3.73,1.99,7.77,5.61,8.46,9.96,1.18,7.46,1.16,53.06-.51,59.53-1.42,5.47-6.76,9.23-12.29,9.82l-184.65-.84c-5.21-2.09-9.13-6.65-9.91-12.19-1.14-8.06-1.3-50.19.47-57.03,1.25-4.84,5.51-8.13,10.14-9.51ZM260.09,554.11c-27.34,2.19-24.97,46.3,5.72,41.42,24.7-3.93,19.88-43.47-5.72-41.42Z"/>
  <path class="cls-1" d="M484.76,210.22c2.95-.62,5.39-.45,7.05,2.27,24.24,45.81,54.08,89.76,78.23,135.45,2.92,5.52,7.82,11.62.72,15.88h-168.89c-8.65-3.99,1.33-16.37,4.41-22.03,23.63-43.4,50.65-85.03,74.06-128.57,1-1.58,2.61-2.63,4.42-3.01ZM483.53,247.08c-3.44.75-5.2,3.22-5.73,6.59-1.59,10.07-1.33,45.87-.1,56.44,1.29,11.1,15.67,10.49,17.14,1.13,1.57-10.03,1.34-45.95.1-56.44-.77-6.54-4.92-9.14-11.41-7.72ZM484.77,329.31c-10.76,1.95-8.66,20.33,3.33,18.24,10.66-1.86,8.32-20.35-3.33-18.24Z"/>
</svg>