<?xml version="1.0" encoding="UTF-8"?>
<svg id="Calque_1" data-name="Calque 1" xmlns="http://www.w3.org/2000/svg" viewBox="0 0 640 640">
  <defs>
    <style>
      .cls-1 {
        fill: #014064;
      }
    </style>
  </defs>
  <path class="cls-1" d="M169.36,14.04c17.66-2.5,39.41,18.09,58.28,19.75,4.07.36,10.95.35,15-.06,17.42-1.78,39.5-21.62,56.02-19.91,23.38,2.43,40.3,45.41,46.29,64.93,10.48,34.16,14.22,70.66,15.09,106.31-80.81,26.09-170.15,26.18-250.95.01,1.54-53.62,8.07-110.98,38.85-156.22,5.65-6.39,12.48-13.55,21.41-14.81Z"/>
  <path class="cls-1" d="M185.89,475c-21.12-8.08-30.55-29.23-32.31-50.75-37.51-10.28-53.4-43.89-51.27-81.11.31-5.44,2.25-11.95,2.53-17.46.83-16.17-.48-32.39-3.78-48.18l34.76,8.92c-3.35,30.77,23.62,59.34,55.02,49.17,17.01-5.51,26.18-23.44,21.24-40.59h44.91c-5.71,19.86,7.6,40.07,28.2,42.36,29.71,3.31,50.72-22.55,48.06-50.95l34.76-8.92c-1.31,7.22-2.88,14.58-3.71,21.89-.53,4.63.84,10.32-.32,14.68-.95,3.59-9.44,13.59-11.93,18.04-14.92,26.64-21.97,55.09-21.62,85.84-1.21,3.58-12.52,3.36-14.93,6.29-.99,1.21-2.58,15.63-3.95,19.79-4.38,13.25-15.07,26.26-28.35,30.97v-26.88c0-5.32-12-8.66-15.95-.98-3.4,6.61-.25,34.11-1.53,35.34l-22.44,2.51v-35.62c0-2.35-5.46-6.69-8.2-6.86-3.27-.21-9.27,4.09-9.27,6.86v35.62l-22.44-2.51c-1.28-1.23,1.87-28.73-1.53-35.34-3.95-7.68-15.95-4.34-15.95.98v26.88ZM259.1,395.85c3.01-2.76,3.4-7.38,2.61-11.19-.67-3.23-14.99-31.68-17.39-35.08-5.73-8.08-13.85-8.03-19.55,0-3.17,4.46-15.06,28.11-16.7,33.26-2.76,8.69.38,14.9,9.6,15.94,7.59.85,26.15.85,33.74,0,2.3-.26,6.02-1.4,7.69-2.93Z"/>
  <path class="cls-1" d="M373.03,125l42.4,17.52c-11.68,24.73-13.65,50.83-1.47,75.83,1.58,3.24,10.7,15.2,10.13,17.12-34.97,22.65-79.36,32.81-120.49,38.11-73.53,9.47-211.74,4.59-270.51-46.11-55.82-48.15,20.12-90.63,62.95-102.46l-3.72,31.89c2.89,12.54-8.4,37.26,6.22,43.74,34.32,15.21,107.66,22.76,145.4,21.93,32.74-.72,96.98-8.79,126.57-21.93,2.9-1.29,4.99-3.19,6.54-5.95,1.91-23.08-1.53-46.72-4.03-69.68Z"/>
  <path class="cls-1" d="M472.58,272.87c90.43-8.03,164.14,68.53,151.04,158.83-15.2,104.72-139.6,152.82-222.53,88.59-3.82,1.75-8.12,11.55-12.5,8.53-1.97-1.36-20.21-19.43-20.46-20.87l9.59-11.06c-28.92-39.02-37.56-87.52-20.93-133.79,17.33-48.25,64.41-85.66,115.8-90.23ZM476.32,305.37c-81.37,7.65-123.07,102.7-74.39,168.79,44.67,60.65,139.31,55.36,176.34-10.39,42.46-75.39-16.25-166.46-101.95-158.4Z"/>
  <path class="cls-1" d="M531.03,136.69c57.58,57.07-23.64,146.4-85.66,93.95-65.8-55.63,24.67-154.41,85.66-93.95ZM484.98,137.69c-3.62.65-6.54,4.46-7.09,8-1.25,8.02-1.09,35.35-.1,43.7,1.43,12.09,15.83,12.54,17.42,2.39.76-4.88.6-46.69-.56-49.28-1.33-2.97-6.4-5.41-9.66-4.82ZM480.67,210.38c-8.39,6.78,1.72,22.67,11.53,14.65,9.27-7.57-2.04-22.34-11.53-14.65Z"/>
  <path class="cls-1" d="M346.47,520.26c3.48-.79,6.42-.47,9.56,1.15,1.84.95,17.97,17.01,19.5,19.21,3.09,4.46,3.65,8.63,1.09,13.59l-66.07,66.3c-20.74,17.13-49.14-8.14-34.62-30.94,21.86-18.29,43.76-50.03,65.89-66.48,1.55-1.15,2.56-2.36,4.66-2.84Z"/>
  <path class="cls-1" d="M497.79,378.73c-.11-2.43,5.05-1.13,6.53-.91,21.88,3.3,43.72,16.42,58.31,32.8-39.4,45.68-112.7,45.41-152.16,0,14.9-17.21,48.42-36.73,71.64-33.05,10.86,1.72,12.68,18.42,2.28,23.38-14.93,7.12-18.39-10.91-19.68-10.93-6.95,10.56-.35,26.93,10.29,32.17,29.93,14.72,51.94-28.29,22.78-43.46Z"/>
</svg>