<?xml version="1.0" encoding="UTF-8"?>
<svg id="Calque_1" data-name="Calque 1" xmlns="http://www.w3.org/2000/svg" viewBox="0 0 512 512">
  <defs>
    <style>
      .cls-1 {
        fill: #014064;
      }
    </style>
  </defs>
  <path class="cls-1" d="M74,169.5c.87-4.9,7.7-10.68,12.56-11.44l69.44-.07c-.2,35.29,18.94,67.08,47.99,86h-45c2.72-14.62-6.89-29.12-21.47-17.97-11.81,9.02-29.29,25.31-40.05,35.95-8.89,8.79-8.89,14.25,0,23.05,10.46,10.34,28.03,26.88,39.51,35.49,15.36,11.51,24.15-1.91,22.01-17.51h99.5c.28,0,3.76-3.51,3.99-4.02,2.16-4.67-2.13-9.98-6.97-10l-104.06-.02c-1.99-.1-6.46,2.65-6.46,4.54v14.5l-38.98-34.5,38.98-34.5v14.5c0,2.26,5.01,5.24,7.45,4.55,35.75-1.81,73.59,2.25,109.09,0,52.33-3.33,94.92-47.19,94.45-100.05l69.44.07c4.21.35,12.56,7.44,12.56,11.44v204.5H74v-204.5Z"/>
  <path class="cls-1" d="M468,456h-137l-15-24.5-2.95-2.05-113.34-.23c-1.93.43-2.9,1.47-4.15,2.85-5.2,5.73-10.3,17.12-14.56,23.94H44l26.96-67.54,368.55-.47,2.3,1.7,26.18,66.32Z"/>
  <path class="cls-1" d="M360,72h-86c-.49,2.84.67,1.64,2.2,2.25,27.62,11,46.85,20.55,58.98,50.07,34.89,84.85-67.89,157.89-136.19,98.19-60.32-52.73-20.04-152.61,59.01-150.52-.14-2.26-1.69-2.84-2.05-5.44-.52-3.75-.3-34.61.58-36.54.24-.52,2.77-3.02,2.98-3.02h100.5V8.5c0-.81,4.56-4.72,6.26-3.35,13.79,11.49,28.21,23.31,41.27,35.83,8.32,7.97,9.07,8.33.49,16.54-12.57,12.03-26.74,22.59-39.06,34.93-2.78,3.51-8.95.23-8.95-2.95v-17.5ZM251.79,82.3c-55.93,2.99-89.35,64.98-61.22,113.62,29,50.15,102.71,49.66,131.23-.61,29.45-51.91-10.68-116.17-70.01-113Z"/>
  <path class="cls-1" d="M472,470c1.6,13.14-9.23,25.07-22.46,25.04l-389.03-.05c-9.48-.75-17.52-7.97-20.03-16.97-.66-2.38-2.23-6.58.02-8.02h431.5Z"/>
  <path class="cls-1" d="M315,456h-118c2.63-3.6,6.02-12.52,10.44-13.06l98.07.05c3.23.62,7.1,10.23,9.49,13.01Z"/>
  <path class="cls-1" d="M212.35,114.35c27.7-27.7,75.16-22.27,95.84,10.96,30.57,49.09-18.16,109.8-72.73,90.73-42.02-14.69-54.75-70.05-23.11-101.69ZM263,133c11.54-.36,7.82,14.41,19.29,11.78,6.64-1.52,4.82-8.49,2.53-13.1-4.03-8.12-13.27-11.28-21.38-13.62,1.16-15.99-16.03-16-14.87,0-17.15,2.86-30.39,19.88-17.82,35.69,4.78,6.01,11.89,7.33,18.25,10.75v18.5c-8.92,0-10.05-12.83-15.74-13.84-3.21-.57-7.75,2.18-8.27,5.4-1.73,10.73,14.01,22.42,23.97,22.48-1.28,6.38,2.15,15.53,9.78,12.22,6.09-2.65,3.22-9.4,4.39-11.13.36-.54,9.87-2.8,12.41-4.1,22.86-11.64,8.99-38.76-12.53-41.03v-20Z"/>
  <path class="cls-1" d="M263,183v-15c12.73,2.38,13.77,14.18,0,15Z"/>
  <path class="cls-1" d="M249,133v16c-11.77-2.03-11.77-14.39,0-16Z"/>
</svg>