<?xml version="1.0" encoding="UTF-8"?>
<svg id="Calque_1" data-name="Calque 1" xmlns="http://www.w3.org/2000/svg" viewBox="0 0 590 590">
  <defs>
    <style>
      .cls-1 {
        fill: #014064;
      }
    </style>
  </defs>
  <path class="cls-1" d="M423.22,167.91c-29.19-26.37-64.37-53.24-104.41-59.47-60.01-9.34-108.78,19.64-150.33,59.46-.4-7.71,2.63-17.29,4.88-25.03,14.6-50.21,49.82-110.91,105.85-120.72,81.45-14.26,133.38,77.65,144.01,145.75Z"/>
  <path class="cls-1" d="M159.86,445.09c-24.79-4.94-69.13-4.5-74.24-36.74-3.44-21.66,10.99-55.57,19.98-75.59,18.18-40.49,43.17-80.39,79-107.27,20.7,27.88,36.79,59.28,50.1,91.24l-72.05,42.04c-.72.85-2.8,4.55-2.8,5.25v81.08Z"/>
  <path class="cls-1" d="M431.29,445.09v-81.08c0-.7-2.08-4.4-2.8-5.25l-67.45-39.76c12.04-32.15,26.93-63.19,45.08-92.29,2.04-1.19,8.29,4.5,10.23,6.17,36.56,31.47,75.08,99.13,86.39,145.93,14.25,58.98-26.14,58.92-71.45,66.28Z"/>
  <polygon class="cls-1" points="415.19 378.38 415.19 505.47 303.63 570.45 303.63 441.64 415.19 378.38"/>
  <path class="cls-1" d="M220.81,147.22c-1.01,33.07,10.72,71.12,37.42,91.97,24.48,19.12,50.21,19.13,74.69,0,26.7-20.86,38.42-58.91,37.42-91.97l18.94,12.68,30.49,28.15c-35.49,32.32-55.32,78.48-72.45,122.48-14.87-6.38-28.59-17.27-42.92-24.34-5.66-2.79-7.28-4.64-13.88-1.99-11.84,4.75-25.21,16.47-37.03,21.61-1.59.69-3.11,1.69-4.96,1.2-19.41-42.76-41.36-87.56-77.13-118.96,12.83-12.81,26.06-25.68,41.02-36.02,1.22-.84,7.67-5.65,8.41-4.81Z"/>
  <path class="cls-1" d="M175.96,378.38l29.92,16.91c2.09,11.07-3.27,54.7,1.06,61.94,3.87,6.47,16.1.3,21.97-.1,3.87,4.34,13.99,22.8,18.28,24.25,4.53,1.53,11.58-1.56,11.58-5.82v-50.03l28.75,16.1v128.81l-111.56-64.98v-127.09Z"/>
  <polygon class="cls-1" points="221.97 395.06 340.9 326.62 360.42 336.9 361.13 339.26 242.67 405.98 242.67 447.39 235.64 438.28 221.97 441.64 221.97 395.06"/>
  <path class="cls-1" d="M266.83,410.6l110.31-62.72,28.82,16.13-109.23,63.35c-4.06.83-25.37-13.18-29.91-16.76Z"/>
  <path class="cls-1" d="M324.32,317.41l-110.03,63.03-29.1-16.44,109.23-63.35c1.85-.74,3.14.51,4.64,1.19,8.13,3.7,17.82,10.43,25.27,15.57Z"/>
  <path class="cls-1" d="M348.48,135.7c-34.48,10.47-71.3,10.48-105.8,0-1.35-1.73,18.87-8.12,20.7-8.61,25.91-6.9,52.41-5.43,77.33,4.31,2.51.98,6.45,1.81,7.77,4.29Z"/>
</svg>