<?xml version="1.0" encoding="UTF-8"?>
<svg id="Calque_1" data-name="Calque 1" xmlns="http://www.w3.org/2000/svg" viewBox="0 0 620 620">
  <defs>
    <style>
      .cls-1 {
        fill: #014064;
      }
    </style>
  </defs>
  <path class="cls-1" d="M286.49,358.9c-.34-28.37,3.26-58.52,11.43-85.76,4.31-14.36,18.48-50.47,35.12-53.1,19.47-3.07,35.28,17.54,59.19,15.67,19.87-1.55,39.34-25.39,58.47-11.42,23.58,17.22,34.96,77.27,37.56,105.05.46,4.93,2.66,26.81.03,29.02-65.66,20.9-135.9,19.28-201.8.53Z"/>
  <path class="cls-1" d="M378.28,600.66l-14.44-2.48c-1.01-9.42,4.92-36.28-12.21-30.82-8.48,2.7-5.48,16.82-5.99,23.62-15.49-7.54-22.07-23.53-23.49-39.95-20.29-4.35-34.91-21.58-39.71-41.27-5.89-24.18,5.2-48.84-2.05-73.47l27.64,6.19c-.73,41.47,59.02,52.45,63.68,7.05l33.16.04c1.53,45.75,64.44,33.69,62.99-7.09l27.64-6.19c-2.79,11.21-3.11,24.12-2.48,35.7.42,7.71,2.81,15.12,2.52,22.95-.86,23.07-17.09,53.21-42.31,54.98-.55,16.26-8.14,35.12-24.21,41.05v-18.73c0-4.98-10.98-7.67-15.07-2.99-.53.61-3.06,6.25-3.06,6.61v22.36l-12.74,2.12-1.76-1.51v-26.59c0-7.36-18.13-7.43-18.13,2.42v25.98ZM386.43,483.62c-2.73.5-5.18,3.27-6.74,5.45-1.83,2.57-14.53,28.32-14.57,29.98-.12,4.51,3.45,8.35,7.8,9.02s29.71.63,32.87-.82c4.63-2.12,4.41-8.33,3.34-12.44-.47-1.8-13.34-26.2-14.58-27.71-2.13-2.57-4.69-4.11-8.12-3.49Z"/>
  <path class="cls-1" d="M273.14,310.62c-1.62,8.95-3.24,19.29-3.67,28.34-.24,5.07-.75,26.44.68,29.64s6.34,4.1,9.33,5.17c59.68,21.28,159.71,23.11,218.79-.59,5.06-2.03,7.46-2.82,8.16-8.76,1.95-16.58-2.12-37.11-3.64-53.8,45.54,12.42,96.8,52.58,36.15,89.93-69.4,42.73-225.7,42.1-296.81,3.33-66.65-36.34-20.06-79.79,31.02-93.26Z"/>
  <path class="cls-1" d="M123.27,181.29H54.39c2.29-42.77,20.01-83.46,50.33-113.47l33.99,22.18c-10.08,29.24-14.94,60.37-15.43,91.29Z"/>
  <path class="cls-1" d="M397.62,181.29h-67.68c-1.82-30.94-6.04-61.54-15.59-91.05l32.07-22.47c31.56,27.65,49.92,71.73,51.2,113.52Z"/>
  <path class="cls-1" d="M123.27,198.21c.64,30.52,5.47,61.18,15.33,90.07l-32.85,22.37c-31.48-27.72-48.58-70.91-51.37-112.44h68.89Z"/>
  <path class="cls-1" d="M311.81,181.29h-77.35v-70.1c21.95-1.76,43.85-5.59,64.04-14.51,8.4,27.29,14.04,55.87,13.31,84.6Z"/>
  <path class="cls-1" d="M217.54,111.19v70.1h-77.35c.86-28.43,4.28-57.43,14.48-84.05,20.21,7.64,41.23,12.49,62.87,13.95Z"/>
  <path class="cls-1" d="M217.54,198.21v70.1c-22.08-.29-43.36,6.49-64.04,13.3-7.34-27.2-13.27-55.01-13.3-83.39h77.35Z"/>
  <path class="cls-1" d="M313.02,198.21c-2.69,4.47-.08,10.22-1.46,14.86-.33,1.11-9.01,10.53-10.9,13.28-9.92,14.44-16.84,32.14-20.29,49.22-14.99-3.7-30.27-7.77-45.92-7.26v-70.1h78.56Z"/>
  <path class="cls-1" d="M234.46,21.75c29.13,4.36,45.82,34.46,57.98,58.62-17.05,8.3-36.38,11.61-55.26,13.66l-2.73-1.58V21.75Z"/>
  <path class="cls-1" d="M217.54,21.75v72.51c-19.17-2.51-39.78-4.35-56.71-14.02,10.65-24.14,28.74-53.55,56.71-58.49Z"/>
  <path class="cls-1" d="M217.54,285.22v35.65c-9.81,6.57-16.41,16.02-22.36,25.96-15.95-12.07-26.96-30.61-34.49-48.86,17.65-8.1,37.43-12.33,56.84-12.75Z"/>
  <path class="cls-1" d="M146.23,305.77c5.17,17.97,18.07,32.42,29.02,47.12-20.93-5.04-39.95-16.52-56.78-29.6-.05-1.86,25.41-19.69,27.77-17.53Z"/>
  <path class="cls-1" d="M176.45,25.39c-13.9,13.9-22.96,31.08-32.01,48.29l-25.97-17.48c16.33-14.3,36.97-25.36,57.99-30.81Z"/>
  <path class="cls-1" d="M307,73.72c-6.57-18.17-18.04-33.63-30.23-48.33,20.78,5.64,39.85,16.47,56.8,29.61.78,3.09-22.36,17.14-26.57,18.72Z"/>
  <path class="cls-1" d="M397.62,198.21l-1.37,19.17c-7.16,3.04-13.81,1.14-20.7-1.33-6.55-2.35-23.82-13.01-29.3-13.01h-17.52l1.21-4.83h67.68Z"/>
  <path class="cls-1" d="M234.46,285.22c13.95-.54,27.53,3.45,41.09,6.06l-41.09,18.12v-24.17Z"/>
</svg>